<?xml version="1.0" encoding="utf-8" standalone="no"?>
<!DOCTYPE svg PUBLIC "-//W3C//DTD SVG 1.1//EN"
  "http://www.w3.org/Graphics/SVG/1.1/DTD/svg11.dtd">
<svg xmlns:xlink="http://www.w3.org/1999/xlink" width="360pt" height="576pt" viewBox="0 0 360 576" xmlns="http://www.w3.org/2000/svg" version="1.1">
 <metadata>
  <rdf:RDF xmlns:dc="http://purl.org/dc/elements/1.1/" xmlns:cc="http://creativecommons.org/ns#" xmlns:rdf="http://www.w3.org/1999/02/22-rdf-syntax-ns#">
   <cc:Work>
    <dc:type rdf:resource="http://purl.org/dc/dcmitype/StillImage"/>
    <dc:date>2026-05-04T16:56:32.530053</dc:date>
    <dc:format>image/svg+xml</dc:format>
    <dc:creator>
     <cc:Agent>
      <dc:title>Matplotlib v3.10.7, https://matplotlib.org/</dc:title>
     </cc:Agent>
    </dc:creator>
   </cc:Work>
  </rdf:RDF>
 </metadata>
 <defs>
  <style type="text/css">*{stroke-linejoin: round; stroke-linecap: butt}</style>
 </defs>
 <g id="figure_1">
  <g id="patch_1">
   <path d="M 0 576 
L 360 576 
L 360 0 
L 0 0 
z
" style="fill: #ffffff"/>
  </g>
  <g id="axes_1">
   <g id="patch_2">
    <path d="M 95.4 462.51 
C 140.25742 462.51 183.323482 444.671453 215.042467 412.952467 
C 246.761453 381.233482 264.6 338.16742 264.6 293.31 
C 264.6 248.45258 246.761453 205.386518 215.042467 173.667533 
C 183.323482 141.948547 140.25742 124.11 95.4 124.11 
L 95.4 293.31 
C 95.4 293.31 95.4 293.31 95.4 293.31 
C 95.4 293.31 95.4 293.31 95.4 293.31 
C 95.4 293.31 95.4 293.31 95.4 293.31 
C 95.4 293.31 95.4 293.31 95.4 293.31 
z
" style="fill: #ffffff"/>
   </g>
   <g id="PathCollection_1">
    <defs>
     <path id="m2454d56d3a" d="M 0 5 
C 1.326016 5 2.597899 4.473168 3.535534 3.535534 
C 4.473168 2.597899 5 1.326016 5 0 
C 5 -1.326016 4.473168 -2.597899 3.535534 -3.535534 
C 2.597899 -4.473168 1.326016 -5 0 -5 
C -1.326016 -5 -2.597899 -4.473168 -3.535534 -3.535534 
C -4.473168 -2.597899 -5 -1.326016 -5 0 
C -5 1.326016 -4.473168 2.597899 -3.535534 3.535534 
C -2.597899 4.473168 -1.326016 5 0 5 
z
" style="stroke: #000000"/>
    </defs>
    <g clip-path="url(#pdd25d01408)">
     <use xlink:href="#m2454d56d3a" x="180.858772" y="207.85117" style="stroke: #000000"/>
    </g>
   </g>
   <g id="matplotlib.axis_1">
    <g id="xtick_1">
     <g id="line2d_1">
      <path d="M 95.4 293.31 
L 95.4 462.51 
" clip-path="url(#pdd25d01408)" style="fill: none; stroke: #b0b0b0; stroke-width: 0.8; stroke-linecap: square"/>
     </g>
     <g id="text_1">
      <!-- -90° -->
      <g transform="translate(76.200469 481.476875) scale(0.18 -0.18)">
       <defs>
        <path id="DejaVuSans-2d" d="M 313 2009 
L 1997 2009 
L 1997 1497 
L 313 1497 
L 313 2009 
z
" transform="scale(0.015625)"/>
        <path id="DejaVuSans-39" d="M 703 97 
L 703 672 
Q 941 559 1184 500 
Q 1428 441 1663 441 
Q 2288 441 2617 861 
Q 2947 1281 2994 2138 
Q 2813 1869 2534 1725 
Q 2256 1581 1919 1581 
Q 1219 1581 811 2004 
Q 403 2428 403 3163 
Q 403 3881 828 4315 
Q 1253 4750 1959 4750 
Q 2769 4750 3195 4129 
Q 3622 3509 3622 2328 
Q 3622 1225 3098 567 
Q 2575 -91 1691 -91 
Q 1453 -91 1209 -44 
Q 966 3 703 97 
z
M 1959 2075 
Q 2384 2075 2632 2365 
Q 2881 2656 2881 3163 
Q 2881 3666 2632 3958 
Q 2384 4250 1959 4250 
Q 1534 4250 1286 3958 
Q 1038 3666 1038 3163 
Q 1038 2656 1286 2365 
Q 1534 2075 1959 2075 
z
" transform="scale(0.015625)"/>
        <path id="DejaVuSans-30" d="M 2034 4250 
Q 1547 4250 1301 3770 
Q 1056 3291 1056 2328 
Q 1056 1369 1301 889 
Q 1547 409 2034 409 
Q 2525 409 2770 889 
Q 3016 1369 3016 2328 
Q 3016 3291 2770 3770 
Q 2525 4250 2034 4250 
z
M 2034 4750 
Q 2819 4750 3233 4129 
Q 3647 3509 3647 2328 
Q 3647 1150 3233 529 
Q 2819 -91 2034 -91 
Q 1250 -91 836 529 
Q 422 1150 422 2328 
Q 422 3509 836 4129 
Q 1250 4750 2034 4750 
z
" transform="scale(0.015625)"/>
        <path id="DejaVuSans-b0" d="M 1600 4347 
Q 1350 4347 1178 4173 
Q 1006 4000 1006 3750 
Q 1006 3503 1178 3333 
Q 1350 3163 1600 3163 
Q 1850 3163 2022 3333 
Q 2194 3503 2194 3750 
Q 2194 3997 2020 4172 
Q 1847 4347 1600 4347 
z
M 1600 4750 
Q 1800 4750 1984 4673 
Q 2169 4597 2303 4453 
Q 2447 4313 2519 4134 
Q 2591 3956 2591 3750 
Q 2591 3338 2302 3052 
Q 2013 2766 1594 2766 
Q 1172 2766 890 3047 
Q 609 3328 609 3750 
Q 609 4169 896 4459 
Q 1184 4750 1600 4750 
z
" transform="scale(0.015625)"/>
       </defs>
       <use xlink:href="#DejaVuSans-2d"/>
       <use xlink:href="#DejaVuSans-39" transform="translate(36.083984 0)"/>
       <use xlink:href="#DejaVuSans-30" transform="translate(99.707031 0)"/>
       <use xlink:href="#DejaVuSans-b0" transform="translate(163.330078 0)"/>
      </g>
     </g>
    </g>
    <g id="xtick_2">
     <g id="line2d_2">
      <path d="M 95.4 293.31 
L 180 439.841498 
" clip-path="url(#pdd25d01408)" style="fill: none; stroke: #b0b0b0; stroke-width: 0.8; stroke-linecap: square"/>
     </g>
     <g id="text_2">
      <!-- -60° -->
      <g transform="translate(167.800469 456.932729) scale(0.18 -0.18)">
       <defs>
        <path id="DejaVuSans-36" d="M 2113 2584 
Q 1688 2584 1439 2293 
Q 1191 2003 1191 1497 
Q 1191 994 1439 701 
Q 1688 409 2113 409 
Q 2538 409 2786 701 
Q 3034 994 3034 1497 
Q 3034 2003 2786 2293 
Q 2538 2584 2113 2584 
z
M 3366 4563 
L 3366 3988 
Q 3128 4100 2886 4159 
Q 2644 4219 2406 4219 
Q 1781 4219 1451 3797 
Q 1122 3375 1075 2522 
Q 1259 2794 1537 2939 
Q 1816 3084 2150 3084 
Q 2853 3084 3261 2657 
Q 3669 2231 3669 1497 
Q 3669 778 3244 343 
Q 2819 -91 2113 -91 
Q 1303 -91 875 529 
Q 447 1150 447 2328 
Q 447 3434 972 4092 
Q 1497 4750 2381 4750 
Q 2619 4750 2861 4703 
Q 3103 4656 3366 4563 
z
" transform="scale(0.015625)"/>
       </defs>
       <use xlink:href="#DejaVuSans-2d"/>
       <use xlink:href="#DejaVuSans-36" transform="translate(36.083984 0)"/>
       <use xlink:href="#DejaVuSans-30" transform="translate(99.707031 0)"/>
       <use xlink:href="#DejaVuSans-b0" transform="translate(163.330078 0)"/>
      </g>
     </g>
    </g>
    <g id="xtick_3">
     <g id="line2d_3">
      <path d="M 95.4 293.31 
L 241.931498 377.91 
" clip-path="url(#pdd25d01408)" style="fill: none; stroke: #b0b0b0; stroke-width: 0.8; stroke-linecap: square"/>
     </g>
     <g id="text_3">
      <!-- -30° -->
      <g transform="translate(234.856323 389.876875) scale(0.18 -0.18)">
       <defs>
        <path id="DejaVuSans-33" d="M 2597 2516 
Q 3050 2419 3304 2112 
Q 3559 1806 3559 1356 
Q 3559 666 3084 287 
Q 2609 -91 1734 -91 
Q 1441 -91 1130 -33 
Q 819 25 488 141 
L 488 750 
Q 750 597 1062 519 
Q 1375 441 1716 441 
Q 2309 441 2620 675 
Q 2931 909 2931 1356 
Q 2931 1769 2642 2001 
Q 2353 2234 1838 2234 
L 1294 2234 
L 1294 2753 
L 1863 2753 
Q 2328 2753 2575 2939 
Q 2822 3125 2822 3475 
Q 2822 3834 2567 4026 
Q 2313 4219 1838 4219 
Q 1578 4219 1281 4162 
Q 984 4106 628 3988 
L 628 4550 
Q 988 4650 1302 4700 
Q 1616 4750 1894 4750 
Q 2613 4750 3031 4423 
Q 3450 4097 3450 3541 
Q 3450 3153 3228 2886 
Q 3006 2619 2597 2516 
z
" transform="scale(0.015625)"/>
       </defs>
       <use xlink:href="#DejaVuSans-2d"/>
       <use xlink:href="#DejaVuSans-33" transform="translate(36.083984 0)"/>
       <use xlink:href="#DejaVuSans-30" transform="translate(99.707031 0)"/>
       <use xlink:href="#DejaVuSans-b0" transform="translate(163.330078 0)"/>
      </g>
     </g>
    </g>
    <g id="xtick_4">
     <g id="line2d_4">
      <path d="M 95.4 293.31 
L 264.6 293.31 
" clip-path="url(#pdd25d01408)" style="fill: none; stroke: #b0b0b0; stroke-width: 0.8; stroke-linecap: square"/>
     </g>
     <g id="text_4">
      <!-- 0° -->
      <g transform="translate(268.37375 298.276875) scale(0.18 -0.18)">
       <use xlink:href="#DejaVuSans-30"/>
       <use xlink:href="#DejaVuSans-b0" transform="translate(63.623047 0)"/>
      </g>
     </g>
    </g>
    <g id="xtick_5">
     <g id="line2d_5">
      <path d="M 95.4 293.31 
L 241.931498 208.71 
" clip-path="url(#pdd25d01408)" style="fill: none; stroke: #b0b0b0; stroke-width: 0.8; stroke-linecap: square"/>
     </g>
     <g id="text_5">
      <!-- 30° -->
      <g transform="translate(238.103354 206.676875) scale(0.18 -0.18)">
       <use xlink:href="#DejaVuSans-33"/>
       <use xlink:href="#DejaVuSans-30" transform="translate(63.623047 0)"/>
       <use xlink:href="#DejaVuSans-b0" transform="translate(127.246094 0)"/>
      </g>
     </g>
    </g>
    <g id="xtick_6">
     <g id="line2d_6">
      <path d="M 95.4 293.31 
L 180 146.778502 
" clip-path="url(#pdd25d01408)" style="fill: none; stroke: #b0b0b0; stroke-width: 0.8; stroke-linecap: square"/>
     </g>
     <g id="text_6">
      <!-- 60° -->
      <g transform="translate(171.0475 139.621021) scale(0.18 -0.18)">
       <use xlink:href="#DejaVuSans-36"/>
       <use xlink:href="#DejaVuSans-30" transform="translate(63.623047 0)"/>
       <use xlink:href="#DejaVuSans-b0" transform="translate(127.246094 0)"/>
      </g>
     </g>
    </g>
    <g id="xtick_7">
     <g id="line2d_7">
      <path d="M 95.4 293.31 
L 95.4 124.11 
" clip-path="url(#pdd25d01408)" style="fill: none; stroke: #b0b0b0; stroke-width: 0.8; stroke-linecap: square"/>
     </g>
     <g id="text_7">
      <!-- 90° -->
      <g transform="translate(79.4475 115.076875) scale(0.18 -0.18)">
       <use xlink:href="#DejaVuSans-39"/>
       <use xlink:href="#DejaVuSans-30" transform="translate(63.623047 0)"/>
       <use xlink:href="#DejaVuSans-b0" transform="translate(127.246094 0)"/>
      </g>
     </g>
    </g>
   </g>
   <g id="matplotlib.axis_2">
    <g id="ytick_1">
     <g id="line2d_8">
      <path d="M 95.4 353.738498 
C 111.420487 353.738498 126.801205 347.367596 138.1294 336.0394 
C 149.457596 324.711205 155.828498 309.330487 155.828498 293.31 
C 155.828498 277.289513 149.457596 261.908795 138.1294 250.5806 
C 126.801205 239.252404 111.420487 232.881502 95.4 232.881502 
" clip-path="url(#pdd25d01408)" style="fill: none; stroke: #b0b0b0; stroke-width: 0.8; stroke-linecap: square"/>
     </g>
     <g id="text_8">
      <!-- $G_{c,\mathrm{min}}^{-1} /2$ -->
      <g transform="translate(19.82 358.598498) scale(0.18 -0.18)">
       <defs>
        <path id="DejaVuSans-Oblique-47" d="M 3494 697 
L 3738 1919 
L 2700 1919 
L 2797 2438 
L 4453 2438 
L 4050 384 
Q 3634 156 3143 32 
Q 2653 -91 2156 -91 
Q 1278 -91 783 396 
Q 288 884 288 1753 
Q 288 2475 589 3126 
Q 891 3778 1422 4213 
Q 1756 4484 2153 4617 
Q 2550 4750 3034 4750 
Q 3472 4750 3873 4639 
Q 4275 4528 4641 4306 
L 4513 3634 
Q 4231 3928 3853 4083 
Q 3475 4238 3047 4238 
Q 2550 4238 2172 4048 
Q 1794 3859 1497 3463 
Q 1244 3125 1098 2667 
Q 953 2209 953 1734 
Q 953 1081 1287 751 
Q 1622 422 2284 422 
Q 2616 422 2925 492 
Q 3234 563 3494 697 
z
" transform="scale(0.015625)"/>
        <path id="DejaVuSans-2212" d="M 678 2272 
L 4684 2272 
L 4684 1741 
L 678 1741 
L 678 2272 
z
" transform="scale(0.015625)"/>
        <path id="DejaVuSans-31" d="M 794 531 
L 1825 531 
L 1825 4091 
L 703 3866 
L 703 4441 
L 1819 4666 
L 2450 4666 
L 2450 531 
L 3481 531 
L 3481 0 
L 794 0 
L 794 531 
z
" transform="scale(0.015625)"/>
        <path id="DejaVuSans-Oblique-63" d="M 3431 3366 
L 3316 2797 
Q 3109 2947 2876 3022 
Q 2644 3097 2394 3097 
Q 2119 3097 1870 3000 
Q 1622 2903 1453 2725 
Q 1184 2453 1037 2087 
Q 891 1722 891 1331 
Q 891 859 1127 628 
Q 1363 397 1844 397 
Q 2081 397 2348 469 
Q 2616 541 2906 684 
L 2797 116 
Q 2547 13 2283 -39 
Q 2019 -91 1741 -91 
Q 1044 -91 669 257 
Q 294 606 294 1253 
Q 294 1797 489 2255 
Q 684 2713 1069 3078 
Q 1331 3328 1684 3456 
Q 2038 3584 2456 3584 
Q 2700 3584 2940 3529 
Q 3181 3475 3431 3366 
z
" transform="scale(0.015625)"/>
        <path id="DejaVuSans-2c" d="M 750 794 
L 1409 794 
L 1409 256 
L 897 -744 
L 494 -744 
L 750 256 
L 750 794 
z
" transform="scale(0.015625)"/>
        <path id="DejaVuSans-6d" d="M 3328 2828 
Q 3544 3216 3844 3400 
Q 4144 3584 4550 3584 
Q 5097 3584 5394 3201 
Q 5691 2819 5691 2113 
L 5691 0 
L 5113 0 
L 5113 2094 
Q 5113 2597 4934 2840 
Q 4756 3084 4391 3084 
Q 3944 3084 3684 2787 
Q 3425 2491 3425 1978 
L 3425 0 
L 2847 0 
L 2847 2094 
Q 2847 2600 2669 2842 
Q 2491 3084 2119 3084 
Q 1678 3084 1418 2786 
Q 1159 2488 1159 1978 
L 1159 0 
L 581 0 
L 581 3500 
L 1159 3500 
L 1159 2956 
Q 1356 3278 1631 3431 
Q 1906 3584 2284 3584 
Q 2666 3584 2933 3390 
Q 3200 3197 3328 2828 
z
" transform="scale(0.015625)"/>
        <path id="DejaVuSans-69" d="M 603 3500 
L 1178 3500 
L 1178 0 
L 603 0 
L 603 3500 
z
M 603 4863 
L 1178 4863 
L 1178 4134 
L 603 4134 
L 603 4863 
z
" transform="scale(0.015625)"/>
        <path id="DejaVuSans-6e" d="M 3513 2113 
L 3513 0 
L 2938 0 
L 2938 2094 
Q 2938 2591 2744 2837 
Q 2550 3084 2163 3084 
Q 1697 3084 1428 2787 
Q 1159 2491 1159 1978 
L 1159 0 
L 581 0 
L 581 3500 
L 1159 3500 
L 1159 2956 
Q 1366 3272 1645 3428 
Q 1925 3584 2291 3584 
Q 2894 3584 3203 3211 
Q 3513 2838 3513 2113 
z
" transform="scale(0.015625)"/>
        <path id="DejaVuSans-2f" d="M 1625 4666 
L 2156 4666 
L 531 -594 
L 0 -594 
L 1625 4666 
z
" transform="scale(0.015625)"/>
        <path id="DejaVuSans-32" d="M 1228 531 
L 3431 531 
L 3431 0 
L 469 0 
L 469 531 
Q 828 903 1448 1529 
Q 2069 2156 2228 2338 
Q 2531 2678 2651 2914 
Q 2772 3150 2772 3378 
Q 2772 3750 2511 3984 
Q 2250 4219 1831 4219 
Q 1534 4219 1204 4116 
Q 875 4013 500 3803 
L 500 4441 
Q 881 4594 1212 4672 
Q 1544 4750 1819 4750 
Q 2544 4750 2975 4387 
Q 3406 4025 3406 3419 
Q 3406 3131 3298 2873 
Q 3191 2616 2906 2266 
Q 2828 2175 2409 1742 
Q 1991 1309 1228 531 
z
" transform="scale(0.015625)"/>
       </defs>
       <use xlink:href="#DejaVuSans-Oblique-47" transform="translate(0 0.620313)"/>
       <use xlink:href="#DejaVuSans-2212" transform="translate(84.690755 38.965625) scale(0.7)"/>
       <use xlink:href="#DejaVuSans-31" transform="translate(143.343099 38.965625) scale(0.7)"/>
       <use xlink:href="#DejaVuSans-Oblique-63" transform="translate(77.490234 -26.723437) scale(0.7)"/>
       <use xlink:href="#DejaVuSans-2c" transform="translate(115.976562 -26.723437) scale(0.7)"/>
       <use xlink:href="#DejaVuSans-6d" transform="translate(151.865234 -26.723437) scale(0.7)"/>
       <use xlink:href="#DejaVuSans-69" transform="translate(220.053711 -26.723437) scale(0.7)"/>
       <use xlink:href="#DejaVuSans-6e" transform="translate(239.501953 -26.723437) scale(0.7)"/>
       <use xlink:href="#DejaVuSans-2f" transform="translate(286.601562 0.620313)"/>
       <use xlink:href="#DejaVuSans-32" transform="translate(316.667969 0.620313)"/>
      </g>
     </g>
    </g>
    <g id="ytick_2">
     <g id="line2d_9">
      <path d="M 95.4 414.166995 
C 127.440975 414.166995 158.20241 401.425192 180.858801 378.768801 
C 203.515192 356.11241 216.256995 325.350975 216.256995 293.31 
C 216.256995 261.269025 203.515192 230.50759 180.858801 207.851199 
C 158.20241 185.194808 127.440975 172.453005 95.4 172.453005 
" clip-path="url(#pdd25d01408)" style="fill: none; stroke: #b0b0b0; stroke-width: 0.8; stroke-linecap: square"/>
     </g>
     <g id="text_9">
      <!-- $G_{c,\mathrm{min}}^{-1}$ -->
      <g transform="translate(36.74 419.026995) scale(0.18 -0.18)">
       <use xlink:href="#DejaVuSans-Oblique-47" transform="translate(0 0.620313)"/>
       <use xlink:href="#DejaVuSans-2212" transform="translate(84.690755 38.965625) scale(0.7)"/>
       <use xlink:href="#DejaVuSans-31" transform="translate(143.343099 38.965625) scale(0.7)"/>
       <use xlink:href="#DejaVuSans-Oblique-63" transform="translate(77.490234 -26.723437) scale(0.7)"/>
       <use xlink:href="#DejaVuSans-2c" transform="translate(115.976562 -26.723437) scale(0.7)"/>
       <use xlink:href="#DejaVuSans-6d" transform="translate(151.865234 -26.723437) scale(0.7)"/>
       <use xlink:href="#DejaVuSans-69" transform="translate(220.053711 -26.723437) scale(0.7)"/>
       <use xlink:href="#DejaVuSans-6e" transform="translate(239.501953 -26.723437) scale(0.7)"/>
      </g>
     </g>
    </g>
   </g>
   <g id="line2d_10">
    <path d="M 95.4 293.31 
L 223.588158 165.121755 
" clip-path="url(#pdd25d01408)" style="fill: none; stroke-dasharray: 5.55,2.4; stroke-dashoffset: 0; stroke: #808080; stroke-width: 1.5"/>
   </g>
   <g id="line2d_11">
    <path d="M 89.7928 293.31 
L 84.332403 293.890029 
L 77.874752 294.843259 
L 67.492963 296.736551 
L 60.103199 298.270646 
L 50.682687 300.392528 
L 38.647843 303.316926 
L 23.237717 307.336907 
L -1 314.176657 
M 242.141373 577 
L 243.183028 559.917613 
L 243.998514 540.619481 
L 244.406747 522.760181 
L 244.470451 506.204673 
L 244.243701 490.83229 
L 243.772534 476.534776 
L 243.096671 463.215539 
L 242.250265 450.78763 
L 241.262351 439.172333 
L 240.158098 428.299089 
L 238.959079 418.103954 
L 237.022618 403.957675 
L 234.965542 391.034816 
L 232.828752 379.184992 
L 230.644491 368.277231 
L 228.437865 358.196891 
L 225.493806 345.871292 
L 222.577678 334.632529 
L 219.004597 321.846365 
L 214.852704 307.976921 
L 210.208929 293.309987 
L 203.896817 274.17906 
L 193.462234 243.344769 
L 186.164375 222.397071 
L 180.858436 207.851507 
L 176.550309 196.598794 
L 171.642157 184.424878 
L 167.157408 173.885553 
L 162.047787 162.506233 
L 157.71891 153.339363 
L 152.883848 143.559315 
L 147.457162 133.094399 
L 141.33867 121.86437 
L 134.41066 109.779018 
L 129.274573 101.197413 
L 123.670066 92.157574 
L 117.543993 82.62331 
L 110.836612 72.55507 
L 103.480615 61.90975 
L 95.399934 50.640108 
L 86.508584 38.694537 
L 76.70894 26.016166 
L 65.890021 12.542168 
L 54.596162 -1 
M -1 271.349958 
L 16.459041 276.530611 
L 33.482779 281.274548 
L 46.724996 284.727297 
L 57.053869 287.23658 
L 71.46317 290.370936 
L 80.354348 291.993681 
L 87.817917 293.04523 
L 90.566958 293.31 
L 90.566958 293.31 
" clip-path="url(#pdd25d01408)" style="fill: none; stroke: #0000ff; stroke-width: 1.5; stroke-linecap: square"/>
   </g>
   <g id="line2d_12">
    <path d="M 63.221987 293.309999 
L 63.136402 295.000866 
L 62.876779 296.728325 
L 62.243656 299.156352 
L 61.244265 301.82598 
L 59.809441 304.874077 
L 57.827605 308.49023 
L 55.118989 312.956364 
L 51.38499 318.722071 
L 44.436434 328.995059 
L 29.473693 350.618883 
L 9.941199 378.768766 
L 68.263482 338.472729 
L 75.753629 333.591023 
L 81.190366 330.327348 
L 84.642619 328.495834 
L 87.58087 327.178361 
L 90.17874 326.275727 
L 92.563889 325.726931 
L 94.838172 325.4975 
L 96.525009 325.525995 
L 98.236116 325.726931 
L 100.009327 326.107094 
L 102.543339 326.916733 
L 105.382458 328.122963 
L 108.686329 329.813892 
L 112.684159 332.130846 
L 117.728745 335.304247 
L 126.435343 341.100219 
L 143.752685 353.020578 
L 180.858911 378.7689 
L 140.5627 320.446484 
L 135.681016 312.956361 
L 132.417345 307.519626 
L 130.585836 304.067381 
L 129.268358 301.129125 
L 128.365725 298.531251 
L 127.816931 296.14611 
L 127.5875 293.87183 
L 127.615995 292.184988 
L 127.816931 290.473883 
L 128.197096 288.700666 
L 129.006732 286.16666 
L 130.212964 283.327536 
L 131.903898 280.023658 
L 134.220855 276.02583 
L 137.394253 270.98125 
L 143.190232 262.274647 
L 155.110602 244.957282 
L 180.858772 207.85117 
L 122.536469 248.147307 
L 115.04635 253.028985 
L 109.609611 256.292663 
L 106.157379 258.124168 
L 103.219116 259.441644 
L 100.621247 260.344278 
L 98.236103 260.893072 
L 95.961826 261.1225 
L 94.274987 261.094005 
L 92.563879 260.89307 
L 90.790661 260.512904 
L 88.256659 259.703268 
L 85.417531 258.497033 
L 82.113653 256.806098 
L 78.115826 254.489137 
L 73.071246 251.315749 
L 64.364646 245.519768 
L 47.047272 233.599386 
L 9.94112 207.851156 
L 50.237305 266.173535 
L 55.118986 273.663649 
L 58.382656 279.100385 
L 60.214165 282.552623 
L 61.531643 285.49089 
L 62.434275 288.088752 
L 62.983072 290.473896 
L 63.2125 292.748179 
L 63.221987 293.310001 
L 63.221987 293.310001 
" clip-path="url(#pdd25d01408)" style="fill: none; stroke: #ff0000; stroke-width: 1.5; stroke-linecap: square"/>
   </g>
   <g id="patch_3">
    <path d="M 95.4 462.51 
C 140.25742 462.51 183.323482 444.671453 215.042467 412.952467 
C 246.761453 381.233482 264.6 338.16742 264.6 293.31 
C 264.6 248.45258 246.761453 205.386518 215.042467 173.667533 
C 183.323482 141.948547 140.25742 124.11 95.4 124.11 
" style="fill: none; stroke: #000000; stroke-width: 0.8; stroke-linejoin: miter; stroke-linecap: square"/>
   </g>
   <g id="patch_4">
    <path d="M 95.4 293.31 
L 95.4 462.51 
" style="fill: none; stroke: #000000; stroke-width: 0.8; stroke-linejoin: miter; stroke-linecap: square"/>
   </g>
   <g id="patch_5">
    <path d="M 95.4 293.31 
L 95.4 124.11 
" style="fill: none; stroke: #000000; stroke-width: 0.8; stroke-linejoin: miter; stroke-linecap: square"/>
   </g>
   <g id="text_10">
    <g id="patch_6">
     <path d="M 231.633468 178.774983 
L 286.99991 123.408503 
L 269.081376 105.489981 
L 213.714934 160.856461 
z
" style="fill: #ffffff; stroke: #ffffff; stroke-linejoin: miter"/>
    </g>
    <!-- $\varphi = 45^\circ$ -->
    <g transform="translate(228.960601 170.501834) rotate(-45.000019) scale(0.18 -0.18)">
     <defs>
      <path id="DejaVuSans-Oblique-3c6" d="M 2969 3034 
Q 2766 3034 2675 2581 
L 2259 438 
Q 2553 438 2916 763 
Q 3244 1053 3375 1750 
Q 3497 2400 3300 2750 
Q 3138 3034 2969 3034 
z
M 3063 3525 
Q 3513 3525 3819 3113 
Q 4147 2672 3981 1750 
Q 3828 903 3291 400 
Q 2784 -75 2159 -75 
L 1916 -1331 
L 1344 -1331 
L 1588 -78 
Q 963 -78 641 400 
Q 309 888 475 1747 
Q 647 2641 1166 3097 
Q 1556 3438 2084 3525 
L 1984 3016 
Q 1766 2944 1538 2700 
Q 1194 2341 1081 1747 
Q 963 1116 1156 756 
Q 1334 434 1688 434 
L 2103 2581 
Q 2288 3525 3063 3525 
z
" transform="scale(0.015625)"/>
      <path id="DejaVuSans-3d" d="M 678 2906 
L 4684 2906 
L 4684 2381 
L 678 2381 
L 678 2906 
z
M 678 1631 
L 4684 1631 
L 4684 1100 
L 678 1100 
L 678 1631 
z
" transform="scale(0.015625)"/>
      <path id="DejaVuSans-34" d="M 2419 4116 
L 825 1625 
L 2419 1625 
L 2419 4116 
z
M 2253 4666 
L 3047 4666 
L 3047 1625 
L 3713 1625 
L 3713 1100 
L 3047 1100 
L 3047 0 
L 2419 0 
L 2419 1100 
L 313 1100 
L 313 1709 
L 2253 4666 
z
" transform="scale(0.015625)"/>
      <path id="DejaVuSans-35" d="M 691 4666 
L 3169 4666 
L 3169 4134 
L 1269 4134 
L 1269 2991 
Q 1406 3038 1543 3061 
Q 1681 3084 1819 3084 
Q 2600 3084 3056 2656 
Q 3513 2228 3513 1497 
Q 3513 744 3044 326 
Q 2575 -91 1722 -91 
Q 1428 -91 1123 -41 
Q 819 9 494 109 
L 494 744 
Q 775 591 1075 516 
Q 1375 441 1709 441 
Q 2250 441 2565 725 
Q 2881 1009 2881 1497 
Q 2881 1984 2565 2268 
Q 2250 2553 1709 2553 
Q 1456 2553 1204 2497 
Q 953 2441 691 2322 
L 691 4666 
z
" transform="scale(0.015625)"/>
      <path id="DejaVuSans-2218" d="M 2003 2603 
Q 1753 2603 1581 2429 
Q 1409 2256 1409 2006 
Q 1409 1759 1581 1589 
Q 1753 1419 2003 1419 
Q 2253 1419 2425 1589 
Q 2597 1759 2597 2006 
Q 2597 2253 2423 2428 
Q 2250 2603 2003 2603 
z
M 2003 3006 
Q 2203 3006 2387 2929 
Q 2572 2853 2706 2709 
Q 2850 2569 2922 2390 
Q 2994 2212 2994 2006 
Q 2994 1594 2705 1308 
Q 2416 1022 1997 1022 
Q 1575 1022 1294 1303 
Q 1013 1584 1013 2006 
Q 1013 2425 1300 2715 
Q 1588 3006 2003 3006 
z
" transform="scale(0.015625)"/>
     </defs>
     <use xlink:href="#DejaVuSans-Oblique-3c6" transform="translate(0 0.09375)"/>
     <use xlink:href="#DejaVuSans-3d" transform="translate(85.449219 0.09375)"/>
     <use xlink:href="#DejaVuSans-34" transform="translate(188.720703 0.09375)"/>
     <use xlink:href="#DejaVuSans-35" transform="translate(252.34375 0.09375)"/>
     <use xlink:href="#DejaVuSans-2218" transform="translate(330.561523 38.375) scale(0.7)"/>
    </g>
   </g>
   <g id="legend_1">
    <g id="patch_7">
     <path d="M 99 90.27 
L 228.78 90.27 
Q 232.38 90.27 232.38 86.67 
L 232.38 28.89 
Q 232.38 25.29 228.78 25.29 
L 99 25.29 
Q 95.4 25.29 95.4 28.89 
L 95.4 86.67 
Q 95.4 90.27 99 90.27 
z
" style="fill: #ffffff; opacity: 0.8; stroke: #cccccc; stroke-linejoin: miter"/>
    </g>
    <g id="line2d_13">
     <path d="M 102.6 42.57 
L 120.6 42.57 
L 138.6 42.57 
" style="fill: none; stroke: #0000ff; stroke-width: 1.5; stroke-linecap: square"/>
    </g>
    <g id="text_11">
     <!-- ${G^*}^{-1}(\varphi)$ -->
     <g transform="translate(153 48.87) scale(0.18 -0.18)">
      <defs>
       <path id="DejaVuSans-2a" d="M 3009 3897 
L 1888 3291 
L 3009 2681 
L 2828 2375 
L 1778 3009 
L 1778 1831 
L 1422 1831 
L 1422 3009 
L 372 2375 
L 191 2681 
L 1313 3291 
L 191 3897 
L 372 4206 
L 1422 3572 
L 1422 4750 
L 1778 4750 
L 1778 3572 
L 2828 4206 
L 3009 3897 
z
" transform="scale(0.015625)"/>
       <path id="DejaVuSans-28" d="M 1984 4856 
Q 1566 4138 1362 3434 
Q 1159 2731 1159 2009 
Q 1159 1288 1364 580 
Q 1569 -128 1984 -844 
L 1484 -844 
Q 1016 -109 783 600 
Q 550 1309 550 2009 
Q 550 2706 781 3412 
Q 1013 4119 1484 4856 
L 1984 4856 
z
" transform="scale(0.015625)"/>
       <path id="DejaVuSans-29" d="M 513 4856 
L 1013 4856 
Q 1481 4119 1714 3412 
Q 1947 2706 1947 2009 
Q 1947 1309 1714 600 
Q 1481 -109 1013 -844 
L 513 -844 
Q 928 -128 1133 580 
Q 1338 1288 1338 2009 
Q 1338 2731 1133 3434 
Q 928 4138 513 4856 
z
" transform="scale(0.015625)"/>
      </defs>
      <use xlink:href="#DejaVuSans-Oblique-47" transform="translate(0 0.765625)"/>
      <use xlink:href="#DejaVuSans-2a" transform="translate(98.328451 39.046875) scale(0.7)"/>
      <use xlink:href="#DejaVuSans-2212" transform="translate(150.657552 39.046875) scale(0.7)"/>
      <use xlink:href="#DejaVuSans-31" transform="translate(209.309896 39.046875) scale(0.7)"/>
      <use xlink:href="#DejaVuSans-28" transform="translate(256.580404 0.765625)"/>
      <use xlink:href="#DejaVuSans-Oblique-3c6" transform="translate(295.594076 0.765625)"/>
      <use xlink:href="#DejaVuSans-29" transform="translate(361.560872 0.765625)"/>
     </g>
    </g>
    <g id="line2d_14">
     <path d="M 102.6 71.55 
L 120.6 71.55 
L 138.6 71.55 
" style="fill: none; stroke: #ff0000; stroke-width: 1.5; stroke-linecap: square"/>
    </g>
    <g id="text_12">
     <!-- $G_c^{-1}(\varphi)$ -->
     <g transform="translate(153 77.85) scale(0.18 -0.18)">
      <use xlink:href="#DejaVuSans-Oblique-47" transform="translate(0 0.684375)"/>
      <use xlink:href="#DejaVuSans-2212" transform="translate(84.690755 38.965625) scale(0.7)"/>
      <use xlink:href="#DejaVuSans-31" transform="translate(143.343099 38.965625) scale(0.7)"/>
      <use xlink:href="#DejaVuSans-Oblique-63" transform="translate(77.490234 -26.659375) scale(0.7)"/>
      <use xlink:href="#DejaVuSans-28" transform="translate(190.613607 0.684375)"/>
      <use xlink:href="#DejaVuSans-Oblique-3c6" transform="translate(229.627279 0.684375)"/>
      <use xlink:href="#DejaVuSans-29" transform="translate(295.594076 0.684375)"/>
     </g>
    </g>
   </g>
  </g>
 </g>
 <defs>
  <clipPath id="pdd25d01408">
   <path d="M 95.4 462.51 
C 140.25742 462.51 183.323482 444.671453 215.042467 412.952467 
C 246.761453 381.233482 264.6 338.16742 264.6 293.31 
C 264.6 248.45258 246.761453 205.386518 215.042467 173.667533 
C 183.323482 141.948547 140.25742 124.11 95.4 124.11 
L 95.4 293.31 
C 95.4 293.31 95.4 293.31 95.4 293.31 
C 95.4 293.31 95.4 293.31 95.4 293.31 
C 95.4 293.31 95.4 293.31 95.4 293.31 
C 95.4 293.31 95.4 293.31 95.4 293.31 
z
"/>
  </clipPath>
 </defs>
</svg>
