<?xml version="1.0" encoding="UTF-8" standalone="no"?>
<!-- Created with Inkscape (http://www.inkscape.org/) -->

<svg
   version="1.1"
   id="svg1"
   width="566.93335"
   height="122.84"
   viewBox="0 0 566.93335 122.84"
   sodipodi:docname="logo_insa_lyon.eps"
   xmlns:inkscape="http://www.inkscape.org/namespaces/inkscape"
   xmlns:sodipodi="http://sodipodi.sourceforge.net/DTD/sodipodi-0.dtd"
   xmlns="http://www.w3.org/2000/svg"
   xmlns:svg="http://www.w3.org/2000/svg">
  <defs
     id="defs1" />
  <sodipodi:namedview
     id="namedview1"
     pagecolor="#ffffff"
     bordercolor="#000000"
     borderopacity="0.25"
     inkscape:showpageshadow="2"
     inkscape:pageopacity="0.0"
     inkscape:pagecheckerboard="0"
     inkscape:deskcolor="#d1d1d1">
    <inkscape:page
       x="0"
       y="0"
       inkscape:label="1"
       id="page1"
       width="566.93335"
       height="122.84"
       margin="0"
       bleed="0" />
  </sodipodi:namedview>
  <g
     id="g1"
     inkscape:groupmode="layer"
     inkscape:label="1">
    <g
       id="group-R5">
      <path
         id="path2"
         d="m 2627.14,904.203 h 19.35 V 747.207 h -19.35 v 156.996"
         style="fill:#565353;fill-opacity:1;fill-rule:nonzero;stroke:none"
         transform="matrix(0.13333333,0,0,-0.13333333,0,122.84)" />
      <path
         id="path3"
         d="m 2672.14,904.203 h 25.06 l 51.9,-131.043 h 0.44 v 131.043 h 19.35 V 747.207 h -26.6 l -50.37,127.094 h -0.43 V 747.207 h -19.35 v 156.996"
         style="fill:#565353;fill-opacity:1;fill-rule:nonzero;stroke:none"
         transform="matrix(0.13333333,0,0,-0.13333333,0,122.84)" />
      <path
         id="path4"
         d="m 2861.58,863.527 c 0,16.493 -5.95,27.93 -24.41,27.93 -16.28,0 -25.95,-8.797 -25.95,-25.508 0,-44.195 74.1,-17.808 74.1,-75.203 0,-36.281 -26.6,-46.621 -48.82,-46.621 -36.71,0 -47.5,18.91 -47.5,52.336 h 19.35 c 0,-17.59 1.11,-36.504 29.47,-36.504 15.4,0 27.28,11 27.28,27.711 0,44.414 -74.11,18.691 -74.11,76.301 0,14.511 6.15,43.32 45.96,43.32 29.91,0 43.53,-14.953 43.98,-43.762 h -19.35"
         style="fill:#565353;fill-opacity:1;fill-rule:nonzero;stroke:none"
         transform="matrix(0.13333333,0,0,-0.13333333,0,122.84)" />
      <path
         id="path5"
         d="m 2953.44,747.207 h -19.35 v 139.856 h -39.36 v 17.14 h 98.29 v -17.14 h -39.58 V 747.207"
         style="fill:#565353;fill-opacity:1;fill-rule:nonzero;stroke:none"
         transform="matrix(0.13333333,0,0,-0.13333333,0,122.84)" />
      <path
         id="path6"
         d="m 3009.51,904.203 h 19.35 V 747.207 h -19.35 v 156.996"
         style="fill:#565353;fill-opacity:1;fill-rule:nonzero;stroke:none"
         transform="matrix(0.13333333,0,0,-0.13333333,0,122.84)" />
      <path
         id="path7"
         d="m 3103.84,747.207 h -19.35 v 139.856 h -39.37 v 17.14 h 98.29 v -17.14 h -39.57 V 747.207"
         style="fill:#565353;fill-opacity:1;fill-rule:nonzero;stroke:none"
         transform="matrix(0.13333333,0,0,-0.13333333,0,122.84)" />
      <path
         id="path8"
         d="m 3159.05,904.203 h 19.34 V 793.824 c 0,-23.086 7.48,-33.867 26.61,-33.867 20.67,0 26.83,11.879 26.83,33.867 v 110.379 h 19.35 V 793.824 c 0,-30.121 -15.39,-49.699 -46.18,-49.699 -31.44,0 -45.95,17.375 -45.95,49.699 v 110.379"
         style="fill:#565353;fill-opacity:1;fill-rule:nonzero;stroke:none"
         transform="matrix(0.13333333,0,0,-0.13333333,0,122.84)" />
      <path
         id="path9"
         d="m 3325.53,747.207 h -19.35 v 139.856 h -39.37 v 17.14 h 98.29 v -17.14 h -39.57 V 747.207"
         style="fill:#565353;fill-opacity:1;fill-rule:nonzero;stroke:none"
         transform="matrix(0.13333333,0,0,-0.13333333,0,122.84)" />
      <path
         id="path10"
         d="m 3432.42,904.203 h 25.07 l 51.89,-131.043 h 0.44 v 131.043 h 19.35 V 747.207 h -26.61 l -50.35,127.094 h -0.45 V 747.207 h -19.34 v 156.996"
         style="fill:#565353;fill-opacity:1;fill-rule:nonzero;stroke:none"
         transform="matrix(0.13333333,0,0,-0.13333333,0,122.84)" />
      <path
         id="path11"
         d="m 3579.93,806.137 h 42.21 l -20.01,75.859 h -0.44 z m 9.45,98.066 h 25.95 l 42.21,-156.996 h -20.22 l -11.22,43.102 h -50.13 l -11.66,-43.102 h -20.22 l 45.29,156.996"
         style="fill:#565353;fill-opacity:1;fill-rule:nonzero;stroke:none"
         transform="matrix(0.13333333,0,0,-0.13333333,0,122.84)" />
      <path
         id="path12"
         d="m 3706.56,747.207 h -19.36 v 139.856 h -39.35 v 17.14 h 98.29 v -17.14 h -39.58 V 747.207"
         style="fill:#565353;fill-opacity:1;fill-rule:nonzero;stroke:none"
         transform="matrix(0.13333333,0,0,-0.13333333,0,122.84)" />
      <path
         id="path13"
         d="m 3762.63,904.203 h 19.35 V 747.207 h -19.35 v 156.996"
         style="fill:#565353;fill-opacity:1;fill-rule:nonzero;stroke:none"
         transform="matrix(0.13333333,0,0,-0.13333333,0,122.84)" />
      <path
         id="path14"
         d="m 3825.05,825.707 c 0,-36.281 3.53,-65.75 30.36,-65.75 26.82,0 30.35,29.469 30.35,65.75 0,36.281 -3.53,65.75 -30.35,65.75 -26.83,0 -30.36,-29.469 -30.36,-65.75 z m 80.93,0 c 0,-39.578 -7.25,-81.582 -50.57,-81.582 -43.33,0 -50.58,42.004 -50.58,81.582 0,39.582 7.25,81.582 50.58,81.582 43.32,0 50.57,-42 50.57,-81.582"
         style="fill:#565353;fill-opacity:1;fill-rule:nonzero;stroke:none"
         transform="matrix(0.13333333,0,0,-0.13333333,0,122.84)" />
      <path
         id="path15"
         d="m 3928.91,904.203 h 25.08 l 51.89,-131.043 h 0.43 v 131.043 h 19.36 V 747.207 h -26.61 l -50.35,127.094 h -0.44 V 747.207 h -19.36 v 156.996"
         style="fill:#565353;fill-opacity:1;fill-rule:nonzero;stroke:none"
         transform="matrix(0.13333333,0,0,-0.13333333,0,122.84)" />
      <path
         id="path16"
         d="m 4076.42,806.137 h 42.22 l -20,75.859 h -0.44 z m 9.46,98.066 h 25.94 l 42.23,-156.996 h -20.23 l -11.23,43.102 h -50.12 l -11.66,-43.102 h -20.23 l 45.3,156.996"
         style="fill:#565353;fill-opacity:1;fill-rule:nonzero;stroke:none"
         transform="matrix(0.13333333,0,0,-0.13333333,0,122.84)" />
      <path
         id="path17"
         d="m 4168.84,904.203 h 19.36 V 764.359 h 63.77 v -17.152 h -83.13 v 156.996"
         style="fill:#565353;fill-opacity:1;fill-rule:nonzero;stroke:none"
         transform="matrix(0.13333333,0,0,-0.13333333,0,122.84)" />
      <path
         id="path18"
         d="m 2648.46,518.668 h 20.24 c 33.42,0 37.16,34.305 37.16,62.449 0,30.348 -1.98,62.887 -37.16,62.887 h -20.24 z m -19.34,141.168 h 41.99 c 48.83,0 54.97,-35.184 54.97,-78.496 0,-39.586 -9.88,-78.504 -52.99,-78.504 h -43.97 v 157"
         style="fill:#565353;fill-opacity:1;fill-rule:nonzero;stroke:none"
         transform="matrix(0.13333333,0,0,-0.13333333,0,122.84)" />
      <path
         id="path19"
         d="m 2748.72,659.836 h 81.14 v -17.148 h -61.79 v -49.254 h 58.27 v -17.149 h -58.27 v -56.293 h 64.42 v -17.156 h -83.77 v 157"
         style="fill:#565353;fill-opacity:1;fill-rule:nonzero;stroke:none"
         transform="matrix(0.13333333,0,0,-0.13333333,0,122.84)" />
      <path
         id="path20"
         d="m 2918.01,619.156 c 0,16.492 -5.93,27.93 -24.41,27.93 -16.27,0 -25.94,-8.793 -25.94,-25.508 0,-44.195 74.1,-17.808 74.1,-75.199 0,-36.285 -26.61,-46.621 -48.82,-46.621 -36.72,0 -47.49,18.91 -47.49,52.332 h 19.35 c 0,-17.586 1.09,-36.504 29.47,-36.504 15.38,0 27.26,10.996 27.26,27.711 0,44.414 -74.1,18.691 -74.1,76.305 0,14.511 6.15,43.32 45.95,43.32 29.91,0 43.54,-14.957 43.98,-43.766 h -19.35"
         style="fill:#565353;fill-opacity:1;fill-rule:nonzero;stroke:none"
         transform="matrix(0.13333333,0,0,-0.13333333,0,122.84)" />
      <path
         id="path21"
         d="m 3080.76,619.156 c 0,16.492 -5.94,27.93 -24.41,27.93 -16.27,0 -25.95,-8.793 -25.95,-25.508 0,-44.195 74.11,-17.808 74.11,-75.199 0,-36.285 -26.61,-46.621 -48.83,-46.621 -36.71,0 -47.49,18.91 -47.49,52.332 h 19.35 c 0,-17.586 1.1,-36.504 29.47,-36.504 15.39,0 27.27,10.996 27.27,27.711 0,44.414 -74.11,18.691 -74.11,76.305 0,14.511 6.16,43.32 45.96,43.32 29.91,0 43.53,-14.957 43.98,-43.766 h -19.35"
         style="fill:#565353;fill-opacity:1;fill-rule:nonzero;stroke:none"
         transform="matrix(0.13333333,0,0,-0.13333333,0,122.84)" />
      <path
         id="path22"
         d="m 3220,556.711 c -1.76,-29.684 -13.42,-56.953 -47.72,-56.953 -44.65,0 -50.58,41.996 -50.58,81.582 0,39.578 7.26,81.582 50.58,81.582 32.1,0 45.52,-18.035 46.39,-48.824 h -20.22 c -0.46,17.816 -6.17,32.988 -26.17,32.988 -26.83,0 -30.35,-29.469 -30.35,-65.746 0,-36.285 3.52,-65.754 30.35,-65.754 23.53,0 26.83,21.996 27.48,41.125 H 3220"
         style="fill:#565353;fill-opacity:1;fill-rule:nonzero;stroke:none"
         transform="matrix(0.13333333,0,0,-0.13333333,0,122.84)" />
      <path
         id="path23"
         d="m 3238.48,659.836 h 19.36 v -157 h -19.36 v 157"
         style="fill:#565353;fill-opacity:1;fill-rule:nonzero;stroke:none"
         transform="matrix(0.13333333,0,0,-0.13333333,0,122.84)" />
      <path
         id="path24"
         d="m 3283.48,659.836 h 81.14 v -17.148 h -61.79 v -49.254 h 58.28 v -17.149 h -58.28 v -56.293 h 64.43 v -17.156 h -83.78 v 157"
         style="fill:#565353;fill-opacity:1;fill-rule:nonzero;stroke:none"
         transform="matrix(0.13333333,0,0,-0.13333333,0,122.84)" />
      <path
         id="path25"
         d="m 3385.44,659.836 h 25.07 l 51.89,-131.047 h 0.45 v 131.047 h 19.34 v -157 h -26.61 l -50.34,127.098 h -0.45 V 502.836 h -19.35 v 157"
         style="fill:#565353;fill-opacity:1;fill-rule:nonzero;stroke:none"
         transform="matrix(0.13333333,0,0,-0.13333333,0,122.84)" />
      <path
         id="path26"
         d="m 3603.42,556.711 c -1.76,-29.684 -13.41,-56.953 -47.71,-56.953 -44.64,0 -50.58,41.996 -50.58,81.582 0,39.578 7.27,81.582 50.58,81.582 32.1,0 45.52,-18.035 46.4,-48.824 h -20.24 c -0.43,17.816 -6.15,32.988 -26.16,32.988 -26.83,0 -30.34,-29.469 -30.34,-65.746 0,-36.285 3.51,-65.754 30.34,-65.754 23.53,0 26.82,21.996 27.49,41.125 h 20.22"
         style="fill:#565353;fill-opacity:1;fill-rule:nonzero;stroke:none"
         transform="matrix(0.13333333,0,0,-0.13333333,0,122.84)" />
      <path
         id="path27"
         d="m 3622.03,659.836 h 81.14 v -17.148 h -61.8 v -49.254 h 58.28 v -17.149 h -58.28 v -56.293 h 64.44 v -17.156 h -83.78 v 157"
         style="fill:#565353;fill-opacity:1;fill-rule:nonzero;stroke:none"
         transform="matrix(0.13333333,0,0,-0.13333333,0,122.84)" />
      <path
         id="path28"
         d="m 3791.32,619.156 c 0,16.492 -5.94,27.93 -24.41,27.93 -16.27,0 -25.95,-8.793 -25.95,-25.508 0,-44.195 74.1,-17.808 74.1,-75.199 0,-36.285 -26.61,-46.621 -48.81,-46.621 -36.71,0 -47.5,18.91 -47.5,52.332 h 19.36 c 0,-17.586 1.09,-36.504 29.45,-36.504 15.4,0 27.28,10.996 27.28,27.711 0,44.414 -74.1,18.691 -74.1,76.305 0,14.511 6.15,43.32 45.95,43.32 29.91,0 43.54,-14.957 43.98,-43.766 h -19.35"
         style="fill:#565353;fill-opacity:1;fill-rule:nonzero;stroke:none"
         transform="matrix(0.13333333,0,0,-0.13333333,0,122.84)" />
      <path
         id="path29"
         d="m 2648.46,317.398 h 42.22 l -20,75.86 h -0.45 z m 9.46,98.067 h 25.95 l 42.21,-156.996 h -20.22 l -11.22,43.094 h -50.13 l -11.66,-43.094 h -20.22 l 45.29,156.996"
         style="fill:#565353;fill-opacity:1;fill-rule:nonzero;stroke:none"
         transform="matrix(0.13333333,0,0,-0.13333333,0,122.84)" />
      <path
         id="path30"
         d="m 2760.24,340.707 h 23.09 c 14.08,0 25.94,9.668 25.94,30.563 0,17.152 -8.13,28.363 -27.26,28.363 h -21.77 z m -19.35,74.758 h 40.01 c 13.64,0 48.61,0 48.61,-45.074 0,-29.246 -18.7,-45.512 -45.31,-45.512 h -23.96 v -66.41 h -19.35 v 156.996"
         style="fill:#565353;fill-opacity:1;fill-rule:nonzero;stroke:none"
         transform="matrix(0.13333333,0,0,-0.13333333,0,122.84)" />
      <path
         id="path31"
         d="m 2866.61,340.707 h 23.09 c 14.07,0 25.95,9.668 25.95,30.563 0,17.152 -8.14,28.363 -27.26,28.363 h -21.78 z m -19.35,74.758 h 40.03 c 13.63,0 48.59,0 48.59,-45.074 0,-29.246 -18.69,-45.512 -45.29,-45.512 h -23.98 v -66.41 h -19.35 v 156.996"
         style="fill:#565353;fill-opacity:1;fill-rule:nonzero;stroke:none"
         transform="matrix(0.13333333,0,0,-0.13333333,0,122.84)" />
      <path
         id="path32"
         d="m 2953.64,415.465 h 19.35 V 275.621 h 63.77 v -17.152 h -83.12 v 156.996"
         style="fill:#565353;fill-opacity:1;fill-rule:nonzero;stroke:none"
         transform="matrix(0.13333333,0,0,-0.13333333,0,122.84)" />
      <path
         id="path33"
         d="m 3053.24,415.465 h 19.35 V 258.469 h -19.35 v 156.996"
         style="fill:#565353;fill-opacity:1;fill-rule:nonzero;stroke:none"
         transform="matrix(0.13333333,0,0,-0.13333333,0,122.84)" />
      <path
         id="path34"
         d="m 3145.14,288.59 10.77,11.879 14.52,-13.192 c 4.84,11.868 5.94,29.676 5.94,49.688 0,36.281 -3.51,65.75 -30.34,65.75 -26.83,0 -30.35,-29.469 -30.35,-65.75 0,-36.281 3.52,-65.75 30.35,-65.75 5.71,0 10.56,1.324 14.29,3.746 z m 27.93,-25.285 c -6.82,-5.059 -15.83,-7.918 -27.04,-7.918 -43.32,0 -50.58,41.996 -50.58,81.578 0,39.582 7.26,81.582 50.58,81.582 43.31,0 50.57,-42 50.57,-81.582 0,-22.645 -2.42,-46.172 -12.76,-62.004 l 15.83,-14.516 -10.77,-11.437 -15.83,14.297"
         style="fill:#565353;fill-opacity:1;fill-rule:nonzero;stroke:none"
         transform="matrix(0.13333333,0,0,-0.13333333,0,122.84)" />
      <path
         id="path35"
         d="m 3218.08,415.465 h 19.36 V 305.082 c 0,-23.086 7.47,-33.867 26.6,-33.867 20.67,0 26.82,11.883 26.82,33.867 v 110.383 h 19.36 V 305.082 c 0,-30.121 -15.39,-49.695 -46.18,-49.695 -31.45,0 -45.96,17.371 -45.96,49.695 v 110.383"
         style="fill:#565353;fill-opacity:1;fill-rule:nonzero;stroke:none"
         transform="matrix(0.13333333,0,0,-0.13333333,0,122.84)" />
      <path
         id="path36"
         d="m 3380.39,455.27 h 21.55 l -23.75,-31.227 H 3365 Z m -45.3,-39.805 h 81.14 v -17.149 h -61.79 v -49.253 h 58.27 v -17.149 h -58.27 v -56.293 h 64.43 v -17.152 h -83.78 v 156.996"
         style="fill:#565353;fill-opacity:1;fill-rule:nonzero;stroke:none"
         transform="matrix(0.13333333,0,0,-0.13333333,0,122.84)" />
      <path
         id="path37"
         d="m 3437.05,415.465 h 81.14 v -17.149 h -61.79 v -49.253 h 58.27 v -17.149 h -58.27 v -56.293 h 64.43 v -17.152 h -83.78 v 156.996"
         style="fill:#565353;fill-opacity:1;fill-rule:nonzero;stroke:none"
         transform="matrix(0.13333333,0,0,-0.13333333,0,122.84)" />
      <path
         id="path38"
         d="m 3606.33,374.785 c 0,16.496 -5.92,27.93 -24.39,27.93 -16.28,0 -25.95,-8.793 -25.95,-25.508 0,-44.195 74.1,-17.809 74.1,-75.199 0,-36.289 -26.6,-46.621 -48.82,-46.621 -36.72,0 -47.5,18.91 -47.5,52.332 h 19.36 c 0,-17.586 1.1,-36.504 29.46,-36.504 15.4,0 27.27,10.996 27.27,27.711 0,44.414 -74.1,18.691 -74.1,76.304 0,14.512 6.16,43.317 45.94,43.317 29.92,0 43.55,-14.953 43.99,-43.762 h -19.36"
         style="fill:#565353;fill-opacity:1;fill-rule:nonzero;stroke:none"
         transform="matrix(0.13333333,0,0,-0.13333333,0,122.84)" />
      <path
         id="path39"
         d="m 2625.82,171.094 h 36.93 V 44.0039 h 53.45 V 14.0938 h -90.38 V 171.094"
         style="fill:#565353;fill-opacity:1;fill-rule:nonzero;stroke:none"
         transform="matrix(0.13333333,0,0,-0.13333333,0,122.84)" />
      <path
         id="path40"
         d="m 2749.15,75.8789 -39.8,95.2151 h 40.9 l 17.59,-58.27 h 0.44 l 18.04,58.27 h 39.57 l -39.8,-95.2151 V 14.0938 h -36.94 v 61.7851"
         style="fill:#565353;fill-opacity:1;fill-rule:nonzero;stroke:none"
         transform="matrix(0.13333333,0,0,-0.13333333,0,122.84)" />
      <path
         id="path41"
         d="m 2890.69,35.6445 c 14.95,0 17.16,13.8477 17.16,56.9532 0,43.0973 -2.21,56.9533 -17.16,56.9533 -14.5,0 -16.71,-13.856 -16.71,-56.9533 0,-43.1055 2.21,-56.9532 16.71,-56.9532 z m 0.22,-24.6289 c -48.59,0 -55.19,31.6602 -55.19,81.5821 0,49.9143 6.6,81.5823 55.19,81.5823 52.34,0 55.2,-38.047 55.2,-81.5823 0,-43.5352 -2.86,-81.5821 -55.2,-81.5821"
         style="fill:#565353;fill-opacity:1;fill-rule:nonzero;stroke:none"
         transform="matrix(0.13333333,0,0,-0.13333333,0,122.84)" />
      <path
         id="path42"
         d="m 2970.9,171.094 h 42.44 L 3043.7,69.0625 h 0.44 V 171.094 h 34.29 V 14.0938 h -41.77 l -32.33,108.1912 h -0.44 V 14.0938 H 2970.9 V 171.094"
         style="fill:#565353;fill-opacity:1;fill-rule:nonzero;stroke:none"
         transform="matrix(0.13333333,0,0,-0.13333333,0,122.84)" />
      <path
         id="path43"
         d="M 2459.56,904.254 V 13.9648"
         style="fill:#565353;fill-opacity:1;fill-rule:nonzero;stroke:none"
         transform="matrix(0.13333333,0,0,-0.13333333,0,122.84)" />
      <path
         id="path44"
         d="m 2468.29,13.9648 h -17.46 V 904.254 h 17.46 V 13.9648"
         style="fill:#565353;fill-opacity:1;fill-rule:nonzero;stroke:none"
         transform="matrix(0.13333333,0,0,-0.13333333,0,122.84)" />
      <path
         id="path45"
         d="M 232.895,13.7227 H 0 V 903.84 H 232.895 V 13.7227"
         style="fill:#ee2922;fill-opacity:1;fill-rule:nonzero;stroke:none"
         transform="matrix(0.13333333,0,0,-0.13333333,0,122.84)" />
      <path
         id="path46"
         d="M 557.25,903.84 707.539,355.309 h 2.512 V 903.84 H 927.914 V 13.7227 H 672.48 L 517.211,563.453 h -2.504 V 13.7227 H 296.801 V 903.84 H 557.25"
         style="fill:#ee2922;fill-opacity:1;fill-rule:nonzero;stroke:none"
         transform="matrix(0.13333333,0,0,-0.13333333,0,122.84)" />
      <path
         id="path47"
         d="m 1348.78,668.242 c 0,26.574 -5.52,49.242 -16.35,67.903 -10.88,18.765 -27.58,28.074 -50.05,28.074 -25.09,0 -43.46,-8.094 -55.09,-24.317 -11.76,-16.187 -17.56,-34.234 -17.56,-54.254 0,-29.046 9.4,-52.148 28.17,-69.16 18.8,-17.043 42.35,-31.761 70.71,-44.226 28.42,-12.465 58.88,-25.145 91.48,-38.032 32.54,-12.929 63.02,-29.722 91.42,-50.535 28.36,-20.765 51.96,-47.988 70.73,-81.621 18.81,-33.66 28.2,-77.5 28.2,-131.543 0,-94.75 -27.13,-163.558 -81.38,-206.3122 C 1454.75,21.3203 1376.26,0 1273.58,0 c -48.42,0 -91.21,3.97656 -128.4,11.8281 -37.09,7.9102 -68.46,21.6211 -93.89,41.1797 -25.47,19.4844 -44.91,45.0508 -58.192,76.7112 -13.356,31.551 -20.024,70.625 -20.024,117.148 v 31.223 h 225.376 v -21.27 c 0,-38.285 7.09,-65.043 21.27,-80.402 14.24,-15.43 32.56,-23.137 55.11,-23.137 24.25,0 42.71,8.391 55.77,24.973 12.89,16.609 19.41,36.914 19.41,61.125 0,29.004 -9.06,52.141 -26.98,69.117 -17.97,17.051 -40.49,31.625 -67.58,43.695 -27.17,11.993 -56.57,24.313 -88.26,36.778 -31.81,12.461 -61.25,28.652 -88.37,48.594 -27.14,19.992 -49.66,46.132 -67.6,78.621 -18.013,32.304 -26.939,74.773 -26.939,127.097 0,90.567 24.219,159.586 72.669,206.977 48.41,47.351 121.87,71.09 220.39,71.09 101.82,0 175.49,-21.844 221.03,-65.496 45.5,-43.625 68.28,-113.262 68.28,-208.848 h -217.87 v 21.238"
         style="fill:#ee2922;fill-opacity:1;fill-rule:nonzero;stroke:none"
         transform="matrix(0.13333333,0,0,-0.13333333,0,122.84)" />
      <path
         id="path48"
         d="m 1927.31,721.82 -63.86,-377.687 h 130.25 l -63.97,377.687 z m 147.77,182.051 217.89,-890.1483 h -247.89 l -23.85,155.7813 h -185.35 l -23.8,-155.7813 h -244.2 l 214.18,890.1483 h 293.02"
         style="fill:#ee2922;fill-opacity:1;fill-rule:nonzero;stroke:none"
         transform="matrix(0.13333333,0,0,-0.13333333,0,122.84)" />
      <path
         id="path49"
         d="m 2135.25,904.27 h 157.79 V 235.836 Z"
         style="fill:#565353;fill-opacity:1;fill-rule:nonzero;stroke:none"
         transform="matrix(0.13333333,0,0,-0.13333333,0,122.84)" />
    </g>
  </g>
</svg>
