<?xml version="1.0" encoding="UTF-8" standalone="no"?>
<!-- Created with Inkscape (http://www.inkscape.org/) -->

<svg
   version="1.1"
   id="svg1"
   width="554.66669"
   height="186.66667"
   viewBox="0 0 554.66669 186.66667"
   sodipodi:docname="logo_lmps.svg"
   inkscape:version="1.3.2 (091e20ef0f, 2023-11-25)"
   xmlns:inkscape="http://www.inkscape.org/namespaces/inkscape"
   xmlns:sodipodi="http://sodipodi.sourceforge.net/DTD/sodipodi-0.dtd"
   xmlns="http://www.w3.org/2000/svg"
   xmlns:svg="http://www.w3.org/2000/svg">
  <defs
     id="defs1">
    <clipPath
       clipPathUnits="userSpaceOnUse"
       id="clipPath1">
      <path
         d="M 0,0 H 416 V 140 H 0 Z"
         id="path1" />
    </clipPath>
    <clipPath
       clipPathUnits="userSpaceOnUse"
       id="clipPath3">
      <path
         d="M 0,0 H 416 V 140 H 0 Z"
         id="path3" />
    </clipPath>
    <clipPath
       clipPathUnits="userSpaceOnUse"
       id="clipPath5">
      <path
         d="M 0,0 H 416 V 140 H 0 Z"
         id="path5" />
    </clipPath>
    <clipPath
       clipPathUnits="userSpaceOnUse"
       id="clipPath7">
      <path
         d="M 0,0 H 416 V 140 H 0 Z"
         id="path7" />
    </clipPath>
    <clipPath
       clipPathUnits="userSpaceOnUse"
       id="clipPath9">
      <path
         d="M 0,0 H 416 V 140 H 0 Z"
         id="path9" />
    </clipPath>
    <clipPath
       clipPathUnits="userSpaceOnUse"
       id="clipPath11">
      <path
         d="M 0,0 H 416 V 140 H 0 Z"
         id="path11" />
    </clipPath>
    <clipPath
       clipPathUnits="userSpaceOnUse"
       id="clipPath13">
      <path
         d="M 0,0 H 416 V 140 H 0 Z"
         id="path13" />
    </clipPath>
    <clipPath
       clipPathUnits="userSpaceOnUse"
       id="clipPath15">
      <path
         d="M 0,0 H 416 V 140 H 0 Z"
         id="path15" />
    </clipPath>
    <clipPath
       clipPathUnits="userSpaceOnUse"
       id="clipPath17">
      <path
         d="M 0,0 H 416 V 140 H 0 Z"
         id="path17" />
    </clipPath>
    <clipPath
       clipPathUnits="userSpaceOnUse"
       id="clipPath19">
      <path
         d="M 0,0 H 416 V 140 H 0 Z"
         id="path19" />
    </clipPath>
  </defs>
  <sodipodi:namedview
     id="namedview1"
     pagecolor="#ffffff"
     bordercolor="#000000"
     borderopacity="0.25"
     inkscape:showpageshadow="2"
     inkscape:pageopacity="0.0"
     inkscape:pagecheckerboard="0"
     inkscape:deskcolor="#d1d1d1"
     inkscape:zoom="1.2097355"
     inkscape:cx="277.74666"
     inkscape:cy="92.995532"
     inkscape:window-width="890"
     inkscape:window-height="1021"
     inkscape:window-x="0"
     inkscape:window-y="0"
     inkscape:window-maximized="0"
     inkscape:current-layer="g1">
    <inkscape:page
       x="0"
       y="0"
       id="page1"
       width="554.66669"
       height="186.66667"
       margin="0"
       bleed="0" />
  </sodipodi:namedview>
  <g
     id="g1"
     inkscape:groupmode="layer"
     inkscape:label="">
    <g
       id="g2">
      <path
         d="m 154.328,69.703 h 6.824 c 9.129,0 11.692,-3.582 11.692,-9.117 0,-5.539 -2.563,-9.117 -11.692,-9.117 h -6.824 V 39.535 h 9.899 c 13.734,0 21.414,9.461 21.414,20.965 0,11.504 -7.68,21.129 -21.414,21.129 h -9.899"
         style="fill:#192855;fill-opacity:1;fill-rule:nonzero;stroke:none"
         transform="scale(1.3333333)"
         clip-path="url(#clipPath1)"
         id="path2" />
    </g>
    <g
       id="g4">
      <path
         d="m 133,39.535 h 12.797 v 60.926 H 133 Z"
         style="fill:#192855;fill-opacity:1;fill-rule:nonzero;stroke:none"
         transform="scale(1.3333333)"
         clip-path="url(#clipPath3)"
         id="path4" />
    </g>
    <g
       id="g6">
      <path
         d="m 216.18,38.43 c 1.621,3.238 2.988,6.73 4.093,10.222 4.352,1.024 7.426,4.008 7.938,8.782 h 12.797 C 240.152,45.758 230.258,38.43 216.18,38.43"
         style="fill:#192855;fill-opacity:1;fill-rule:nonzero;stroke:none"
         transform="scale(1.3333333)"
         clip-path="url(#clipPath5)"
         id="path6" />
    </g>
    <g
       id="g8">
      <path
         d="m 212.258,91.344 c -5.121,-1.106 -7.68,-4.09 -8.363,-9.711 h -12.797 c 0.34,9.969 6.652,16.527 16.89,19.086 1.625,-2.985 3.074,-6.137 4.27,-9.375"
         style="fill:#192855;fill-opacity:1;fill-rule:nonzero;stroke:none"
         transform="scale(1.3333333)"
         clip-path="url(#clipPath7)"
         id="path8" />
    </g>
    <g
       id="g10">
      <path
         d="m 223.43,64.844 -8.188,-1.875 c -6.652,-1.531 -9.808,-3.324 -9.808,-7.582 0,-3.239 2.468,-5.625 6.484,-6.649 -1.199,-3.234 -2.563,-6.304 -4.27,-9.285 -8.785,2.215 -14.503,8.008 -14.503,16.699 0,13.207 9.984,16.02 20.902,18.578 4.437,1.024 7.078,1.618 9.215,2.383 3.754,1.449 6.226,3.325 6.226,6.903 0,4.773 -3.922,7.074 -8.957,7.672 -1.109,3.492 -2.472,6.902 -4.093,10.136 h 1.707 c 13.734,0 23.714,-6.902 23.714,-18.746 0,-11.93 -8.019,-15.848 -18.429,-18.234"
         style="fill:#192855;fill-opacity:1;fill-rule:nonzero;stroke:none"
         transform="scale(1.3333333)"
         clip-path="url(#clipPath9)"
         id="path10" />
    </g>
    <g
       id="g12">
      <path
         d="m 261.766,100.445 h 3.847 v -5.734 h 3.957 c 3.426,0 5.563,-2.176 5.563,-5.309 0,-1.621 -0.578,-2.957 -1.578,-3.953 -1,-1.004 -2.469,-1.535 -4.43,-1.535 h -7.359 z m 3.847,-13.308 h 3.246 c 1.559,0 2.45,0.82 2.45,2.265 0,1.399 -0.871,2.309 -2.469,2.309 h -3.227 z m 18.864,13.308 h 3.402 v -0.203 c -0.313,-0.199 -0.445,-0.711 -0.445,-1.64 v -6.067 c 0,-1.601 -0.579,-2.82 -1.801,-3.531 -0.824,-0.492 -1.895,-0.715 -3.403,-0.715 -3.515,0 -5.164,1.891 -5.253,3.91 h 3.226 c 0.09,-0.929 0.738,-1.554 2.07,-1.554 1.204,0 1.758,0.578 1.758,1.421 0,0.891 -0.871,1.223 -2.98,1.512 -2.582,0.313 -4.653,0.981 -4.653,3.598 0,2.336 1.715,3.578 4.055,3.578 1.82,0 2.797,-0.664 3.578,-1.754 h 0.047 c 0.067,0.668 0.219,1.176 0.399,1.445 m -2.938,-1.98 c -0.957,0 -1.738,-0.375 -1.738,-1.399 0,-1.019 0.738,-1.398 2.273,-1.73 0.774,-0.18 1.535,-0.356 2.047,-0.668 v 1.531 c 0,1.289 -1.027,2.266 -2.582,2.266 m 12.281,-9.84 h -3.359 v 11.82 h 3.488 v -5.488 c 0,-2.312 1.246,-3.488 3.141,-3.469 0.242,0 0.484,0.024 0.73,0.071 h 0.09 v -3.047 c -0.156,-0.067 -0.398,-0.086 -0.734,-0.086 -1.469,0 -2.535,0.664 -3.289,2.308 h -0.067 z m 6.407,-1.668 h 3.535 v -3.043 h -3.535 z m 0.019,13.488 h 3.492 v -11.82 h -3.492 z m 11.387,0.375 c 3.07,0 5.34,-1.332 5.34,-3.886 0,-2.977 -2.403,-3.532 -4.52,-3.911 -1.617,-0.289 -2.91,-0.421 -2.91,-1.312 0,-0.754 0.691,-1.199 1.758,-1.199 1.109,0 1.781,0.422 2.004,1.265 h 3.246 c -0.313,-2.062 -1.957,-3.488 -5.25,-3.488 -2.781,0 -4.985,1.27 -4.985,3.691 0,2.754 2.137,3.286 4.25,3.688 1.645,0.309 3.047,0.441 3.047,1.508 0,0.847 -0.715,1.359 -1.957,1.359 -1.355,0 -2.203,-0.625 -2.402,-1.734 h -3.293 c 0.176,2.379 2.246,4.019 5.672,4.019 m 7.472,-4.754 h 6.293 v -3.019 h -6.293 z m 15.973,4.778 c 3.777,0 6.672,-1.91 6.672,-5.332 0,-3.489 -2.734,-4.465 -5.715,-5.133 -2.601,-0.578 -4.027,-0.867 -4.027,-2.152 0,-1.047 1.047,-1.711 2.601,-1.711 1.645,0 2.672,0.754 2.871,2.043 h 3.715 c -0.246,-3.247 -2.824,-4.934 -6.472,-4.934 -3.649,0 -6.453,1.555 -6.453,4.977 0,3.445 2.625,4.246 5.851,4.976 2.402,0.555 3.805,0.867 3.805,2.309 0,1.359 -1.379,1.933 -2.848,1.933 -2.133,0 -3.312,-0.797 -3.516,-2.597 h -3.824 c 0.11,3.578 2.914,5.621 7.34,5.621 m 16.86,-0.399 h 3.402 v -0.203 c -0.309,-0.199 -0.445,-0.711 -0.445,-1.64 v -6.067 c 0,-1.601 -0.579,-2.82 -1.797,-3.531 -0.825,-0.492 -1.895,-0.715 -3.407,-0.715 -3.511,0 -5.16,1.891 -5.25,3.91 h 3.227 c 0.09,-0.929 0.734,-1.554 2.07,-1.554 1.2,0 1.754,0.578 1.754,1.421 0,0.891 -0.867,1.223 -2.98,1.512 -2.578,0.313 -4.649,0.981 -4.649,3.598 0,2.336 1.711,3.578 4.047,3.578 1.828,0 2.805,-0.664 3.582,-1.754 h 0.047 c 0.066,0.668 0.219,1.176 0.399,1.445 M 349,98.465 c -0.953,0 -1.73,-0.375 -1.73,-1.399 0,-1.019 0.73,-1.398 2.269,-1.73 0.777,-0.18 1.531,-0.356 2.043,-0.668 v 1.531 c 0,1.289 -1.02,2.266 -2.582,2.266 m 14.594,2.355 c 3.293,0 5.429,-2.086 5.539,-4.773 h -3.356 c -0.156,1.351 -0.937,2.133 -2.226,2.133 -1.758,0 -2.649,-1.469 -2.649,-3.621 0,-2.223 0.891,-3.668 2.649,-3.668 1.152,0 1.863,0.687 2.113,1.777 h 3.379 c -0.422,-2.578 -2.379,-4.379 -5.535,-4.379 -3.715,0 -6.141,2.715 -6.141,6.27 0,3.531 2.445,6.261 6.227,6.261 m 7.871,-0.375 h 3.515 V 83.914 h -3.515 z m 14.109,0 h 3.403 v -0.203 c -0.313,-0.199 -0.45,-0.711 -0.45,-1.64 v -6.067 c 0,-1.601 -0.578,-2.82 -1.8,-3.531 -0.821,-0.492 -1.891,-0.715 -3.403,-0.715 -3.515,0 -5.16,1.891 -5.25,3.91 h 3.223 c 0.094,-0.929 0.738,-1.554 2.07,-1.554 1.203,0 1.762,0.578 1.762,1.421 0,0.891 -0.871,1.223 -2.984,1.512 -2.579,0.313 -4.649,0.981 -4.649,3.598 0,2.336 1.715,3.578 4.047,3.578 1.824,0 2.801,-0.664 3.586,-1.754 h 0.043 c 0.062,0.668 0.223,1.176 0.402,1.445 m -2.937,-1.98 c -0.957,0 -1.739,-0.375 -1.739,-1.399 0,-1.019 0.739,-1.398 2.27,-1.73 0.781,-0.18 1.535,-0.356 2.051,-0.668 v 1.531 c 0,1.289 -1.028,2.266 -2.582,2.266 m 11.273,5.933 c 2.27,0 3.36,-0.933 4.32,-3.664 l 4.223,-12.109 h -3.469 l -1.449,4.531 c -0.508,1.578 -1.043,4.11 -1.043,4.11 h -0.047 c 0,0 -0.441,-2.508 -0.976,-4.11 l -1.512,-4.531 h -3.672 l 3.672,9.441 c 0.422,1.067 0.621,1.977 0.621,2.379 -0.066,0.797 -0.601,1.2 -1.687,1.2 -0.09,0 -1.09,0 -1.133,-0.024 h -0.184 v 2.734 c 0.071,0.02 2.227,0.043 2.336,0.043"
         style="fill:#192855;fill-opacity:1;fill-rule:nonzero;stroke:none"
         transform="scale(1.3333333)"
         clip-path="url(#clipPath11)"
         id="path12" />
    </g>
    <g
       id="g14">
      <path
         d="m 294.086,78.266 h 3.402 v -7.399 c 0,-2.086 -0.265,-5.953 -0.265,-5.953 h 0.043 c 0,0 0.711,3.531 1.289,5.488 l 2.379,7.864 h 3.117 l 2.355,-7.864 c 0.582,-1.957 1.293,-5.488 1.293,-5.488 h 0.043 c 0,0 -0.265,3.867 -0.265,5.953 v 7.399 h 3.488 V 61.738 h -5.16 l -2.024,6.887 c -0.601,2.066 -1.222,5.887 -1.222,5.887 h -0.071 c 0,0 -0.64,-3.821 -1.242,-5.887 l -2.07,-6.887 h -5.09 z m 25.773,0.355 c 3.051,0 4.989,-1.598 5.586,-3.687 h -3.383 c -0.374,0.734 -1.062,1.156 -2.152,1.156 -1.691,0 -2.648,-1.067 -2.871,-2.844 h 8.629 c 0.02,-2.332 -0.578,-4.332 -1.91,-5.621 -1.047,-0.953 -2.383,-1.512 -4.07,-1.512 -3.606,0 -6.075,2.711 -6.075,6.266 0,3.531 2.379,6.242 6.246,6.242 m -1.531,-13.949 h 2.602 l 2.652,-3.578 h -4.07 z m 1.36,3.91 c 1.378,0 2.308,0.996 2.421,2.641 h -5.047 c 0.223,-1.621 1.02,-2.641 2.626,-2.641 m 14.078,10.063 c 3.293,0 5.425,-2.09 5.539,-4.778 h -3.356 c -0.156,1.356 -0.937,2.133 -2.226,2.133 -1.758,0 -2.649,-1.465 -2.649,-3.621 0,-2.223 0.891,-3.664 2.649,-3.664 1.156,0 1.867,0.687 2.113,1.777 h 3.379 c -0.422,-2.578 -2.379,-4.379 -5.535,-4.379 -3.715,0 -6.141,2.711 -6.141,6.266 0,3.531 2.445,6.266 6.227,6.266 m 15.64,-0.379 h 3.403 v -0.2 c -0.317,-0.199 -0.45,-0.711 -0.45,-1.64 v -6.067 c 0,-1.601 -0.578,-2.824 -1.8,-3.535 -0.821,-0.488 -1.891,-0.711 -3.403,-0.711 -3.511,0 -5.16,1.891 -5.25,3.91 h 3.223 c 0.09,-0.929 0.734,-1.554 2.074,-1.554 1.199,0 1.754,0.578 1.754,1.422 0,0.89 -0.867,1.222 -2.98,1.511 -2.579,0.313 -4.649,0.977 -4.649,3.598 0,2.336 1.715,3.578 4.047,3.578 1.828,0 2.805,-0.668 3.582,-1.754 H 349 c 0.066,0.664 0.227,1.176 0.406,1.442 m -2.937,-1.977 c -0.957,0 -1.739,-0.379 -1.739,-1.398 0,-1.024 0.735,-1.399 2.27,-1.735 0.777,-0.176 1.535,-0.355 2.051,-0.668 v 1.535 c 0,1.289 -1.028,2.266 -2.582,2.266 m 12.297,-9.84 h -3.383 v 11.817 h 3.492 v -6.664 c 0,-1.508 0.918,-2.598 2.27,-2.598 1.293,0 1.984,0.867 1.984,2.152 v 7.11 h 3.469 v -7.774 c 0,-2.644 -1.516,-4.379 -4.114,-4.379 -1.648,0 -2.914,0.711 -3.652,2.133 h -0.066 z m 10.703,-1.668 h 3.535 v -3.043 h -3.535 z m 0.019,13.485 h 3.496 V 66.449 h -3.496 z m 14.571,3.933 h 3.468 v -15.75 h -3.336 v 1.664 h -0.066 c -0.801,-1.355 -1.934,-2 -3.559,-2 -3.136,0 -5.14,2.621 -5.14,6.242 0,3.848 2.023,6.29 5.207,6.29 1.558,0 2.758,-0.688 3.469,-1.844 h 0.046 c -0.046,0.488 -0.089,1.445 -0.089,2.578 z m -2.625,-6.265 c -1.559,0 -2.469,-1.356 -2.469,-3.465 0,-2.11 0.801,-3.578 2.535,-3.578 1.781,0 2.668,1.554 2.668,3.578 0,2.023 -0.934,3.465 -2.734,3.465 m 20.082,2.332 V 66.449 h -3.442 v 6.684 c 0,1.469 -0.871,2.535 -2.269,2.535 -1.25,0 -1.895,-0.758 -1.895,-2.066 v -7.153 h -3.492 v 7.821 c 0,2.597 1.473,4.332 4.16,4.332 1.625,0 2.692,-0.645 3.559,-2.024 h 0.066 v 1.688 z m 8.679,0.355 c 3.047,0 4.981,-1.598 5.582,-3.687 h -3.379 c -0.378,0.734 -1.07,1.156 -2.16,1.156 -1.687,0 -2.648,-1.067 -2.871,-2.844 H 416 c 0.023,-2.332 -0.578,-4.332 -1.914,-5.621 -1.047,-0.953 -2.379,-1.512 -4.07,-1.512 -3.602,0 -6.075,2.711 -6.075,6.266 0,3.531 2.383,6.242 6.254,6.242 m -0.179,-10.039 c 1.379,0 2.316,0.996 2.425,2.641 h -5.05 c 0.222,-1.621 1.023,-2.641 2.625,-2.641"
         style="fill:#192855;fill-opacity:1;fill-rule:nonzero;stroke:none"
         transform="scale(1.3333333)"
         clip-path="url(#clipPath13)"
         id="path14" />
    </g>
    <g
       id="g16">
      <path
         d="m 261.766,56.051 h 11.406 v -3.246 h -7.625 V 39.52 h -3.781 z m 21.668,0 h 3.398 v -0.199 c -0.312,-0.2 -0.445,-0.711 -0.445,-1.645 v -6.066 c 0,-1.598 -0.578,-2.821 -1.801,-3.532 -0.82,-0.488 -1.891,-0.711 -3.402,-0.711 -3.516,0 -5.164,1.887 -5.25,3.911 h 3.226 c 0.086,-0.934 0.731,-1.555 2.07,-1.555 1.2,0 1.754,0.574 1.754,1.422 0,0.886 -0.867,1.219 -2.98,1.508 -2.578,0.312 -4.649,0.98 -4.649,3.601 0,2.332 1.711,3.578 4.047,3.578 1.828,0 2.805,-0.668 3.582,-1.758 h 0.043 c 0.067,0.668 0.223,1.176 0.407,1.446 m -2.938,-1.981 c -0.961,0 -1.738,-0.375 -1.738,-1.394 0,-1.024 0.734,-1.403 2.269,-1.735 0.778,-0.179 1.535,-0.355 2.043,-0.668 v 1.536 c 0,1.289 -1.019,2.261 -2.574,2.261 m 15.922,2.356 c 3.07,0 5.07,-2.375 5.07,-6.285 0,-3.621 -2.023,-6.243 -5.093,-6.243 -1.645,0 -2.735,0.778 -3.536,1.977 h -0.066 c 0.043,-0.711 0.109,-1.734 0.109,-2.73 V 39.52 h -3.492 v 16.531 h 3.36 v -1.735 h 0.046 c 0.688,1.446 2.024,2.11 3.602,2.11 m -0.934,-2.797 c -1.687,0 -2.691,-1.422 -2.691,-3.488 0,-2.043 0.848,-3.598 2.672,-3.598 1.644,0 2.469,1.465 2.469,3.574 0,2.133 -0.825,3.512 -2.45,3.512 m 14.125,2.797 c 3.762,0 6.227,-2.731 6.227,-6.262 0,-3.555 -2.465,-6.266 -6.227,-6.266 -3.781,0 -6.273,2.711 -6.273,6.266 0,3.531 2.492,6.262 6.273,6.262 m -0.019,-2.531 c -1.781,0 -2.715,-1.512 -2.715,-3.731 0,-2.246 0.934,-3.777 2.715,-3.777 1.734,0 2.711,1.531 2.711,3.777 0,2.219 -0.977,3.731 -2.711,3.731 m 12.031,-9.665 h -3.359 v 11.821 h 3.492 v -5.489 c 0,-2.308 1.246,-3.488 3.137,-3.464 0.246,0 0.488,0.019 0.734,0.066 h 0.09 v -3.043 c -0.156,-0.066 -0.403,-0.09 -0.735,-0.09 -1.468,0 -2.535,0.664 -3.292,2.309 h -0.067 z m 13.789,11.821 h 3.406 v -0.199 c -0.312,-0.2 -0.445,-0.711 -0.445,-1.645 v -6.066 c 0,-1.598 -0.578,-2.821 -1.801,-3.532 -0.828,-0.488 -1.89,-0.711 -3.402,-0.711 -3.516,0 -5.164,1.887 -5.254,3.911 h 3.227 c 0.089,-0.934 0.734,-1.555 2.07,-1.555 1.199,0 1.754,0.574 1.754,1.422 0,0.886 -0.863,1.219 -2.981,1.508 -2.578,0.312 -4.644,0.98 -4.644,3.601 0,2.332 1.711,3.578 4.047,3.578 1.824,0 2.801,-0.668 3.578,-1.758 h 0.047 c 0.066,0.668 0.222,1.176 0.398,1.446 m -2.937,-1.981 c -0.953,0 -1.731,-0.375 -1.731,-1.394 0,-1.024 0.735,-1.403 2.27,-1.735 0.777,-0.179 1.531,-0.355 2.043,-0.668 v 1.536 c 0,1.289 -1.02,2.261 -2.582,2.261 m 8.125,-7.617 h 1.773 v 6.621 c 0,2.399 1.492,3.11 3.691,3.11 0.938,0 1.653,-0.11 2.028,-0.176 v -2.602 h -0.18 c -0.219,0.024 -0.574,0.043 -0.797,0.043 -0.824,0 -1.312,-0.242 -1.312,-1.133 v -5.863 h 2.312 V 44.23 h -2.312 v -3.777 h -3.43 v 3.777 h -1.773 z m 15.726,9.973 c 3.758,0 6.227,-2.731 6.227,-6.262 0,-3.555 -2.469,-6.266 -6.227,-6.266 -3.781,0 -6.277,2.711 -6.277,6.266 0,3.531 2.496,6.262 6.277,6.262 m -0.023,-2.531 c -1.781,0 -2.715,-1.512 -2.715,-3.731 0,-2.246 0.934,-3.777 2.715,-3.777 1.73,0 2.715,1.531 2.715,3.777 0,2.219 -0.985,3.731 -2.715,3.731 m 8.652,-11.329 h 3.531 V 39.52 h -3.531 z m 0.02,13.485 h 3.492 V 44.23 h -3.492 z m 9.832,-11.821 h -3.36 v 11.821 h 3.493 v -5.489 c 0,-2.308 1.25,-3.488 3.136,-3.464 0.246,0 0.488,0.019 0.735,0.066 h 0.089 v -3.043 c -0.152,-0.066 -0.398,-0.09 -0.734,-0.09 -1.469,0 -2.535,0.664 -3.293,2.309 h -0.066 z m 11.902,12.176 c 3.047,0 4.984,-1.601 5.582,-3.687 h -3.379 c -0.383,0.73 -1.07,1.152 -2.16,1.152 -1.688,0 -2.648,-1.066 -2.871,-2.844 h 8.633 c 0.023,-2.332 -0.578,-4.332 -1.914,-5.621 -1.043,-0.953 -2.383,-1.508 -4.071,-1.508 -3.601,0 -6.074,2.711 -6.074,6.266 0,3.531 2.383,6.242 6.254,6.242 m -0.18,-10.043 c 1.379,0 2.317,1 2.426,2.645 h -5.051 c 0.223,-1.621 1.028,-2.645 2.625,-2.645"
         style="fill:#192855;fill-opacity:1;fill-rule:nonzero;stroke:none"
         transform="scale(1.3333333)"
         clip-path="url(#clipPath15)"
         id="path16" />
    </g>
    <g
       id="g18">
      <path
         d="m 265.945,78.57 c 1.606,0 2.918,-0.668 3.61,-2.113 h 0.043 v 1.738 h 3.363 v -16.55 h -3.492 v 3.628 c 0,0.997 0.043,2 0.086,2.735 h -0.043 c -0.805,-1.227 -1.895,-1.981 -3.52,-1.981 -3.074,0 -5.121,2.625 -5.121,6.25 0,3.914 2.004,6.293 5.074,6.293 m 0.938,-2.8 c -1.625,0 -2.449,-1.379 -2.449,-3.516 0,-2.113 0.824,-3.578 2.468,-3.578 1.805,0 2.676,1.512 2.676,3.601 0,2.071 -1,3.493 -2.695,3.493 m 14.765,2.781 c 3.051,0 4.985,-1.602 5.59,-3.692 h -3.383 c -0.378,0.731 -1.074,1.157 -2.164,1.157 -1.691,0 -2.648,-1.071 -2.871,-2.848 h 8.641 c 0.023,-2.336 -0.578,-4.34 -1.918,-5.629 -1.043,-0.957 -2.383,-1.512 -4.074,-1.512 -3.606,0 -6.078,2.715 -6.078,6.274 0,3.535 2.382,6.25 6.257,6.25 m -0.179,-10.055 c 1.379,0 2.32,1 2.429,2.649 h -5.054 c 0.222,-1.625 1.019,-2.649 2.625,-2.649"
         style="fill:#192855;fill-opacity:1;fill-rule:nonzero;stroke:none"
         transform="scale(1.3333333)"
         clip-path="url(#clipPath17)"
         id="path18" />
    </g>
    <g
       id="g20">
      <path
         d="m 22.949,39.535 v 60.93 H 59.633 V 88.531 H 35.746 V 39.535 Z m 46.918,0 v 60.93 H 82.664 V 57.004 l 14.594,43.461 H 108.09 L 87.531,39.535 Z m 0,100.465 C 30.199,140 0,109.578 0,70.043 0,30.504 30.199,0 69.867,0 c 28.668,0 51.871,16.105 63.137,39.535 h -18.43 l -8.621,30.508 6.059,17.98 8.195,-28.461 v 40.903 h 12.797 C 121.656,123.895 98.535,140 69.867,140"
         style="fill:#192855;fill-opacity:1;fill-rule:nonzero;stroke:none"
         transform="scale(1.3333333)"
         clip-path="url(#clipPath19)"
         id="path20" />
    </g>
  </g>
</svg>
