<?xml version="1.0" encoding="UTF-8" standalone="no"?>
<!-- Created with Inkscape (http://www.inkscape.org/) -->

<svg
   version="1.1"
   id="svg2"
   width="1212.0177"
   height="290.34207"
   viewBox="0 0 1212.0177 290.34206"
   sodipodi:docname="logo_ensta.svg"
   inkscape:version="1.4 (e7c3feb100, 2024-10-09)"
   xml:space="preserve"
   xmlns:inkscape="http://www.inkscape.org/namespaces/inkscape"
   xmlns:sodipodi="http://sodipodi.sourceforge.net/DTD/sodipodi-0.dtd"
   xmlns="http://www.w3.org/2000/svg"
   xmlns:svg="http://www.w3.org/2000/svg"><defs
     id="defs6" /><sodipodi:namedview
     id="namedview4"
     pagecolor="#ffffff"
     bordercolor="#000000"
     borderopacity="0.25"
     inkscape:showpageshadow="2"
     inkscape:pageopacity="0.0"
     inkscape:pagecheckerboard="0"
     inkscape:deskcolor="#d1d1d1"
     showgrid="false"
     inkscape:zoom="0.16428015"
     inkscape:cx="-560.01897"
     inkscape:cy="1406.1346"
     inkscape:window-width="1916"
     inkscape:window-height="1021"
     inkscape:window-x="0"
     inkscape:window-y="0"
     inkscape:window-maximized="0"
     inkscape:current-layer="g317" /><g
     inkscape:groupmode="layer"
     inkscape:label="Image"
     id="g8"
     transform="translate(-47.64617,-349.2435)"><g
       id="g317"
       transform="translate(-334.08275,-475.62052)"><path
         style="fill:#3645fe;stroke-width:0.333333"
         d="M 381.72892,970.0308 V 824.8641 h 106.83333 106.83334 v 36.1666 36.1667 h -68.33334 -68.33333 v 17.6667 17.6667 h 55.33333 55.33334 v 35 35 h -55.33334 -55.33333 v 20 20 h 68.33333 68.33334 v 36.3333 36.3333 H 488.56225 381.72892 Z m 239.66667,0 V 824.8641 l 61.75,0.01 61.75002,0.01 33.9981,98.2444 c 18.6989,54.0343 34.5047,99.7067 35.124,101.4942 0.6908,1.9942 1.3033,3.25 1.5852,3.25 0.3892,0 0.4593,-15.4919 0.4593,-101.5 v -101.5 h 38.5 38.5001 v 145.1667 145.1667 h -58.3495 -58.3494 l -0.457,-1.0834 c -0.2513,-0.5958 -17.5315,-47.8435 -38.40052,-104.9949 -30.71374,-84.112 -38.05477,-103.9126 -38.52697,-103.9167 -0.55433,0 -0.58333,5.2153 -0.58333,104.995 v 105 h -38.5 -38.5 V 970.0394 Z m 297.66662,108.8333 v -36.3333 h 68.43 c 75.46449,0 70.57389,0.1365 74.00549,-2.0656 4.5417,-2.9143 6.5902,-9.459 4.5913,-14.6683 -0.8992,-2.3434 -3.2681,-5.0394 -5.3591,-6.099 -0.8639,-0.4378 -21.5801,-6.9655 -46.0359,-14.5061 -24.45579,-7.5406 -46.34009,-14.4477 -48.63179,-15.3492 -16.7068,-6.5719 -29.8682,-16.9845 -39.3859,-31.1599 -17.5012,-26.066 -18.588,-62.6034 -2.7157,-91.3022 6.4811,-11.7185 15.6531,-21.719 26.6016,-29.0046 7.6679,-5.1024 18.8815,-9.7358 28.1804,-11.6439 9.3159,-1.9116 7.6193,-1.8679 72.56759,-1.8679 h 59.752 v 36.1666 36.1667 h -55.9387 c -38.9306,0 -56.53609,0.1104 -57.90329,0.3632 -5.3176,0.983 -8.8869,4.6829 -9.8629,10.224 -0.8411,4.7752 1.496,9.7224 5.7558,12.1841 0.8151,0.471 22.31389,7.266 49.13969,15.5312 26.2298,8.0816 49.4798,15.3965 51.6667,16.2554 19.7312,7.7497 35.1704,21.7317 44.1045,39.9421 3.5456,7.227 5.8136,14.3583 7.421,23.3334 0.6998,3.9072 0.7757,5.3166 0.7725,14.3333 0,10.9622 -0.3371,13.978 -2.4825,22.4757 -5.1941,20.5739 -17.4784,38.3566 -34.1147,49.3842 -12.2867,8.1444 -25.7705,12.5551 -41.7095,13.6438 -2.7595,0.1884 -34.28,0.3218 -76.76519,0.3247 h -72.0834 z m 295.99999,-72.6667 v -109 h -40.3333 -40.3333 v -36.1667 -36.1666 h 119.3333 119.3333 v 36.1666 36.1667 h -40.3333 -40.3333 v 109 109 h -38.6667 -38.6667 z m 225.1667,108.6214 c -19.1477,-1.3585 -37.0029,-9.1744 -50.9268,-22.2926 -13.9117,-13.1067 -23.5691,-32.362 -26.0516,-51.9427 -0.596,-4.7006 -0.6935,-15.287 -0.1833,-19.8861 1.6307,-14.6983 7.176,-28.5283 16.29,-40.6272 5.1604,-6.8505 8.8871,-10.2119 52.1499,-47.0394 22.8292,-19.4334 41.5183,-35.4459 41.5314,-35.5834 0.013,-0.1375 -17.2263,-0.25 -38.3096,-0.25 h -38.3333 v -36.1667 -36.1666 l 65.0833,0.01 c 69.6271,0.01 67.6774,-0.036 75.25,1.6526 26.3766,5.8814 48.1592,27.116 54.6707,53.2954 2.2831,9.1792 2.13,4.0076 2.244,75.7955 l 0.103,64.9166 h -37.0088 -37.0089 v -36.5 c 0,-20.075 -0.074,-36.5 -0.1642,-36.5 -0.4804,0 -81.9974,75.2693 -82.6688,76.3328 -5.3065,8.6027 -0.6261,16.5434 7.3189,18.5006 l 74.757,0.087 74.7571,0.087 v 36.3298 36.3297 l -74.75,-0.047 c -41.1125,-0.026 -76.55,-0.1751 -78.75,-0.3312 z"
         id="path319"
         sodipodi:nodetypes="cccccccccccccccccccccccccccccsssscccccccsscscccccccssssssssssscccscssscsscssscccccccccccccccccccccsssssssccccssscccssccccccscc" /></g><g
       id="g299"
       transform="translate(477.97592,-1074.2549)" /></g></svg>
