<?xml version="1.0" encoding="UTF-8" standalone="no"?>
<!-- Created with Inkscape (http://www.inkscape.org/) -->

<svg
   version="1.1"
   id="svg1"
   width="890.66663"
   height="386.66666"
   viewBox="0 0 890.66663 386.66666"
   sodipodi:docname="logo_ensps.svg"
   inkscape:version="1.3.2 (091e20ef0f, 2023-11-25)"
   xmlns:inkscape="http://www.inkscape.org/namespaces/inkscape"
   xmlns:sodipodi="http://sodipodi.sourceforge.net/DTD/sodipodi-0.dtd"
   xmlns="http://www.w3.org/2000/svg"
   xmlns:svg="http://www.w3.org/2000/svg">
  <defs
     id="defs1">
    <clipPath
       clipPathUnits="userSpaceOnUse"
       id="clipPath1">
      <path
         d="M 0,0 H 668 V 290 H 0 Z"
         id="path1" />
    </clipPath>
    <clipPath
       clipPathUnits="userSpaceOnUse"
       id="clipPath3">
      <path
         d="M 0,0 H 668 V 290 H 0 Z"
         id="path3" />
    </clipPath>
    <clipPath
       clipPathUnits="userSpaceOnUse"
       id="clipPath5">
      <path
         d="M 0,0 H 668 V 290 H 0 Z"
         id="path5" />
    </clipPath>
    <clipPath
       clipPathUnits="userSpaceOnUse"
       id="clipPath7">
      <path
         d="M 0,0 H 668 V 290 H 0 Z"
         id="path7" />
    </clipPath>
    <clipPath
       clipPathUnits="userSpaceOnUse"
       id="clipPath9">
      <path
         d="M 0,0 H 668 V 290 H 0 Z"
         id="path9" />
    </clipPath>
    <clipPath
       clipPathUnits="userSpaceOnUse"
       id="clipPath11">
      <path
         d="M 0,0 H 668 V 290 H 0 Z"
         id="path11" />
    </clipPath>
    <clipPath
       clipPathUnits="userSpaceOnUse"
       id="clipPath13">
      <path
         d="M 0,0 H 668 V 290 H 0 Z"
         id="path13" />
    </clipPath>
    <clipPath
       clipPathUnits="userSpaceOnUse"
       id="clipPath15">
      <path
         d="M 0,0 H 668 V 290 H 0 Z"
         id="path15" />
    </clipPath>
    <clipPath
       clipPathUnits="userSpaceOnUse"
       id="clipPath17">
      <path
         d="M 0,0 H 668 V 290 H 0 Z"
         id="path17" />
    </clipPath>
    <clipPath
       clipPathUnits="userSpaceOnUse"
       id="clipPath19">
      <path
         d="M 0,0 H 668 V 290 H 0 Z"
         id="path19" />
    </clipPath>
    <clipPath
       clipPathUnits="userSpaceOnUse"
       id="clipPath21">
      <path
         d="M 0,0 H 668 V 290 H 0 Z"
         id="path21" />
    </clipPath>
    <clipPath
       clipPathUnits="userSpaceOnUse"
       id="clipPath23">
      <path
         d="M 0,0 H 668 V 290 H 0 Z"
         id="path23" />
    </clipPath>
    <clipPath
       clipPathUnits="userSpaceOnUse"
       id="clipPath25">
      <path
         d="M 0,0 H 668 V 290 H 0 Z"
         id="path25" />
    </clipPath>
    <clipPath
       clipPathUnits="userSpaceOnUse"
       id="clipPath27">
      <path
         d="M 0,0 H 668 V 290 H 0 Z"
         id="path27" />
    </clipPath>
    <clipPath
       clipPathUnits="userSpaceOnUse"
       id="clipPath29">
      <path
         d="M 0,0 H 668 V 290 H 0 Z"
         id="path29" />
    </clipPath>
    <clipPath
       clipPathUnits="userSpaceOnUse"
       id="clipPath31">
      <path
         d="M 0,0 H 668 V 290 H 0 Z"
         id="path31" />
    </clipPath>
    <clipPath
       clipPathUnits="userSpaceOnUse"
       id="clipPath33">
      <path
         d="M 0,0 H 668 V 290 H 0 Z"
         id="path33" />
    </clipPath>
    <clipPath
       clipPathUnits="userSpaceOnUse"
       id="clipPath35">
      <path
         d="M 0,0 H 668 V 290 H 0 Z"
         id="path35" />
    </clipPath>
    <clipPath
       clipPathUnits="userSpaceOnUse"
       id="clipPath37">
      <path
         d="M 0,0 H 668 V 290 H 0 Z"
         id="path37" />
    </clipPath>
    <clipPath
       clipPathUnits="userSpaceOnUse"
       id="clipPath39">
      <path
         d="M 0,0 H 668 V 290 H 0 Z"
         id="path39" />
    </clipPath>
    <clipPath
       clipPathUnits="userSpaceOnUse"
       id="clipPath41">
      <path
         d="M 0,0 H 668 V 290 H 0 Z"
         id="path41" />
    </clipPath>
    <clipPath
       clipPathUnits="userSpaceOnUse"
       id="clipPath43">
      <path
         d="M 0,0 H 668 V 290 H 0 Z"
         id="path43" />
    </clipPath>
    <clipPath
       clipPathUnits="userSpaceOnUse"
       id="clipPath45">
      <path
         d="M 0,0 H 668 V 290 H 0 Z"
         id="path45" />
    </clipPath>
    <clipPath
       clipPathUnits="userSpaceOnUse"
       id="clipPath47">
      <path
         d="M 0,0 H 668 V 290 H 0 Z"
         id="path47" />
    </clipPath>
    <clipPath
       clipPathUnits="userSpaceOnUse"
       id="clipPath49">
      <path
         d="M 0,0 H 668 V 290 H 0 Z"
         id="path49" />
    </clipPath>
    <clipPath
       clipPathUnits="userSpaceOnUse"
       id="clipPath51">
      <path
         d="M 0,0 H 668 V 290 H 0 Z"
         id="path51" />
    </clipPath>
    <clipPath
       clipPathUnits="userSpaceOnUse"
       id="clipPath53">
      <path
         d="M 0,0 H 668 V 290 H 0 Z"
         id="path53" />
    </clipPath>
    <clipPath
       clipPathUnits="userSpaceOnUse"
       id="clipPath55">
      <path
         d="M 0,0 H 668 V 290 H 0 Z"
         id="path55" />
    </clipPath>
    <clipPath
       clipPathUnits="userSpaceOnUse"
       id="clipPath57">
      <path
         d="M 0,0 H 668 V 290 H 0 Z"
         id="path57" />
    </clipPath>
    <clipPath
       clipPathUnits="userSpaceOnUse"
       id="clipPath59">
      <path
         d="M 0,0 H 668 V 290 H 0 Z"
         id="path59" />
    </clipPath>
    <clipPath
       clipPathUnits="userSpaceOnUse"
       id="clipPath61">
      <path
         d="M 0,0 H 668 V 290 H 0 Z"
         id="path61" />
    </clipPath>
    <clipPath
       clipPathUnits="userSpaceOnUse"
       id="clipPath63">
      <path
         d="M 0,0 H 668 V 290 H 0 Z"
         id="path63" />
    </clipPath>
    <clipPath
       clipPathUnits="userSpaceOnUse"
       id="clipPath65">
      <path
         d="M 0,0 H 668 V 290 H 0 Z"
         id="path65" />
    </clipPath>
    <clipPath
       clipPathUnits="userSpaceOnUse"
       id="clipPath67">
      <path
         d="M 0,0 H 668 V 290 H 0 Z"
         id="path67" />
    </clipPath>
    <clipPath
       clipPathUnits="userSpaceOnUse"
       id="clipPath69">
      <path
         d="M 0,0 H 668 V 290 H 0 Z"
         id="path69" />
    </clipPath>
    <clipPath
       clipPathUnits="userSpaceOnUse"
       id="clipPath71">
      <path
         d="M 0,0 H 668 V 290 H 0 Z"
         id="path71" />
    </clipPath>
    <clipPath
       clipPathUnits="userSpaceOnUse"
       id="clipPath73">
      <path
         d="M 0,0 H 668 V 290 H 0 Z"
         id="path73" />
    </clipPath>
    <clipPath
       clipPathUnits="userSpaceOnUse"
       id="clipPath75">
      <path
         d="M 0,0 H 668 V 290 H 0 Z"
         id="path75" />
    </clipPath>
  </defs>
  <sodipodi:namedview
     id="namedview1"
     pagecolor="#ffffff"
     bordercolor="#000000"
     borderopacity="0.25"
     inkscape:showpageshadow="2"
     inkscape:pageopacity="0.0"
     inkscape:pagecheckerboard="0"
     inkscape:deskcolor="#d1d1d1"
     inkscape:zoom="0.75336825"
     inkscape:cx="446.66071"
     inkscape:cy="193.13264"
     inkscape:window-width="1916"
     inkscape:window-height="1021"
     inkscape:window-x="0"
     inkscape:window-y="0"
     inkscape:window-maximized="0"
     inkscape:current-layer="g1">
    <inkscape:page
       x="0"
       y="0"
       id="page1"
       width="890.66663"
       height="386.66666"
       margin="0"
       bleed="0" />
  </sodipodi:namedview>
  <g
     id="g1"
     inkscape:groupmode="layer"
     inkscape:label="">
    <g
       id="g2">
      <path
         d="m 11.199,30.047 h 16.555 c 0,-4.809 -2.801,-8.414 -8.156,-8.414 -4.723,0 -8.16,3.207 -8.399,8.414 M 36.633,48.316 C 32.551,52.484 27.594,54.57 21.277,54.57 9.039,54.57 1.199,46.234 1.199,34.293 1.199,25 6.078,15.703 15.836,13.863 L 17.996,0 H 30.23 L 22.715,13.703 C 33.352,15.305 37.59,24.918 37.43,34.375 l -0.078,3.684 H 10.719 c 0.879,5.129 4.875,8.257 10.316,8.257 3.68,0 6.719,-1.203 9.438,-4.007 z"
         style="fill:#00778b;fill-opacity:1;fill-rule:nonzero;stroke:none"
         transform="scale(1.3333333)"
         clip-path="url(#clipPath1)"
         id="path2" />
    </g>
    <g
       id="g4">
      <path
         d="m 74.863,26.684 c -2.644,-3.289 -5.601,-4.891 -8.801,-4.891 -6.156,0 -10.636,5.129 -10.636,12.262 0,7.133 4.562,12.261 10.719,12.261 4.234,0 6.8,-1.683 9.519,-5.289 l 6.074,6.25 c -3.836,4.965 -9.195,7.293 -15.914,7.293 -5.437,0 -10.078,-1.925 -13.918,-5.851 -3.836,-3.926 -5.754,-8.817 -5.754,-14.664 0,-5.848 1.918,-10.735 5.754,-14.66 3.84,-3.926 8.481,-5.93 13.918,-5.93 6.078,0 11.117,2.238 15.035,6.726 z"
         style="fill:#00778b;fill-opacity:1;fill-rule:nonzero;stroke:none"
         transform="scale(1.3333333)"
         clip-path="url(#clipPath3)"
         id="path4" />
    </g>
    <g
       id="g6">
      <path
         d="m 115.012,42.867 c 2.078,-2.32 3.117,-5.207 3.117,-8.812 0,-3.606 -1.039,-6.493 -3.117,-8.817 -2,-2.32 -4.641,-3.441 -7.762,-3.441 -6.395,0 -10.957,5.125 -10.957,12.258 0,7.133 4.562,12.261 10.957,12.261 3.121,0 5.762,-1.125 7.762,-3.449 m 6.554,-23.476 c 3.918,3.925 5.922,8.816 5.922,14.664 0,5.847 -2.004,10.738 -5.922,14.664 -3.918,3.926 -8.636,5.851 -14.316,5.851 -5.676,0 -10.477,-1.925 -14.395,-5.851 -3.917,-3.926 -5.835,-8.817 -5.835,-14.664 0,-5.848 1.918,-10.739 5.835,-14.664 3.918,-3.926 8.719,-5.93 14.395,-5.93 5.68,0 10.398,2.004 14.316,5.93"
         style="fill:#00778b;fill-opacity:1;fill-rule:nonzero;stroke:none"
         transform="scale(1.3333333)"
         clip-path="url(#clipPath5)"
         id="path6" />
    </g>
    <g
       id="g8">
      <path
         d="m 136.684,0 h 9.117 v 53.688 h -9.117 z"
         style="fill:#00778b;fill-opacity:1;fill-rule:nonzero;stroke:none"
         transform="scale(1.3333333)"
         clip-path="url(#clipPath7)"
         id="path8" />
    </g>
    <g
       id="g10">
      <path
         d="m 164.996,30.047 h 16.559 c 0,-4.809 -2.797,-8.414 -8.16,-8.414 -4.715,0 -8.157,3.207 -8.399,8.414 m 25.434,18.269 c -4.078,4.168 -9.035,6.254 -15.356,6.254 C 162.836,54.57 155,46.234 155,34.293 c 0,-10.418 6.16,-20.832 18.316,-20.832 12.957,0 18.235,10.656 17.918,20.117 l -0.16,4.481 H 164.52 c 0.878,5.129 4.878,8.257 10.316,8.257 3.68,0 6.719,-1.203 9.437,-4.007 z"
         style="fill:#00778b;fill-opacity:1;fill-rule:nonzero;stroke:none"
         transform="scale(1.3333333)"
         clip-path="url(#clipPath9)"
         id="path10" />
    </g>
    <g
       id="g12">
      <path
         d="M 11.062,127.652 H 1.945 V 88.383 h 8.957 v 4.008 c 2.239,-2.645 5.836,-4.969 10.477,-4.969 9.676,0 15.199,6.894 15.199,17.39 v 22.84 h -9.121 v -22.84 c 0,-5.527 -2.879,-9.132 -7.758,-9.132 -5.519,0 -8.637,3.925 -8.637,10.254 z"
         style="fill:#00778b;fill-opacity:1;fill-rule:nonzero;stroke:none"
         transform="scale(1.3333333)"
         clip-path="url(#clipPath11)"
         id="path12" />
    </g>
    <g
       id="g14">
      <path
         d="m 71.848,116.828 c 2.082,-2.32 3.121,-5.203 3.121,-8.812 0,-3.602 -1.039,-6.489 -3.121,-8.813 -2,-2.324 -4.637,-3.441 -7.754,-3.441 -6.403,0 -10.961,5.125 -10.961,12.254 0,7.132 4.558,12.265 10.961,12.265 3.117,0 5.754,-1.125 7.754,-3.453 m 6.558,-23.476 c 3.918,3.925 5.918,8.816 5.918,14.664 0,5.851 -2,10.742 -5.918,14.668 -3.918,3.925 -8.636,5.847 -14.312,5.847 -5.68,0 -10.481,-1.922 -14.399,-5.847 -3.918,-3.926 -5.84,-8.817 -5.84,-14.668 0,-5.848 1.922,-10.739 5.84,-14.664 3.918,-3.926 8.719,-5.93 14.399,-5.93 5.676,0 10.394,2.004 14.312,5.93"
         style="fill:#00778b;fill-opacity:1;fill-rule:nonzero;stroke:none"
         transform="scale(1.3333333)"
         clip-path="url(#clipPath13)"
         id="path14" />
    </g>
    <g
       id="g16">
      <path
         d="m 101.348,97.039 v 30.613 H 92.23 V 88.383 h 21.188 v 8.656 z"
         style="fill:#00778b;fill-opacity:1;fill-rule:nonzero;stroke:none"
         transform="scale(1.3333333)"
         clip-path="url(#clipPath15)"
         id="path16" />
    </g>
    <g
       id="g18">
      <path
         d="m 152.855,93.516 c 3.52,-4.407 7.915,-6.094 11.754,-6.094 10.317,0 15.598,6.094 15.598,17.39 v 22.84 h -9.117 v -23.484 c 0,-5.207 -2.719,-8.488 -7.281,-8.488 -5.356,0 -7.914,3.683 -8.075,9.613 v 22.359 h -9.039 v -23.484 c 0,-5.207 -2.64,-8.488 -7.195,-8.488 -5.523,0 -8.082,3.925 -8.082,10.254 v 21.718 h -9.117 V 88.383 h 8.957 v 4.008 c 2.242,-2.645 5.758,-4.969 10.398,-4.969 4.719,0 8.875,1.766 11.199,6.094"
         style="fill:#00778b;fill-opacity:1;fill-rule:nonzero;stroke:none"
         transform="scale(1.3333333)"
         clip-path="url(#clipPath17)"
         id="path18" />
    </g>
    <g
       id="g20">
      <path
         d="m 203.332,120.52 c 3.758,0 7.594,-1.286 9.914,-3.532 v -4.965 h -7.914 c -5.203,-0.238 -7.602,1.286 -7.602,4.407 0,2.168 1.758,4.09 5.602,4.09 M 190.133,94.715 c 3.441,-4.649 9.437,-7.289 15.359,-7.289 10.153,0 16.871,5.125 16.871,14.82 v 25.406 h -8.957 v -4.011 c -2.718,3.047 -7.676,4.89 -12.156,4.89 -6.797,0 -12.797,-4.324 -12.797,-11.941 0,-8.172 6.559,-12.981 16.879,-12.582 h 7.914 v -1.762 c 0,-3.922 -3.199,-6.566 -7.836,-6.566 -3.922,0 -6.879,2.082 -9.199,4.965 z"
         style="fill:#00778b;fill-opacity:1;fill-rule:nonzero;stroke:none"
         transform="scale(1.3333333)"
         clip-path="url(#clipPath19)"
         id="path20" />
    </g>
    <g
       id="g22">
      <path
         d="m 232.07,73.965 h 9.117 v 53.688 h -9.117 z"
         style="fill:#00778b;fill-opacity:1;fill-rule:nonzero;stroke:none"
         transform="scale(1.3333333)"
         clip-path="url(#clipPath21)"
         id="path22" />
    </g>
    <g
       id="g24">
      <path
         d="m 259.25,104.008 h 16.555 c 0,-4.805 -2.801,-8.41 -8.16,-8.41 -4.719,0 -8.157,3.203 -8.395,8.41 m 25.434,18.273 c -4.082,4.168 -9.039,6.25 -15.36,6.25 -12.234,0 -20.074,-8.336 -20.074,-20.273 0,-10.418 6.156,-20.836 18.312,-20.836 12.958,0 18.239,10.66 17.922,20.117 l -0.164,4.484 h -26.554 c 0.882,5.129 4.879,8.258 10.316,8.258 3.684,0 6.723,-1.203 9.441,-4.011 z"
         style="fill:#00778b;fill-opacity:1;fill-rule:nonzero;stroke:none"
         transform="scale(1.3333333)"
         clip-path="url(#clipPath23)"
         id="path24" />
    </g>
    <g
       id="g26">
      <path
         d="m 5.758,189.75 c 2.722,3.289 6.801,4.891 11.035,4.891 4.242,0 6.16,-1.762 6.16,-4.008 0,-1.68 -1.199,-2.883 -4.801,-3.844 l -5.195,-1.285 c -7.922,-1.84 -11.918,-5.766 -11.918,-12.258 0,-7.133 6.078,-11.863 14.477,-11.863 5.441,0 10.238,2.09 14.476,6.094 l -5.676,6.171 c -2.32,-2.644 -5.445,-4.41 -9.039,-4.41 -3.281,0 -5.519,1.606 -5.519,3.848 0,1.844 1.281,2.887 3.84,3.523 l 6.156,1.446 c 8,1.843 11.996,5.929 11.996,12.261 0,7.129 -5.758,12.18 -15.676,12.18 -6.875,0 -12.476,-2.566 -16.074,-6.973 z"
         style="fill:#00778b;fill-opacity:1;fill-rule:nonzero;stroke:none"
         transform="scale(1.3333333)"
         clip-path="url(#clipPath25)"
         id="path26" />
    </g>
    <g
       id="g28">
      <path
         d="m 63.746,162.348 h 9.117 v 39.265 h -8.957 v -4.004 c -2.16,2.961 -5.844,4.969 -10.48,4.969 -9.676,0 -15.196,-6.894 -15.196,-17.39 v -22.84 h 9.118 v 22.84 c 0,5.527 2.879,9.132 7.757,9.132 5.516,0 8.641,-3.925 8.641,-10.258 z"
         style="fill:#00778b;fill-opacity:1;fill-rule:nonzero;stroke:none"
         transform="scale(1.3333333)"
         clip-path="url(#clipPath27)"
         id="path28" />
    </g>
    <g
       id="g30">
      <path
         d="m 111.891,190.875 c 1.843,-2.402 2.8,-5.367 2.8,-8.816 0,-3.442 -0.957,-6.407 -2.8,-8.813 -1.84,-2.402 -4.399,-3.605 -7.676,-3.605 -6.723,0 -10.481,5.367 -10.481,12.418 0,7.054 3.758,12.421 10.481,12.421 3.277,0 5.836,-1.203 7.676,-3.605 m -17.996,7.371 v 17.789 h -9.118 v -53.687 h 8.957 v 4.004 c 2.481,-2.801 6.883,-4.969 11.282,-4.969 5.593,0 9.996,1.929 13.593,5.855 3.598,3.926 5.356,8.813 5.356,14.742 0,5.93 -1.758,10.817 -5.356,14.743 -3.597,3.847 -8,5.773 -13.593,5.773 -4.239,0 -8.563,-1.844 -11.121,-4.25"
         style="fill:#00778b;fill-opacity:1;fill-rule:nonzero;stroke:none"
         transform="scale(1.3333333)"
         clip-path="url(#clipPath29)"
         id="path30" />
    </g>
    <g
       id="g32">
      <path
         d="m 142.926,177.973 h 16.554 c 0,-4.809 -2.8,-8.414 -8.16,-8.414 -4.718,0 -8.156,3.207 -8.394,8.414 m 25.433,18.269 c -4.082,4.168 -9.039,6.254 -15.355,6.254 -12.238,0 -20.078,-8.336 -20.078,-20.277 0,-9.293 4.883,-18.59 14.636,-20.43 l 2.161,-13.863 h 12.234 l -7.516,13.703 c 10.633,1.598 14.875,11.215 14.715,20.672 l -0.078,3.683 h -26.633 c 0.879,5.129 4.875,8.258 10.317,8.258 3.679,0 6.718,-1.203 9.437,-4.008 z"
         style="fill:#00778b;fill-opacity:1;fill-rule:nonzero;stroke:none"
         transform="scale(1.3333333)"
         clip-path="url(#clipPath31)"
         id="path32" />
    </g>
    <g
       id="g34">
      <path
         d="m 187.473,171.004 v 30.609 h -9.118 v -39.265 h 21.754 v 8.656 z"
         style="fill:#00778b;fill-opacity:1;fill-rule:nonzero;stroke:none"
         transform="scale(1.3333333)"
         clip-path="url(#clipPath33)"
         id="path34" />
    </g>
    <g
       id="g36">
      <path
         d="m 208.348,162.348 h 9.113 v 39.265 h -9.113 z m 0.32,-16.188 c 2.398,-2.406 6.238,-2.406 8.637,0 2.402,2.324 2.402,6.168 0,8.574 -2.399,2.407 -6.239,2.407 -8.637,0 -2.398,-2.406 -2.398,-6.25 0,-8.574"
         style="fill:#00778b;fill-opacity:1;fill-rule:nonzero;stroke:none"
         transform="scale(1.3333333)"
         clip-path="url(#clipPath35)"
         id="path36" />
    </g>
    <g
       id="g38">
      <path
         d="m 236.742,177.973 h 16.555 c 0,-4.809 -2.801,-8.414 -8.16,-8.414 -4.719,0 -8.157,3.207 -8.395,8.414 m 25.434,18.269 c -4.078,4.168 -9.039,6.254 -15.36,6.254 -12.234,0 -20.074,-8.336 -20.074,-20.277 0,-10.418 6.16,-20.836 18.313,-20.836 12.961,0 18.238,10.66 17.918,20.121 l -0.161,4.48 h -26.55 c 0.879,5.129 4.875,8.258 10.316,8.258 3.68,0 6.719,-1.203 9.438,-4.008 z"
         style="fill:#00778b;fill-opacity:1;fill-rule:nonzero;stroke:none"
         transform="scale(1.3333333)"
         clip-path="url(#clipPath37)"
         id="path38" />
    </g>
    <g
       id="g40">
      <path
         d="m 295.844,162.348 h 9.117 v 39.265 h -8.957 v -4.004 c -2.16,2.961 -5.84,4.969 -10.477,4.969 -9.675,0 -15.199,-6.894 -15.199,-17.39 v -22.84 h 9.121 v 22.84 c 0,5.527 2.879,9.132 7.758,9.132 5.52,0 8.637,-3.925 8.637,-10.258 z"
         style="fill:#00778b;fill-opacity:1;fill-rule:nonzero;stroke:none"
         transform="scale(1.3333333)"
         clip-path="url(#clipPath39)"
         id="path40" />
    </g>
    <g
       id="g42">
      <path
         d="m 325.918,171.004 v 30.609 h -9.117 v -39.265 h 21.754 v 8.656 z"
         style="fill:#00778b;fill-opacity:1;fill-rule:nonzero;stroke:none"
         transform="scale(1.3333333)"
         clip-path="url(#clipPath41)"
         id="path42" />
    </g>
    <g
       id="g44">
      <path
         d="m 353.992,177.973 h 16.555 c 0,-4.809 -2.801,-8.414 -8.16,-8.414 -4.719,0 -8.157,3.207 -8.395,8.414 m 25.434,18.269 c -4.082,4.168 -9.039,6.254 -15.36,6.254 -12.234,0 -20.074,-8.336 -20.074,-20.277 0,-10.418 6.16,-20.836 18.313,-20.836 12.957,0 18.238,10.66 17.918,20.121 l -0.161,4.48 h -26.55 c 0.879,5.129 4.875,8.258 10.316,8.258 3.68,0 6.719,-1.203 9.438,-4.008 z"
         style="fill:#00778b;fill-opacity:1;fill-rule:nonzero;stroke:none"
         transform="scale(1.3333333)"
         clip-path="url(#clipPath43)"
         id="path44" />
    </g>
    <g
       id="g46">
      <path
         d="m 29.074,264.84 c 1.84,-2.406 2.797,-5.371 2.797,-8.817 0,-3.441 -0.957,-6.41 -2.797,-8.812 -1.84,-2.406 -4.398,-3.609 -7.676,-3.609 -6.722,0 -10.48,5.371 -10.48,12.421 0,7.051 3.758,12.418 10.48,12.418 3.278,0 5.836,-1.199 7.676,-3.601 m -17.996,7.371 V 290 H 1.961 v -53.691 h 8.957 v 4.007 c 2.48,-2.804 6.879,-4.968 11.281,-4.968 5.594,0 9.996,1.925 13.594,5.851 3.598,3.926 5.355,8.813 5.355,14.746 0,5.926 -1.757,10.817 -5.355,14.743 -3.598,3.847 -8,5.769 -13.594,5.769 -4.242,0 -8.562,-1.844 -11.121,-4.246"
         style="fill:#00778b;fill-opacity:1;fill-rule:nonzero;stroke:none"
         transform="scale(1.3333333)"
         clip-path="url(#clipPath45)"
         id="path46" />
    </g>
    <g
       id="g48">
      <path
         d="m 63.914,268.441 c 3.758,0 7.594,-1.277 9.918,-3.523 v -4.969 h -7.918 c -5.199,-0.238 -7.602,1.281 -7.602,4.406 0,2.168 1.762,4.086 5.602,4.086 m -13.199,-25.8 c 3.441,-4.645 9.441,-7.289 15.355,-7.289 10.16,0 16.875,5.128 16.875,14.82 v 25.406 h -8.953 v -4.012 c -2.722,3.047 -7.68,4.891 -12.156,4.891 -6.801,0 -12.797,-4.328 -12.797,-11.941 0,-8.172 6.555,-12.981 16.875,-12.582 h 7.918 v -1.762 c 0,-3.922 -3.203,-6.57 -7.84,-6.57 -3.918,0 -6.875,2.086 -9.199,4.968 z"
         style="fill:#00778b;fill-opacity:1;fill-rule:nonzero;stroke:none"
         transform="scale(1.3333333)"
         clip-path="url(#clipPath47)"
         id="path48" />
    </g>
    <g
       id="g50">
      <path
         d="m 103.316,244.965 v 30.613 h -9.121 v -39.269 h 21.758 v 8.656 z"
         style="fill:#00778b;fill-opacity:1;fill-rule:nonzero;stroke:none"
         transform="scale(1.3333333)"
         clip-path="url(#clipPath49)"
         id="path50" />
    </g>
    <g
       id="g52">
      <path
         d="m 125.039,236.309 h 9.117 v 39.269 h -9.117 z m 0.32,-16.184 c 2.403,-2.406 6.239,-2.406 8.637,0 2.399,2.324 2.399,6.172 0,8.57 -2.398,2.41 -6.234,2.41 -8.637,0 -2.398,-2.398 -2.398,-6.246 0,-8.57"
         style="fill:#00778b;fill-opacity:1;fill-rule:nonzero;stroke:none"
         transform="scale(1.3333333)"
         clip-path="url(#clipPath51)"
         id="path52" />
    </g>
    <g
       id="g54">
      <path
         d="m 149.723,263.715 c 2.718,3.285 6.8,4.89 11.039,4.89 4.238,0 6.16,-1.761 6.16,-4.011 0,-1.68 -1.199,-2.879 -4.801,-3.844 l -5.199,-1.281 c -7.918,-1.844 -11.918,-5.77 -11.918,-12.258 0,-7.133 6.078,-11.863 14.48,-11.863 5.434,0 10.235,2.086 14.473,6.09 l -5.676,6.175 c -2.32,-2.648 -5.441,-4.414 -9.039,-4.414 -3.277,0 -5.515,1.606 -5.515,3.852 0,1.844 1.277,2.883 3.835,3.523 l 6.157,1.442 c 8,1.843 11.996,5.933 11.996,12.261 0,7.129 -5.754,12.18 -15.672,12.18 -6.879,0 -12.477,-2.562 -16.078,-6.973 z"
         style="fill:#00778b;fill-opacity:1;fill-rule:nonzero;stroke:none"
         transform="scale(1.3333333)"
         clip-path="url(#clipPath53)"
         id="path54" />
    </g>
    <g
       id="g56">
      <path
         d="m 188.172,251.938 h 51.164 v 8.016 h -51.164 z"
         style="fill:#00778b;fill-opacity:1;fill-rule:nonzero;stroke:none"
         transform="scale(1.3333333)"
         clip-path="url(#clipPath55)"
         id="path56" />
    </g>
    <g
       id="g58">
      <path
         d="m 256.523,263.715 c 2.723,3.285 6.801,4.89 11.036,4.89 4.242,0 6.16,-1.761 6.16,-4.011 0,-1.68 -1.199,-2.879 -4.801,-3.844 l -5.195,-1.281 c -7.922,-1.844 -11.918,-5.77 -11.918,-12.258 0,-7.133 6.082,-11.863 14.476,-11.863 5.442,0 10.239,2.086 14.477,6.09 l -5.676,6.175 c -2.32,-2.648 -5.441,-4.414 -9.039,-4.414 -3.281,0 -5.52,1.606 -5.52,3.852 0,1.844 1.282,2.883 3.84,3.523 l 6.157,1.442 c 8,1.843 12,5.933 12,12.261 0,7.129 -5.762,12.18 -15.68,12.18 -6.875,0 -12.477,-2.562 -16.074,-6.973 z"
         style="fill:#00778b;fill-opacity:1;fill-rule:nonzero;stroke:none"
         transform="scale(1.3333333)"
         clip-path="url(#clipPath57)"
         id="path58" />
    </g>
    <g
       id="g60">
      <path
         d="m 304.449,268.441 c 3.758,0 7.598,-1.277 9.918,-3.523 v -4.969 h -7.922 c -5.195,-0.238 -7.593,1.281 -7.593,4.406 0,2.168 1.757,4.086 5.597,4.086 m -13.199,-25.8 c 3.438,-4.645 9.438,-7.289 15.355,-7.289 10.161,0 16.879,5.128 16.879,14.82 v 25.406 h -8.961 v -4.012 c -2.718,3.047 -7.679,4.891 -12.156,4.891 -6.797,0 -12.797,-4.328 -12.797,-11.941 0,-8.172 6.559,-12.981 16.875,-12.582 h 7.922 v -1.762 c 0,-3.922 -3.199,-6.57 -7.84,-6.57 -3.918,0 -6.879,2.086 -9.199,4.968 z"
         style="fill:#00778b;fill-opacity:1;fill-rule:nonzero;stroke:none"
         transform="scale(1.3333333)"
         clip-path="url(#clipPath59)"
         id="path60" />
    </g>
    <g
       id="g62">
      <path
         d="m 361.684,248.57 c -2.641,-3.289 -5.598,-4.886 -8.797,-4.886 -6.16,0 -10.637,5.128 -10.637,12.261 0,7.129 4.555,12.258 10.719,12.258 4.234,0 6.793,-1.68 9.511,-5.289 l 6.082,6.25 c -3.839,4.969 -9.199,7.293 -15.914,7.293 -5.441,0 -10.078,-1.922 -13.918,-5.848 -3.839,-3.925 -5.761,-8.816 -5.761,-14.664 0,-5.851 1.922,-10.742 5.761,-14.664 3.84,-3.926 8.477,-5.929 13.918,-5.929 6.075,0 11.114,2.238 15.036,6.73 z"
         style="fill:#00778b;fill-opacity:1;fill-rule:nonzero;stroke:none"
         transform="scale(1.3333333)"
         clip-path="url(#clipPath61)"
         id="path62" />
    </g>
    <g
       id="g64">
      <path
         d="m 377.973,221.887 h 9.113 v 53.688 h -9.113 z"
         style="fill:#00778b;fill-opacity:1;fill-rule:nonzero;stroke:none"
         transform="scale(1.3333333)"
         clip-path="url(#clipPath63)"
         id="path64" />
    </g>
    <g
       id="g66">
      <path
         d="m 411.531,268.441 c 3.758,0 7.602,-1.277 9.918,-3.523 v -4.969 h -7.918 c -5.195,-0.238 -7.593,1.281 -7.593,4.406 0,2.168 1.757,4.086 5.593,4.086 m -13.195,-25.8 c 3.437,-4.645 9.437,-7.289 15.355,-7.289 10.161,0 16.879,5.128 16.879,14.82 v 25.406 h -8.961 v -4.012 c -2.718,3.047 -7.679,4.891 -12.156,4.891 -6.801,0 -12.797,-4.328 -12.797,-11.941 0,-8.172 6.563,-12.981 16.875,-12.582 h 7.918 v -1.762 c 0,-3.922 -3.195,-6.57 -7.836,-6.57 -3.918,0 -6.879,2.086 -9.195,4.968 z"
         style="fill:#00778b;fill-opacity:1;fill-rule:nonzero;stroke:none"
         transform="scale(1.3333333)"
         clip-path="url(#clipPath65)"
         id="path66" />
    </g>
    <g
       id="g68">
      <path
         d="m 455.977,290 h -9.602 l 5.68,-13.945 -15.516,-39.746 h 10.399 l 10.238,28.367 10.398,-28.367 h 9.914 z"
         style="fill:#00778b;fill-opacity:1;fill-rule:nonzero;stroke:none"
         transform="scale(1.3333333)"
         clip-path="url(#clipPath67)"
         id="path68" />
    </g>
    <g
       id="g70">
      <path
         d="m 394.477,177.957 h 273.434 v 8.012 H 394.477 Z"
         style="fill:#00778b;fill-opacity:1;fill-rule:nonzero;stroke:none"
         transform="scale(1.3333333)"
         clip-path="url(#clipPath69)"
         id="path70" />
    </g>
    <g
       id="g72">
      <path
         d="m 204.926,29.992 h 462.93 v 8.012 h -462.93 z"
         style="fill:#00778b;fill-opacity:1;fill-rule:nonzero;stroke:none"
         transform="scale(1.3333333)"
         clip-path="url(#clipPath71)"
         id="path72" />
    </g>
    <g
       id="g74">
      <path
         d="m 488.52,251.938 h 179.422 v 8.016 H 488.52 Z"
         style="fill:#00778b;fill-opacity:1;fill-rule:nonzero;stroke:none"
         transform="scale(1.3333333)"
         clip-path="url(#clipPath73)"
         id="path74" />
    </g>
    <g
       id="g76">
      <path
         d="M 300.121,103.977 H 668 v 8.012 H 300.121 Z"
         style="fill:#00778b;fill-opacity:1;fill-rule:nonzero;stroke:none"
         transform="scale(1.3333333)"
         clip-path="url(#clipPath75)"
         id="path76" />
    </g>
  </g>
</svg>
