<?xml version="1.0" encoding="UTF-8" standalone="no"?>
<!-- Created with Inkscape (http://www.inkscape.org/) -->

<svg
   version="1.1"
   id="svg1"
   width="315.88266"
   height="254.72533"
   viewBox="0 0 315.88266 254.72533"
   sodipodi:docname="postdoc_comparison_gcrack_fragma.pdf"
   xmlns:inkscape="http://www.inkscape.org/namespaces/inkscape"
   xmlns:sodipodi="http://sodipodi.sourceforge.net/DTD/sodipodi-0.dtd"
   xmlns="http://www.w3.org/2000/svg"
   xmlns:svg="http://www.w3.org/2000/svg">
  <defs
     id="defs1">
    <clipPath
       clipPathUnits="userSpaceOnUse"
       id="clipPath23">
      <path
         d="M 0,-2.5e-6 H 194.26996 V 161.39526 H 0 Z"
         id="path23" />
    </clipPath>
    <clipPath
       clipPathUnits="userSpaceOnUse"
       id="clipPath45">
      <path
         d="M -24.561,68.099002 H 90.020003 V -47.535002 H -24.561 Z"
         id="path45" />
    </clipPath>
    <clipPath
       clipPathUnits="userSpaceOnUse"
       id="clipPath46">
      <path
         d="M -81.253,67.985002 H 33.328003 V -47.649001 H -81.253 Z"
         id="path46" />
    </clipPath>
    <clipPath
       clipPathUnits="userSpaceOnUse"
       id="clipPath47">
      <path
         d="M -32.862005,105.848 H 81.718999 V -9.7860005 H -32.862005 Z"
         id="path47" />
    </clipPath>
  </defs>
  <sodipodi:namedview
     id="namedview1"
     pagecolor="#ffffff"
     bordercolor="#000000"
     borderopacity="0.25"
     inkscape:showpageshadow="2"
     inkscape:pageopacity="0.0"
     inkscape:pagecheckerboard="0"
     inkscape:deskcolor="#d1d1d1">
    <inkscape:page
       x="0"
       y="0"
       inkscape:label="1"
       id="page1"
       width="315.88266"
       height="254.72533"
       margin="0"
       bleed="0" />
  </sodipodi:namedview>
  <g
     id="g1"
     inkscape:groupmode="layer"
     inkscape:label="1">
    <path
       id="path1"
       d="M 0,0 V 161.39526 M 48.56749,0 V 161.39526 M 97.13498,0 V 161.39526 M 145.70247,0 V 161.39526 M 194.26996,0 v 161.39526"
       style="fill:none;stroke:#d9d9d9;stroke-width:0.3985;stroke-linecap:butt;stroke-linejoin:bevel;stroke-miterlimit:10;stroke-dasharray:2.98883, 2.98883;stroke-dashoffset:0;stroke-opacity:1"
       transform="matrix(1.3333333,0,0,-1.3333333,49.112,215.45733)" />
    <path
       id="path2"
       d="M 0,0 H 194.26996 M 0,27.74481 H 194.26996 M 0,55.48964 H 194.26996 M 0,83.23447 H 194.26996 M 0,110.9793 H 194.26996 M 0,138.72412 h 194.26996"
       style="fill:none;stroke:#d9d9d9;stroke-width:0.3985;stroke-linecap:butt;stroke-linejoin:bevel;stroke-miterlimit:10;stroke-dasharray:2.98883, 2.98883;stroke-dashoffset:0;stroke-opacity:1"
       transform="matrix(1.3333333,0,0,-1.3333333,49.112,215.45733)" />
    <path
       id="path3"
       d="M 0,0 V 4.25235 M 48.56749,0 V 4.25235 M 97.13498,0 V 4.25235 M 145.70247,0 V 4.25235 M 194.26996,0 V 4.25235 M 0,161.39526 v -4.25238 m 48.56749,4.25238 v -4.25238 m 48.56749,4.25238 v -4.25238 m 48.56749,4.25238 v -4.25238 m 48.56749,4.25238 v -4.25238"
       style="fill:none;stroke:#808080;stroke-width:0.19925;stroke-linecap:butt;stroke-linejoin:bevel;stroke-miterlimit:10;stroke-dasharray:none;stroke-opacity:1"
       transform="matrix(1.3333333,0,0,-1.3333333,49.112,215.45733)" />
    <path
       id="path4"
       d="M 0,0 H 4.24712 M 0,27.74481 H 4.24712 M 0,55.48964 H 4.24712 M 0,83.23447 H 4.24712 M 0,110.9793 H 4.24712 M 0,138.72412 H 4.24712 M 194.26996,0 h -4.24713 m 4.24713,27.74481 h -4.24713 m 4.24713,27.74483 h -4.24713 m 4.24713,27.74483 h -4.24713 m 4.24713,27.74483 h -4.24713 m 4.24713,27.74482 h -4.24713"
       style="fill:none;stroke:#808080;stroke-width:0.19925;stroke-linecap:butt;stroke-linejoin:bevel;stroke-miterlimit:10;stroke-dasharray:none;stroke-opacity:1"
       transform="matrix(1.3333333,0,0,-1.3333333,49.112,215.45733)" />
    <path
       id="path5"
       d="M 0,0 V 161.39526 H 194.26996 V 0 Z"
       style="fill:none;stroke:#000000;stroke-width:0.3985;stroke-linecap:butt;stroke-linejoin:bevel;stroke-miterlimit:10;stroke-dasharray:none;stroke-opacity:1"
       transform="matrix(1.3333333,0,0,-1.3333333,49.112,215.45733)" />
    <path
       id="path6"
       d="m 2.5300469,-6.7369844 c -0.5507813,0 -0.9726563,0.1757813 -1.3359375,0.5273438 -0.57421877,0.5507812 -0.96093752,1.6992187 -0.96093752,2.859375 0,1.0898437 0.328125,2.25 0.79687502,2.81249998 0.375,0.43359375 0.8789062,0.6796875 1.4648437,0.6796875 0.5039063,0 0.9257813,-0.17578125 1.2890625,-0.515625 0.5742188,-0.55078125 0.9609375,-1.71093748 0.9609375,-2.91796878 0,-2.0390625 -0.9140625,-3.4453125 -2.2148437,-3.4453125 z m -0.035156,0.2578125 c 0.84375,0 1.2890625,1.1367188 1.2890625,3.2109375 0,2.0859375 -0.4335937,3.15234378 -1.2890625,3.15234378 -0.8671875,0 -1.3007812,-1.06640628 -1.3007812,-3.14062498 0,-2.109375 0.4453125,-3.2226563 1.3007812,-3.2226563 z m 0,0"
       style="fill:#000000;fill-opacity:1;fill-rule:nonzero;stroke:none"
       aria-label="0"
       transform="matrix(1.3333333,0,0,1.3333333,45.790667,229.03733)" />
    <path
       id="path7"
       d="m 2.8946875,-6.7369844 -1.7929687,0.9140625 v 0.140625 c 0.1289062,-0.058594 0.234375,-0.09375 0.2695312,-0.1171875 0.1875,-0.070312 0.3515625,-0.1054687 0.4570313,-0.1054687 0.1992187,0 0.2929687,0.1523437 0.2929687,0.46875 v 4.51171873 c 0,0.328125 -0.082031,0.5625 -0.234375,0.64453125 -0.1523437,0.09375 -0.2929687,0.1171875 -0.7148437,0.12890625 V 0.00129688 H 3.9259375 V -0.15104687 C 3.1407813,-0.16276562 2.9767188,-0.25651562 2.9767188,-0.73698437 V -6.7135469 Z m 0,0"
       style="fill:#000000;fill-opacity:1;fill-rule:nonzero;stroke:none"
       aria-label="1"
       transform="matrix(1.3333333,0,0,1.3333333,110.54667,229.03733)" />
    <path
       id="path8"
       d="m 4.7329609,-1.3580781 -0.1289062,-0.058594 c -0.375,0.57421878 -0.5039063,0.65625003 -0.9492188,0.65625003 H 1.2759297 L 2.9517109,-2.5065156 c 0.8789063,-0.9257813 1.265625,-1.6875 1.265625,-2.4609375 0,-0.9960938 -0.796875,-1.7695313 -1.8398437,-1.7695313 -0.5507813,0 -1.0664063,0.2226563 -1.42968751,0.6210938 -0.31640625,0.3398437 -0.46875,0.65625 -0.64453125,1.3710937 l 0.2109375,0.046875 c 0.3984375,-0.984375 0.76171876,-1.3007812 1.44140626,-1.3007812 0.84375,0 1.40625,0.5742187 1.40625,1.40625 0,0.7734375 -0.4570313,1.6992187 -1.2890625,2.5898437 l -1.76953126,1.88671878 v 0.1171875 H 4.1821797 Z m 0,0"
       style="fill:#000000;fill-opacity:1;fill-rule:nonzero;stroke:none"
       aria-label="2"
       transform="matrix(1.3333333,0,0,1.3333333,175.30267,229.03733)" />
    <path
       id="path9"
       d="m 1.5233828,-3.2916719 c 0.5859375,0 0.8203125,0.023437 1.0546875,0.1171875 0.6210938,0.2226563 1.0078125,0.7851563 1.0078125,1.4765625 0,0.83203128 -0.5625,1.47656253 -1.3007812,1.47656253 -0.2695313,0 -0.46875,-0.0703125 -0.84375,-0.3046875 -0.2929688,-0.17578125 -0.46875004,-0.24609375 -0.63281254,-0.24609375 -0.234375,0 -0.375,0.140625 -0.375,0.33984375 0,0.3515625 0.421875,0.57421875 1.12500004,0.57421875 0.7617187,0 1.546875,-0.2578125 2.015625,-0.66796875 0.46875,-0.41015625 0.7265625,-0.98437503 0.7265625,-1.65234373 0,-0.515625 -0.1523438,-0.9726563 -0.4453125,-1.2890625 -0.1992188,-0.2226563 -0.3867188,-0.3398438 -0.8320313,-0.5273438 0.6914063,-0.46875 0.9375,-0.8320312 0.9375,-1.3710937 0,-0.8085938 -0.6328125,-1.3710938 -1.546875,-1.3710938 -0.5039062,0 -0.9375,0.1757813 -1.3007812,0.4921875 -0.29296879,0.2695313 -0.44531254,0.5273438 -0.66796879,1.125 l 0.15234375,0.035156 C 1.0077578,-5.8112031 1.4530703,-6.1393281 2.0858828,-6.1393281 c 0.6445313,0 1.0898438,0.4453125 1.0898438,1.0664062 0,0.3632813 -0.1523438,0.7265625 -0.3984375,0.9726563 -0.2929688,0.2929687 -0.5742188,0.4453125 -1.2539063,0.6796875 z m 0,0"
       style="fill:#000000;fill-opacity:1;fill-rule:nonzero;stroke:none"
       aria-label="3"
       transform="matrix(1.3333333,0,0,1.3333333,240.05867,229.03733)" />
    <path
       id="path10"
       d="M 4.7005234,-2.2955781 H 3.6927109 V -6.7369844 H 3.2473984 l -3.12890621,4.4414063 v 0.6328125 H 2.9192734 V 0.00129688 H 3.6927109 V -1.6627656 h 1.0078125 z m -1.7929687,0 H 0.51692969 l 2.39062501,-3.421875 z m 0,0"
       style="fill:#000000;fill-opacity:1;fill-rule:nonzero;stroke:none"
       aria-label="4"
       transform="matrix(1.3333333,0,0,1.3333333,304.81467,229.03733)" />
    <g
       id="g10"
       aria-label="·10&#10;−5"
       transform="matrix(1.3333333,0,0,1.3333333,267.14133,252.11333)">
      <path
         id="path11"
         d="m 1.909625,-2.4961328 c 0,-0.28125 -0.234375,-0.5273438 -0.5273438,-0.5273438 -0.28125,0 -0.5273437,0.2460938 -0.5273437,0.5273438 0,0.2929687 0.2460937,0.5390625 0.5273437,0.5390625 0.2929688,0 0.5273438,-0.2460938 0.5273438,-0.5390625 z m 0,0"
         style="fill:#000000;fill-opacity:1;fill-rule:nonzero;stroke:none" />
      <path
         id="path12"
         d="m 5.6537656,-6.7383203 -1.7929687,0.9140625 v 0.140625 c 0.1289062,-0.058594 0.234375,-0.09375 0.2695312,-0.1171875 0.1875,-0.070312 0.3515625,-0.1054688 0.4570313,-0.1054688 0.1992187,0 0.2929687,0.1523438 0.2929687,0.46875 v 4.51171879 c 0,0.328125 -0.082031,0.5625 -0.234375,0.64453125 -0.1523437,0.09375 -0.2929687,0.1171875 -0.7148437,0.12890625 V -3.90625e-5 H 6.6850156 V -0.15238281 C 5.8998594,-0.16410156 5.7357969,-0.25785156 5.7357969,-0.73832031 V -6.7148828 Z m 4.6171874,0 c -0.5507811,0 -0.9726561,0.1757812 -1.3359374,0.5273437 -0.5742187,0.5507813 -0.9609375,1.6992188 -0.9609375,2.859375 0,1.0898438 0.328125,2.25 0.796875,2.81250004 0.375,0.43359375 0.8789063,0.6796875 1.4648439,0.6796875 0.503906,0 0.925781,-0.17578125 1.289062,-0.515625 0.574219,-0.55078125 0.960938,-1.71093754 0.960938,-2.91796874 0,-2.0390625 -0.914063,-3.4453125 -2.214844,-3.4453125 z m -0.03516,0.2578125 c 0.84375,0 1.289062,1.1367187 1.289062,3.2109375 0,2.0859375 -0.433593,3.15234374 -1.289062,3.15234374 -0.8671876,0 -1.3007814,-1.06640624 -1.3007814,-3.14062504 0,-2.109375 0.4453125,-3.2226562 1.3007814,-3.2226562 z m 0,0"
         style="fill:#000000;fill-opacity:1;fill-rule:nonzero;stroke:none" />
      <path
         id="path13"
         d="m 17.586383,-5.3174219 c 0.117187,0 0.257812,0 0.257812,-0.140625 0,-0.1523437 -0.140625,-0.1523437 -0.257812,-0.1523437 h -3.996094 c -0.117187,0 -0.257812,0 -0.257812,0.1523437 0,0.140625 0.140625,0.140625 0.257812,0.140625 z m 0,0"
         style="fill:#000000;fill-opacity:1;fill-rule:nonzero;stroke:none" />
      <path
         id="path14"
         d="m 19.786578,-7.9189844 h 1.441406 c 0.117188,0 0.152344,-0.011719 0.175782,-0.058594 l 0.28125,-0.65625 -0.07031,-0.058594 c -0.117187,0.1523438 -0.1875,0.1992188 -0.339844,0.1992188 h -1.546875 l -0.796875,1.7460937 c -0.01172,0.011719 -0.01172,0.023437 -0.01172,0.035156 0,0.035156 0.03516,0.058594 0.09375,0.058594 0.234375,0 0.527343,0.046875 0.832031,0.140625 0.84375,0.28125 1.242187,0.7382813 1.242187,1.4648438 0,0.703125 -0.457031,1.265625 -1.03125,1.265625 -0.140625,0 -0.269531,-0.058594 -0.492187,-0.2226563 -0.234375,-0.1640625 -0.410156,-0.234375 -0.5625,-0.234375 -0.210938,0 -0.316406,0.082031 -0.316406,0.2695313 0,0.28125 0.351562,0.4570312 0.902343,0.4570312 0.621094,0 1.148438,-0.1992187 1.511719,-0.5742187 0.339844,-0.3398438 0.503906,-0.75 0.503906,-1.3125 0,-0.5390625 -0.140625,-0.8671875 -0.515625,-1.2421875 -0.316406,-0.328125 -0.738281,-0.4921875 -1.617187,-0.6445313 z m 0,0"
         style="fill:#000000;fill-opacity:1;fill-rule:nonzero;stroke:none" />
    </g>
    <path
       id="path15"
       d="m 2.5312578,-6.738625 c -0.5507812,0 -0.9726562,0.1757813 -1.3359375,0.5273438 -0.57421874,0.5507812 -0.96093749,1.6992187 -0.96093749,2.859375 0,1.0898437 0.328125,2.25 0.79687499,2.81249995 0.375,0.43359375 0.8789063,0.6796875 1.4648438,0.6796875 0.5039062,0 0.9257812,-0.17578125 1.2890625,-0.515625 0.5742187,-0.55078125 0.9609375,-1.71093745 0.9609375,-2.91796875 0,-2.0390625 -0.9140625,-3.4453125 -2.2148438,-3.4453125 z m -0.035156,0.2578125 c 0.84375,0 1.2890625,1.1367188 1.2890625,3.2109375 0,2.0859375 -0.4335938,3.15234375 -1.2890625,3.15234375 -0.8671875,0 -1.3007813,-1.06640625 -1.3007813,-3.14062495 0,-2.109375 0.4453125,-3.2226563 1.3007813,-3.2226563 z m 0,0"
       style="fill:#000000;fill-opacity:1;fill-rule:nonzero;stroke:none"
       aria-label="0"
       transform="matrix(1.3333333,0,0,1.3333333,37.777333,219.79733)" />
    <path
       id="path16"
       d="m 4.7329844,-1.3598594 -0.1289063,-0.058594 c -0.375,0.57421873 -0.5039062,0.65624998 -0.9492187,0.65624998 H 1.2759531 L 2.9517344,-2.5082969 c 0.8789062,-0.9257812 1.265625,-1.6875 1.265625,-2.4609375 0,-0.9960937 -0.796875,-1.7695312 -1.8398438,-1.7695312 -0.5507812,0 -1.0664062,0.2226562 -1.42968747,0.6210937 -0.31640625,0.3398438 -0.46875,0.65625 -0.64453125,1.3710938 l 0.2109375,0.046875 c 0.3984375,-0.984375 0.76171872,-1.3007813 1.44140622,-1.3007813 0.84375,0 1.40625,0.5742188 1.40625,1.40625 0,0.7734375 -0.4570312,1.6992188 -1.2890625,2.5898438 L 0.30329688,-0.11767187 V -4.84375e-4 H 4.1822031 Z m 2.7802734,-5.3789062 c -0.5507812,0 -0.9726562,0.1757812 -1.3359375,0.5273437 -0.5742187,0.5507813 -0.9609375,1.6992188 -0.9609375,2.859375 0,1.0898438 0.328125,2.25 0.796875,2.81250003 0.375,0.43359375 0.8789063,0.6796875 1.4648438,0.6796875 0.5039062,0 0.9257812,-0.17578125 1.2890625,-0.515625 0.5742187,-0.55078125 0.9609375,-1.71093753 0.9609375,-2.91796873 0,-2.0390625 -0.9140625,-3.4453125 -2.2148438,-3.4453125 z m -0.035156,0.2578125 c 0.84375,0 1.2890625,1.1367187 1.2890625,3.2109375 0,2.0859375 -0.4335938,3.15234373 -1.2890625,3.15234373 -0.8671875,0 -1.3007813,-1.06640623 -1.3007813,-3.14062503 0,-2.109375 0.4453125,-3.2226562 1.3007813,-3.2226562 z m 0,0"
       style="fill:#000000;fill-opacity:1;fill-rule:nonzero;stroke:none"
       aria-label="20"
       transform="matrix(1.3333333,0,0,1.3333333,31.134667,182.80533)" />
    <path
       id="path17"
       d="M 4.6978281,-2.2965 H 3.6900156 V -6.7379063 H 3.2447031 L 0.11579688,-2.2965 v 0.6328125 H 2.9165781 V 3.75e-4 h 0.7734375 v -1.6640625 h 1.0078125 z m -1.7929687,0 H 0.51423438 L 2.9048594,-5.718375 Z m 4.6083984,-4.4414063 c -0.5507812,0 -0.9726562,0.1757813 -1.3359375,0.5273438 -0.5742187,0.5507812 -0.9609375,1.6992187 -0.9609375,2.859375 0,1.0898437 0.328125,2.25 0.796875,2.8125 0.375,0.43359375 0.8789063,0.6796875 1.4648438,0.6796875 0.5039062,0 0.9257812,-0.17578125 1.2890625,-0.515625 0.5742187,-0.55078125 0.9609375,-1.7109375 0.9609375,-2.9179688 0,-2.0390625 -0.9140625,-3.4453125 -2.2148438,-3.4453125 z m -0.035156,0.2578125 c 0.84375,0 1.2890625,1.1367188 1.2890625,3.2109375 0,2.0859375 -0.4335938,3.1523438 -1.2890625,3.1523438 -0.8671875,0 -1.3007813,-1.0664063 -1.3007813,-3.140625 0,-2.109375 0.4453125,-3.2226563 1.3007813,-3.2226563 z m 0,0"
       style="fill:#000000;fill-opacity:1;fill-rule:nonzero;stroke:none"
       aria-label="40"
       transform="matrix(1.3333333,0,0,1.3333333,31.134667,145.812)" />
    <path
       id="path18"
       d="m 4.4400156,-6.8080469 c -1.1367187,0.09375 -1.7109375,0.28125 -2.4375,0.796875 -1.07812497,0.7617188 -1.66406247,1.8984375 -1.66406247,3.234375 0,0.8671875 0.26953125,1.7460938 0.69140627,2.23828127 0.3867187,0.43359375 0.9257812,0.6796875 1.5351562,0.6796875 1.2421875,0 2.0976563,-0.94921875 2.0976563,-2.32031247 0,-1.2773438 -0.7265625,-2.0859375 -1.875,-2.0859375 -0.4335938,0 -0.6445313,0.070312 -1.2773438,0.4453125 0.2695313,-1.5 1.3828125,-2.578125 2.953125,-2.8359375 z m -2.0273437,3 c 0.8554687,0 1.3476562,0.7148438 1.3476562,1.96875 0,1.08984377 -0.3867187,1.69921877 -1.078125,1.69921877 -0.8789062,0 -1.4179687,-0.93749997 -1.4179687,-2.48437497 0,-0.5039063 0.082031,-0.7851563 0.28125,-0.9257813 0.2109375,-0.1640625 0.515625,-0.2578125 0.8671875,-0.2578125 z m 5.1005859,-2.9296875 c -0.5507812,0 -0.9726562,0.1757813 -1.3359375,0.5273438 -0.5742187,0.5507812 -0.9609375,1.6992187 -0.9609375,2.859375 0,1.0898437 0.328125,2.25 0.796875,2.81249997 0.375,0.43359375 0.8789063,0.6796875 1.4648438,0.6796875 0.5039062,0 0.9257812,-0.17578125 1.2890625,-0.515625 0.5742187,-0.55078125 0.9609375,-1.71093747 0.9609375,-2.91796877 0,-2.0390625 -0.9140625,-3.4453125 -2.2148438,-3.4453125 z m -0.035156,0.2578125 c 0.84375,0 1.2890625,1.1367188 1.2890625,3.2109375 0,2.0859375 -0.4335938,3.15234377 -1.2890625,3.15234377 -0.8671875,0 -1.3007813,-1.06640627 -1.3007813,-3.14062497 0,-2.109375 0.4453125,-3.2226563 1.3007813,-3.2226563 z m 0,0"
       style="fill:#000000;fill-opacity:1;fill-rule:nonzero;stroke:none"
       aria-label="60"
       transform="matrix(1.3333333,0,0,1.3333333,31.134667,108.91333)" />
    <path
       id="path19"
       d="m 2.8931406,-3.6903125 c 0.984375,-0.5273437 1.3242188,-0.9492187 1.3242188,-1.6289062 0,-0.8203125 -0.7148438,-1.4179688 -1.7109375,-1.4179688 -1.078125,0 -1.88671877,0.6679688 -1.88671877,1.5820313 0,0.6445312 0.1875,0.9375 1.23046877,1.8515625 -1.07812502,0.8085937 -1.28906252,1.125 -1.28906252,1.8046875 0,0.96093745 0.78515622,1.64062495 1.91015622,1.64062495 1.1953125,0 1.9570313,-0.65625 1.9570313,-1.68749995 0,-0.7617188 -0.3398438,-1.2539063 -1.5351563,-2.1445313 z m -0.1875,1.0195313 c 0.7265625,0.515625 0.9726563,0.8789062 0.9726563,1.4414062 0,0.64453125 -0.4570313,1.08984375 -1.1015625,1.08984375 -0.75,0 -1.265625,-0.57421875 -1.265625,-1.44140625 0,-0.6445312 0.2226562,-1.0546875 0.796875,-1.5234375 z M 2.6001719,-3.8778125 c -0.890625,-0.5742187 -1.2421875,-1.03125 -1.2421875,-1.59375 0,-0.5742187 0.4453125,-0.984375 1.0664062,-0.984375 0.6796875,0 1.1132813,0.4453125 1.1132813,1.125 0,0.5742188 -0.28125,1.0195313 -0.84375,1.3945313 -0.058594,0.035156 -0.058594,0.035156 -0.09375,0.058594 z m 4.9130859,-2.859375 c -0.5507812,0 -0.9726562,0.1757813 -1.3359375,0.5273438 -0.5742187,0.5507812 -0.9609375,1.6992187 -0.9609375,2.859375 0,1.0898437 0.328125,2.25 0.796875,2.81249995 0.375,0.43359375 0.8789063,0.6796875 1.4648438,0.6796875 0.5039062,0 0.9257812,-0.17578125 1.2890625,-0.515625 0.5742187,-0.55078125 0.9609375,-1.71093745 0.9609375,-2.91796875 0,-2.0390625 -0.9140625,-3.4453125 -2.2148438,-3.4453125 z m -0.035156,0.2578125 c 0.84375,0 1.2890625,1.1367188 1.2890625,3.2109375 0,2.0859375 -0.4335938,3.15234375 -1.2890625,3.15234375 -0.8671875,0 -1.3007813,-1.06640625 -1.3007813,-3.14062495 0,-2.109375 0.4453125,-3.2226563 1.3007813,-3.2226563 z m 0,0"
       style="fill:#000000;fill-opacity:1;fill-rule:nonzero;stroke:none"
       aria-label="80"
       transform="matrix(1.3333333,0,0,1.3333333,31.134667,71.826667)" />
    <path
       id="path20"
       d="m 2.8936719,-6.7373281 -1.7929688,0.9140625 v 0.140625 c 0.1289063,-0.058594 0.234375,-0.09375 0.2695313,-0.1171875 0.1875,-0.070312 0.3515625,-0.1054688 0.4570312,-0.1054688 0.1992188,0 0.2929688,0.1523438 0.2929688,0.46875 v 4.51171878 c 0,0.328125 -0.082031,0.5625 -0.234375,0.64453125 -0.1523438,0.09375 -0.2929688,0.1171875 -0.7148438,0.12890625 V 9.53125e-4 H 3.9249219 V -0.15139062 C 3.1397656,-0.16310937 2.9757031,-0.25685937 2.9757031,-0.73732812 V -6.7138906 Z m 4.6201172,0 c -0.5507813,0 -0.9726563,0.1757812 -1.3359375,0.5273437 -0.5742188,0.5507813 -0.9609375,1.6992188 -0.9609375,2.859375 0,1.0898438 0.328125,2.25 0.796875,2.81250003 0.375,0.43359375 0.8789062,0.6796875 1.4648437,0.6796875 0.5039063,0 0.9257813,-0.17578125 1.2890625,-0.515625 0.5742188,-0.55078125 0.9609375,-1.71093753 0.9609375,-2.91796873 0,-2.0390625 -0.9140625,-3.4453125 -2.2148437,-3.4453125 z m -0.035156,0.2578125 c 0.84375,0 1.2890625,1.1367187 1.2890625,3.2109375 0,2.0859375 -0.4335937,3.15234373 -1.2890625,3.15234373 -0.8671875,0 -1.3007812,-1.06640623 -1.3007812,-3.14062503 0,-2.109375 0.4453125,-3.2226562 1.3007812,-3.2226562 z m 5.0156249,-0.2578125 c -0.550781,0 -0.972656,0.1757812 -1.335938,0.5273437 -0.574218,0.5507813 -0.960937,1.6992188 -0.960937,2.859375 0,1.0898438 0.328125,2.25 0.796875,2.81250003 0.375,0.43359375 0.878906,0.6796875 1.464844,0.6796875 0.503906,0 0.925781,-0.17578125 1.289062,-0.515625 0.574219,-0.55078125 0.960938,-1.71093753 0.960938,-2.91796873 0,-2.0390625 -0.914063,-3.4453125 -2.214844,-3.4453125 z m -0.03516,0.2578125 c 0.84375,0 1.289062,1.1367187 1.289062,3.2109375 0,2.0859375 -0.433594,3.15234373 -1.289062,3.15234373 -0.867188,0 -1.300782,-1.06640623 -1.300782,-3.14062503 0,-2.109375 0.445313,-3.2226562 1.300782,-3.2226562 z m 0,0"
       style="fill:#000000;fill-opacity:1;fill-rule:nonzero;stroke:none"
       aria-label="100"
       transform="matrix(1.3333333,0,0,1.3333333,24.493333,34.834667)" />
    <path
       id="path21"
       d="m 0,0 51.51697,146.72217 0.13711,-0.64297 0.12229,-1.42889 0.09633,0.86174 0.0919,-1.65791 0.14748,0.0932 0.06446,-0.58618 0.12005,-1.60673 0.12821,-0.82511 0.12006,-0.89894 0.12524,0.44855 0.13637,-0.78269 0.0904,0.76816 0.14822,-1.6591 0.09782,-2.85405 0.12821,-2.02785 0.14081,0.42418 0.13635,-0.025 0.11413,-0.49283 0.16155,0.25624 0.13784,-0.94646 0.12302,-0.81267 0.13785,-0.63467 0.12375,0.91257 0.1208,-1.47188 0.13858,-0.968 0.13414,-0.26636 0.12006,0.0844 0.14377,-2.25661 0.13414,-0.51777 0.1067,-0.75144 0.12748,-1.75558 0.14228,-0.19745 0.13042,-0.60693 0.12303,0.15444 0.13341,-0.33299 0.12597,-0.71173 0.15192,-0.10251 0.1245,-0.65396 0.146,-1.20291 0.14155,-0.67049 0.09633,-2.00551 0.15858,-2.06718 0.11933,-0.58505 0.15712,2.08159 0.12893,-0.66681 0.12896,-0.71752 0.13784,-0.31329 0.13932,-1.98909 0.15266,-0.42328 0.12451,-2.36067 0.1193,-0.2457 0.14082,-1.64078 0.13338,0.32756 0.14007,0.16117 0.14896,-1.15499 0.12154,-0.33076 0.11857,-1.07004 0.1371,0.2136 0.13043,-0.0585 0.12896,-0.74319 0.16081,-0.17523 0.11487,-1.00133 0.12672,-0.57009 0.14377,0.0383 0.10597,-1.78547 0.14377,0.27677 0.1245,-1.22345 0.11561,-1.86844 0.13783,-1.06402 0.11487,1.62268 0.14453,-2.46076 0.08077,-1.093 0.14229,-0.4069 0.12968,-0.73096 0.12525,-0.52728 0.08744,2.02076 0.12748,-3.99049 0.1156,1.92766 0.07411,-1.42771 0.13412,-0.82937 0.12155,-2.5016 0.07708,-0.47042 0.1193,1.40566 0.07856,-0.77611 0.0793,-2.41698 0.10597,-0.01637 0.09857,-2.04118 0.0363,0.03419 0.09117,-1.26166 0.08077,-1.08177 0.03927,0.53365 0.05855,-1.07659 0.11635,1.07064 -0.01186,-3.04726 0.03705,0.0244 0.04003,-0.02259 -0.01778,-2.47602 0.04297,-0.99958 -0.0022,0.65 -0.07336,-0.99051 v 0.35576 L 62.797,76.2953 62.68953,73.32999 62.56948,73.93459 62.4961,73.74986 62.28712,72.12735 62.17818,70.56894 62.00772,68.93103 61.7817,69.12291 61.43561,68.42883 61.15399,66.86322 60.80272,65.55966 60.4307,64.15451 59.88379,62.70586 59.30055,60.41414 58.69508,58.5336 57.8421,56.68034 56.96245,55.57755 55.88344,53.66287 54.59172,50.33899 53.10289,48.81142 51.2072,45.7669 50.54616,44.16733"
       style="fill:none;stroke:#000000;stroke-width:1.59404;stroke-linecap:butt;stroke-linejoin:bevel;stroke-miterlimit:10;stroke-dasharray:none;stroke-opacity:1"
       transform="matrix(1.3333333,0,0,-1.3333333,49.112,215.45733)" />
    <path
       id="path22"
       d="m 100.22528,30.55342 1.00935,-0.83415 0.99379,-0.59253 1.02565,-0.74937 1.08347,-0.8366 1.10643,-0.82745 1.10939,-0.51178 1.16054,-0.64797 1.18129,-0.92469 1.25538,-0.79592 1.20055,-0.46341 1.32951,-0.66922 1.32061,-0.67595 1.37915,-0.67488 1.44436,-0.61137 1.48069,-0.71498 1.46216,-0.58687 1.56292,-0.65062 1.6037,-0.62436 1.68671,-0.61821 1.75932,-0.62065 1.76379,-0.6015 1.85417,-0.60706 1.88605,-0.56199 2.04242,-0.57985 2.07059,-0.5188 2.1306,-0.59886 2.19879,-0.54021 2.36406,-0.51712 2.41666,-0.53206 2.55004,-0.53484 2.67531,-0.50596 2.81314,-0.51216 2.86429,-0.49086 2.99915,-0.48903 3.24298,-0.44161 3.37191,-0.47906 3.55869,-0.46662 3.7795,-0.43437 3.88698,-0.44388 4.29011,-0.42646 4.40498,-0.41841 4.8452,-0.39759 5.08899,-0.405 5.35062,-0.39846 5.96645,-0.37698 6.35328,-0.34533 6.8839,-0.37674 7.45898,-0.34122 8.2564,-0.33051 9.15901,-0.32189 L 255.01637,2.64774 265.88582,2.31776 278.68355,2.03288 293.21614,1.7533 310.06908,1.49901 329.61954,1.26247 353.77434,1.02338 383.36348,0.81067 421.39725,0.61786 472.88979,0.4387 548.0532,0.284 1129.4847,0.25838 5533.3023,0.31955"
       style="fill:none;stroke:#000000;stroke-width:1.59404;stroke-linecap:butt;stroke-linejoin:bevel;stroke-miterlimit:10;stroke-dasharray:none;stroke-opacity:1"
       transform="matrix(1.3333333,0,0,-1.3333333,49.112,215.45733)"
       clip-path="url(#clipPath23)" />
    <path
       id="path24"
       d="m 100.22528,30.55342 1.00935,-0.83415 0.99379,-0.59253 1.02565,-0.74937 1.08347,-0.8366 1.10643,-0.82745 1.10939,-0.51178 1.16054,-0.64797 1.18129,-0.92469 1.25538,-0.79592 1.20055,-0.46341 1.32951,-0.66922 1.32061,-0.67595 1.37915,-0.67488 1.44436,-0.61137 1.48069,-0.71498 1.46216,-0.58687 1.56292,-0.65062 1.6037,-0.62436 1.68671,-0.61821 1.75932,-0.62065 1.76379,-0.6015 1.85417,-0.60706 1.88605,-0.56199 2.04242,-0.57985 2.07059,-0.5188 2.1306,-0.59886 2.19879,-0.54021 2.36406,-0.51712 2.41666,-0.53206 2.55004,-0.53484 2.67531,-0.50596 2.81314,-0.51216 2.86429,-0.49086 2.99915,-0.48903 3.24298,-0.44161 3.37191,-0.47906 3.55869,-0.46662 3.7795,-0.43437 3.88698,-0.44388 4.29011,-0.42646 4.40498,-0.41841 4.8452,-0.39759 5.08899,-0.405 5.35062,-0.39846 5.96645,-0.37698 6.35328,-0.34533 6.8839,-0.37674 7.45898,-0.34122 8.2564,-0.33051 9.15901,-0.32189 L 255.01637,2.64774 265.88582,2.31776 278.68355,2.03288 293.21614,1.7533 310.06908,1.49901 329.61954,1.26247 353.77434,1.02338 383.36348,0.81067 421.39725,0.61786 472.88979,0.4387 548.0532,0.284 1129.4847,0.25838 5533.3023,0.31955"
       style="fill:none;stroke:#000000;stroke-width:1.59404;stroke-linecap:butt;stroke-linejoin:bevel;stroke-miterlimit:10;stroke-dasharray:none;stroke-opacity:1"
       transform="matrix(1.3333333,0,0,-1.3333333,49.112,215.45733)"
       clip-path="url(#clipPath23)" />
    <path
       id="path25"
       d="m 0,0 v 0 l 29.75587,84.22693 15.62348,43.71968 4.92819,13.35356 1.22649,3.00057 0.26309,0.38506 0.02667,-0.24452 0.09931,-0.0466 0.03704,-0.23067 0.05632,-0.15419 0.07782,-0.14392 0.05484,-0.18018 0.05855,-0.18916 0.06151,-0.16844 0.04446,-0.17709 0.0541,-0.1747 -0.04076,-0.37917 0.12451,0.0127 0.04668,-0.29169 -0.06076,-0.42723 0.05928,-0.1507 -0.02149,-0.32037 0.09708,-0.10327 0.0704,-0.1819 -0.0289,-0.33928 -0.0044,-0.30008 0.11709,-0.0492 0.09634,-0.0562 0.11931,-0.0298 -0.07263,-0.47398 0.01779,-0.24839 0.02446,-0.22852 -0.01186,-0.31416 0.05853,-0.17064 0.05634,-0.19214 0.02742,-0.25696 0.0163,-0.27742 0.07857,-0.13371 0.03481,-0.22643 -0.0074,-0.33555 0.03852,-0.2257 0.04596,-0.20587 0.04075,-0.22076 0.04226,-0.21912 0.05482,-0.20655 0.0289,-0.27636 -0.02147,-0.36899 0.11487,-0.0736 -0.01409,-0.31803 0.09041,-0.10667 -0.02,-0.33626 -0.01261,-0.29323 0.0089,-0.24021 0.14304,0.0464 0.09113,-0.13964 0.05262,-0.20839 0.05633,-0.16181 0.03112,-0.24645 -0.0097,-0.31917 0.126,-0.003 0.1119,-0.0694 -0.03556,-0.42083 -0.01336,-0.34296 0.09487,-0.12206 0.0082,-0.26879 0.14673,-0.0363 0.07707,-0.13266 7.5e-4,-0.31949 -0.01556,-0.36658 0.01777,-0.2803 0.02149,-0.2473 -0.03926,-0.35623 0.11929,-0.0396 0.05189,-0.16314 0.06522,-0.1377 0.27567,0.2032 0.003,-0.369 -0.07262,-0.47579 -0.03186,-0.37707 0.0082,-0.24373 0.17267,0.009 0.09486,-0.0991 -0.0074,-0.40752 -0.02148,-0.38153 -0.0126,-0.3082 0.02742,-0.22429 0.07115,-0.15862 0.0289,-0.26046 0.14228,0.009 0.15934,0.0144 -0.14081,-0.61102 -0.0067,-0.29352 0.15563,0.003 0.05557,-0.20717 0.14304,-0.0245 0.0096,-0.30626 0.12153,-0.11462 0.09485,-0.17107 -0.05334,-0.46735 -0.04078,-0.35075 0.15565,0.0288 0.11633,-0.12547 -0.01111,-0.40646 -0.063,-0.44632 -0.03407,-0.33556 0.02221,-0.2427 0.14008,-0.0174 -0.05707,-0.40864 0.09857,-0.0997 0.08893,-0.14663 0.01036,-0.29808 0.06375,-0.18361 -0.02371,-0.35864 -0.04522,-0.38227 0.06225,-0.12883 0.09634,-0.0985 0.04076,-0.22247 -0.01555,-0.32782 0.06668,-0.13942 0.0504,-0.18718 0.04521,-0.20909 0.04668,-0.22143 0.04225,-0.22189 0.03926,-0.21901 0.04375,-0.20935 0.04297,-0.21267 0.04446,-0.21695 0.04373,-0.219 0.03707,-0.21965 0.04075,-0.20997 0.04149,-0.20981 0.04744,-0.20454 0.0452,-0.21953 0.04594,-0.20595 0.04373,-0.20216 0.04891,-0.19725 0.04521,-0.21248 0.04224,-0.2197 0.04223,-0.22087 0.04373,-0.21054 0.04669,-0.20572 0.04743,-0.20946 0.04446,-0.21278 0.04076,-0.22113 0.04298,-0.21619 0.04299,-0.21197 0.04594,-0.20957 0.04447,-0.21583 0.043,-0.21546 0.04148,-0.22183 0.04447,-0.21174 0.04373,-0.21212 0.04297,-0.21725 0.043,-0.2168 0.04,-0.22134 0.04299,-0.21585 0.04298,-0.21244 0.04297,-0.212 0.04375,-0.21724 0.04222,-0.21916 0.0415,-0.21973 0.04374,-0.21047 0.04446,-0.20883 0.04521,-0.21499 0.04076,-0.22098 0.04224,-0.21968 0.04446,-0.21164 0.04594,-0.21199 0.04076,-0.22194 0.043,-0.21838 0.04149,-0.21853 0.0415,-0.22245 0.04151,-0.21744 0.04075,-0.21947 0.04225,-0.22024 0.04151,-0.2191 0.04001,-0.22414 0.0415,-0.21636 0.04001,-0.21606 0.04223,-0.21371 0.03855,-0.22657 0.03631,-0.23231 0.0378,-0.21816 0.0415,-0.21202 0.04818,-0.20022 0.04223,-0.21897 0.03707,-0.23112 0.03778,-0.22028 0.04225,-0.2102 0.04519,-0.21167 0.03632,-0.22882 0.03186,-0.23993 0.01111,-0.26068 -0.04593,-0.30976 0.07632,-0.13818 0.06003,-0.18349 0.0504,-0.18428 0.04151,-0.21812 0.02148,-0.2383 0.03113,-0.22264 0.02667,-0.22153 0.0452,-0.1884 0.03485,-0.21264 0.0363,-0.18476 0.08745,-0.11194 0.06448,-0.1685 0.03112,-0.22766 -0.0126,-0.29189 0.0289,-0.21652 0.05558,-0.15874 0.06819,-0.14867 0.05409,-0.19556 0.02817,-0.20754 0.13043,-0.11557 0.03186,-0.22989 0.15265,-0.12724 -0.08151,-0.39323 0.02223,-0.24274 -0.09189,-0.36708 0.02445,-0.24169 0.01854,-0.23176 0.02594,-0.22626 0.0578,-0.17535 0.06225,-0.17974 0.05855,-0.19798 0.03261,-0.24844 0.01704,-0.25383 0.02742,-0.23749 0.0289,-0.24376 0.0252,-0.23097 0.05558,-0.18497 0.04299,-0.22581 0.0015,-0.26917 -0.0089,-0.27479 0.05114,-0.17629 0.03411,-0.21208 0.05705,-0.18779 0.04149,-0.22687 0.0341,-0.22186 0.05705,-0.1927 0.02669,-0.23571 0.0096,-0.28079 0.0593,-0.1882 -0.06301,-0.32668 0.03557,-0.2064 0.0519,-0.1995 0.04075,-0.21882 0.02815,-0.23093 0.03409,-0.2265 0.02965,-0.24057 0.03261,-0.23491 0.03705,-0.22818 0.03854,-0.21852 0.02223,-0.2431 0.02298,-0.2453 0.04222,-0.21318 0.05857,-0.21721 0.0452,-0.2184 -0.05856,-0.33219 -0.04667,-0.30528 0.10818,-0.10254 0.12525,-0.13066 0.01037,-0.27018 -0.0778,-0.37517 -0.04965,-0.33373 -0.03853,-0.26433 0.10078,-0.1197 0.22084,-0.04183 -0.09115,-0.35521 -0.05707,-0.32177 -0.0045,-0.27026 0.04225,-0.21035 0.08893,-0.14206 0.04447,-0.26105 -0.06818,-0.36271 -0.06818,-0.37279 -0.02743,-0.28322 -0.0059,-0.2505 0.0993,-0.1238 -0.03778,-0.30256 0.03631,-0.18431 -0.06966,-0.34111 0.07188,-0.19159 0.07337,-0.1903 0.03779,-0.25244 -0.01038,-0.28305 -0.0578,-0.31964 -0.03483,-0.31116 0.04223,-0.206 -0.03483,-0.26282 0.14378,-0.12628 -0.05484,-0.32354 0.11189,-0.17326 -0.12968,-0.40849 0.04892,-0.21663 0.08151,-0.22019 -0.04742,-0.36494 0.02519,-0.29463 0.05038,-0.25994 -0.0089,-0.35929 L 62.37608,78.5849 62.3168,78.16 62.21674,77.76776 62.2627,77.47538 62.22416,77.14305 62.07372,76.70028 62.05519,76.38362 62.0263,76.10531 l 0.08374,-0.17537 -0.09042,-0.37602 -0.003,-0.31195 -0.03038,-0.28285 -0.17194,-0.41576 0.12895,-0.18068 -0.0919,-0.39278 -0.06593,-0.37452 -0.08005,-0.3561 -0.08745,-0.37536 -0.08005,-0.35455 -0.0274,-0.29346 0.01185,-0.27652 -0.02891,-0.27388 -0.09262,-0.32021 -0.10895,-0.33618 -0.003,-0.27824 L 61.23996,70.37119 61.17474,70.02435 61.02951,69.60622 60.93983,69.2483 60.90723,68.93712 60.7479,68.51009 60.80568,68.28355 60.67824,67.85223 60.53075,67.39369 60.36772,67.00667 60.29138,66.68861 60.22617,66.33223 60.16168,66.0098 60.13649,65.67108 59.949,65.23715 59.80522,64.80405 59.85858,64.47287 59.57475,63.90234 59.30797,63.31833 59.15826,62.82089 59.00858,62.3818 58.7981,61.86574 58.68176,61.40477 58.4046,60.82979 58.25267,60.32883 58.0296,59.78328 57.78134,59.19647 57.51456,58.58542 57.21886,57.93657 56.91798,57.35374 56.63118,56.78035 56.35104,56.18813 56.02646,55.56677 55.7241,54.93898 55.37505,54.23335 54.92151,53.38945 54.51761,52.72202 54.05815,51.9565 53.66092,51.21848 53.14514,50.39865 52.61453,49.56377 52.09354,48.73471 51.35988,47.64877 50.3016,46.26161 48.72237,44.28613 46.50134,41.60344 44.5071,39.28232 41.93703,36.3458 l -2.9673,-3.3332 -3.31856,-3.66768 -3.864,-4.19418 -3.59943,-3.83513 -5.13568,-5.36847 -4.41092,-4.50076 -3.5431,-3.58006 -1.80232,-1.95134 -0.47207,-1.01746 1.94608,0.07845 5.24611,1.32148 22.95648,6.56386 42.18753,12.17253 13.12825,3.54735 2.85835,0.60742 0.32978,-0.05754 0.12893,-0.09961 0.37352,-0.04708 0.08,-0.11973 0.38388,-0.06877 0.18527,-0.10212 0.23047,-0.08641 0.21417,-0.1213 0.0185,-0.13621 0.17862,-0.11603 0.39574,-0.06447 0.1949,-0.12277 -0.0638,-0.1694 0.12747,-0.11805 0.14081,-0.09089 0.32312,-0.08197 0.17786,-0.11937 0.20304,-0.09483 0.27199,-0.08631 0.0837,-0.13533 -0.0963,-0.15314 0.18157,-0.08517 0.46761,-0.05319 0.15044,-0.1205 0.25272,-0.10579 0.15117,-0.13107 0.31496,-0.11236 0.31792,-0.09687 0.0986,-0.1438 0.2742,-0.11897 -0.2342,-0.179 0.312,-0.09234 0.18305,-0.1071 0.14303,-0.10318 0.36388,-0.06892 0.16229,-0.12013 0.17934,-0.11942 0.0474,-0.1246 0.003,-0.12018 0.21713,-0.08234 0.0185,-0.12297 0.33646,-0.07611 0.29939,-0.0871 0.0296,-0.11451 0.53432,-0.05313 0.28531,-0.10282 -0.0208,-0.13824 -0.0408,-0.13201 0.25124,-0.09483 0.27049,-0.08609 0.12672,-0.12143 0.18379,-0.09918 0.49356,-0.06281 0.35645,-0.10339 -0.0645,-0.13977 -0.0882,-0.14552 0.21194,-0.09011 0.15563,-0.08914 0.47727,-0.06993 0.22898,-0.11584 0.063,-0.13755 0.34756,-0.08171 0.37797,-0.10168 0.0111,-0.12212 0.0334,-0.13524 0.34387,-0.08224 0.0311,-0.11718 0.17786,-0.09031 0.3231,-0.07565 0.30977,-0.08747 0.0734,-0.11417 0.54619,-0.05961 -0.0326,-0.13969 0.0697,-0.12798 0.0682,-0.10693 0.31051,-0.08036 0.0534,-0.10757 0.14524,-0.09065 0.13563,-0.09297 0.43427,-0.05804 0.30384,-0.08393 0.33422,-0.08057 0.31051,-0.07919 -0.15043,-0.12515 0.0437,-0.11129 0.18233,-0.07972 0.55507,-0.04888 0.19415,-0.10775 0.18824,-0.10972 0.02,-0.12442 0.21492,-0.09356 0.11191,-0.10334 0.46022,-0.05885 0.49948,-0.07475 0.057,-0.11932 0.17787,-0.10618 0.21195,-0.08332 0.3483,-0.06208 0.70552,-0.06785 -0.1838,-0.15238 0.41056,-0.09361 0.3283,-0.09621 -0.14822,-0.13973 0.37795,-0.07798 0.29497,-0.07881 0.0919,-0.10635 0.71588,-0.06476 0.498,-0.09078 0.33425,-0.12545 0.0926,-0.13001 0.50022,-0.08673 0.17416,-0.1127 0.0964,-0.13327 0.45132,-0.10326 0.10004,-0.12633 0.0289,-0.09967 0.10818,-0.09552 0.33721,-0.08024 0.37423,-0.08571 0.36537,-0.08376 0.21714,-0.09843 0.0519,-0.09482 0.008,-0.09694 0.45131,-0.05827 0.3824,-0.07599 0.35423,-0.09186 0.24234,-0.08865 0.48466,-0.08647 0.17044,-0.09717 0.26828,-0.1014 0.14302,-0.0966 0.47431,-0.07753 0.23195,-0.09682 -0.0148,-0.10572 0.16971,-0.08133 0.54098,-0.0584 0.42168,-0.07727 0.19565,-0.09413 0.1082,-0.09207 0.72034,-0.07083 0.48095,-0.08036 0.30902,-0.10546 -0.18081,-0.12653 0.45427,-0.07352 0.29495,-0.08555 0.37944,-0.08505 0.29347,-0.08578 0.3335,-0.08166 0.33867,-0.08592 0.23491,-0.09198 0.33349,-0.08136 0.33052,-0.08705 0.29793,-0.08215 0.38905,-0.07352 0.32164,-0.08498 0.2327,-0.09059 0.33498,-0.08124 0.34681,-0.08496 0.31569,-0.08174 0.41503,-0.06999 0.32162,-0.08378 0.25716,-0.08872 0.34237,-0.07981 0.36165,-0.08287 0.31719,-0.08188 0.39795,-0.07214 0.35424,-0.07951 0.29569,-0.0848 0.35052,-0.07886 0.35425,-0.08378 0.31718,-0.08197 0.42094,-0.06943 0.41426,-0.07594 0.34979,-0.08122 0.52617,-0.07688 0.32608,-0.09266 0.67363,-0.09369 0.25494,-0.08624 0.0459,-0.10747 0.2868,-0.07099 0.56028,-0.06337 0.83223,-0.07129 0.0837,-0.10446 0.11711,-0.09698 0.54914,-0.07143 0.48764,-0.08363 0.0986,-0.09024 0.39795,-0.06368 0.66475,-0.0643 0.48689,-0.07941 0.54618,-0.07621 0.10154,-0.08499 0.93968,-0.07576 0.35572,-0.0907 0.229,-0.08513 0.64919,-0.07712 0.2942,-0.07672 0.39724,-0.07782 0.55284,-0.08064 0.0259,-0.09192 0.52988,-0.06381 0.48318,-0.07601 0.37203,-0.08057 0.4513,-0.07328 0.37574,-0.07416 0.43651,-0.07211 0.44761,-0.07235 0.45946,-0.07345 0.42984,-0.07617 0.44019,-0.07056 0.46985,-0.06503 0.49874,-0.0698 0.43355,-0.06944 0.41129,-0.07507 0.46318,-0.0716 0.39277,-0.06698 0.54099,-0.05745 0.47206,-0.06682 0.51804,-0.06513 0.53505,-0.06567 0.45057,-0.05878 0.34386,-0.06745 0.58028,-0.06099 0.7359,-0.0604 0.20451,-0.07793 0.47431,-0.05463 0.63807,-0.06701 0.10077,-0.07121 0.94045,-0.05901 0.18823,-0.07789 0.29643,-0.06688 0.38611,-0.06069 0.42168,-0.05917 0.54913,-0.04747 0.82779,-0.06184 0.7863,-0.05823 0.66994,-0.05782 0.48687,-0.07167 0.0437,-0.08188 0.27938,-0.05691 0.75961,-0.05477 1.21761,-0.05625 0.92263,-0.07413 0.31571,-0.07077 -0.0585,-0.06449 1.25541,-0.05383 0.58988,-0.07033 0.55211,-0.06791 0.44464,-0.07207 0.89226,-0.06519 0.90117,-0.07093 0.4891,-0.08382 0.81446,-0.07118 0.38461,-0.06971 0.47725,-0.06126 0.81224,-0.05664 1.19684,-0.0574 0.6944,-0.07108 0.6892,-0.06317 0.94637,-0.07002 0.77293,-0.06363 0.0512,-0.07129 0.50986,-0.05982 0.84558,-0.05139 0.87077,-0.05206 0.84484,-0.07141 0.2742,-0.06969 0.39128,-0.05932 1.34283,-0.04862 0.8315,-0.06671 0.41797,-0.0605 0.98045,-0.07085 0.75516,-0.05519 0.77887,-0.05799 0.17343,-0.05775 0.93524,-0.04855 0.65956,-0.04747 1.43103,-0.05444 0.77368,-0.05831 0.36982,-0.05713 0.80777,-0.05532 0.63658,-0.05555 1.14867,-0.04921 1.25465,-0.05575 0.91155,-0.04613 1.72077,-0.06058 0.56694,-0.06421 0.48467,-0.05213 2.05723,-0.05737 -0.0593,-0.0755 0.63807,-0.06213 1.16572,-0.05277 1.66965,-0.0492 0.90561,-0.05863 0.44613,-0.05546 0.82629,-0.0488 1.47329,-0.05168 0.92856,-0.05343 0.75146,-0.05115 0.96637,-0.0543 0.75442,-0.04888 1.61481,-0.05037 1.00936,-0.0517 0.98341,-0.04396 1.35692,-0.04941 0.56396,-0.04509 0.62994,-0.04796 1.18275,-0.04753 1.24206,-0.04524 1.44658,-0.04959 1.82825,-0.05095 1.07605,-0.05464 1.10866,-0.04555 1.18795,-0.04585 1.87716,-0.05368 0.95747,-0.05303 1.10792,-0.04658 1.77489,-0.04864 0.75295,-0.04327 1.23463,-0.0484 1.60741,-0.0451 1.50291,-0.04463 1.01602,-0.03864 0.83817,-0.04294 2.2751,-0.04396 1.89125,-0.04661 0.71144,-0.04165 0.94043,-0.03672 1.57628,-0.03769 1.64668,-0.03689 1.87049,-0.03553 2.01722,-0.04658 1.55851,-0.05199 1.81489,-0.04186 1.78232,-0.04586 1.61185,-0.04778 2.53819,-0.04646 1.38509,-0.04167 2.55747,-0.04557 2.24843,-0.04481 1.19759,-0.03856 1.96164,-0.03745 1.5296,-0.03894 2.19878,-0.04281 2.76127,-0.03981 1.02639,-0.03286 2.22844,-0.03898 2.17655,-0.03578 2.20767,-0.03733 2.36555,-0.03624 1.31764,-0.03511 2.24992,-0.03624 2.30254,-0.03311 2.26028,-0.03204 1.84529,-0.03103 2.30553,-0.03123 1.94902,-0.0328 2.97618,-0.03699 3.05029,-0.03394 2.6316,-0.03247 2.65306,-0.0343 4.2501,-0.03417 2.4767,-0.03823 1.84084,-0.03035 2.88873,-0.03093 3.76767,-0.03109 2.91541,-0.02834 4.61174,-0.03472 2.16026,-0.02949 3.95589,-0.03229 4.04704,-0.03134 2.77684,-0.03047 3.17033,-0.02553 4.74219,-0.02962 4.54209,-0.03137 4.6399,-0.03198 4.27011,-0.02747 4.77034,-0.03152 4.64435,-0.02761 3.10811,-0.02459 5.3543,-0.02504 6.79498,-0.03128 6.19543,-0.02939 3.52829,-0.02263 3.96923,-0.01923 9.11381,-0.02779 5.96941,-0.02831 4.36349,-0.02179 8.08667,-0.02584 7.08623,-0.02563 9.48805,-0.0278 8.10521,-0.02453 7.21739,-0.02123 4.74738,-0.01743 5.83897,-0.0172 11.9892,-0.02009 7.1922,-0.01782 9.86674,-0.02001 8.56617,-0.01738 7.73541,-0.01451 7.71687,-0.01421 L 554.7605,0.30713 567.36481,0.2909 575.10983,0.27733 590.199,0.26065 603.0612,0.2448 617.57973,0.23073 630.79765,0.21762 645.90236,0.20401 666.94238,0.1892 l 10.80349,-0.01205 18.90572,-0.01417 22.70598,-0.0148 17.00634,-0.01171 17.6607,-0.01144 31.80721,-0.01413 16.64987,-0.00946 34.172,-0.01236 20.89108,-0.00781 23.41148,-0.00806 38.86304,-0.00879 48.94766,-0.00938 33.74665,-0.00654 36.5813,-0.0063 59.8511,-0.00657 43.4155,-0.00459 72.2636,-0.00518 70.8385,-0.00413 74.1103,-0.00353 73.3693,-0.00288 92.9241,-0.00269 119.738,-0.00241 121.8849,-0.00216 159.9275,-0.0018 179.1082,-0.00146 200.578,-0.00121 314.8699,-0.00113 319.649,-7.1e-4"
       style="fill:none;stroke:#e41a1c;stroke-width:0.79701;stroke-linecap:butt;stroke-linejoin:bevel;stroke-miterlimit:10;stroke-dasharray:none;stroke-opacity:1"
       transform="matrix(1.3333333,0,0,-1.3333333,49.112,215.45733)"
       clip-path="url(#clipPath23)" />
    <path
       id="path26"
       d="m 49.93054,142.40208 h 3.9851 v 3.9851 h -3.9851 z"
       style="fill:none;stroke:#e41a1c;stroke-width:0.79701;stroke-linecap:butt;stroke-linejoin:bevel;stroke-miterlimit:10;stroke-dasharray:none;stroke-opacity:1"
       transform="matrix(1.3333333,0,0,-1.3333333,49.112,215.45733)" />
    <path
       id="path27"
       d="m 52.43466,128.42336 h 3.9851 v 3.9851 h -3.9851 z"
       style="fill:none;stroke:#e41a1c;stroke-width:0.79701;stroke-linecap:butt;stroke-linejoin:bevel;stroke-miterlimit:10;stroke-dasharray:none;stroke-opacity:1"
       transform="matrix(1.3333333,0,0,-1.3333333,49.112,215.45733)" />
    <path
       id="path28"
       d="m 55.30856,114.54431 h 3.9851 v 3.9851 h -3.9851 z"
       style="fill:none;stroke:#e41a1c;stroke-width:0.79701;stroke-linecap:butt;stroke-linejoin:bevel;stroke-miterlimit:10;stroke-dasharray:none;stroke-opacity:1"
       transform="matrix(1.3333333,0,0,-1.3333333,49.112,215.45733)" />
    <path
       id="path29"
       d="m 57.91718,100.633 h 3.9851 v 3.9851 h -3.9851 z"
       style="fill:none;stroke:#e41a1c;stroke-width:0.79701;stroke-linecap:butt;stroke-linejoin:bevel;stroke-miterlimit:10;stroke-dasharray:none;stroke-opacity:1"
       transform="matrix(1.3333333,0,0,-1.3333333,49.112,215.45733)" />
    <path
       id="path30"
       d="m 59.98701,86.29437 h 3.9851 v 3.9851 h -3.9851 z"
       style="fill:none;stroke:#e41a1c;stroke-width:0.79701;stroke-linecap:butt;stroke-linejoin:bevel;stroke-miterlimit:10;stroke-dasharray:none;stroke-opacity:1"
       transform="matrix(1.3333333,0,0,-1.3333333,49.112,215.45733)" />
    <path
       id="path31"
       d="m 59.03696,67.61366 h 3.9851 v 3.9851 h -3.9851 z"
       style="fill:none;stroke:#e41a1c;stroke-width:0.79701;stroke-linecap:butt;stroke-linejoin:bevel;stroke-miterlimit:10;stroke-dasharray:none;stroke-opacity:1"
       transform="matrix(1.3333333,0,0,-1.3333333,49.112,215.45733)" />
    <path
       id="path32"
       d="m 100.06616,26.8721 h 3.9851 v 3.9851 h -3.9851 z"
       style="fill:none;stroke:#e41a1c;stroke-width:0.79701;stroke-linecap:butt;stroke-linejoin:bevel;stroke-miterlimit:10;stroke-dasharray:none;stroke-opacity:1"
       transform="matrix(1.3333333,0,0,-1.3333333,49.112,215.45733)" />
    <path
       id="path33"
       d="m 112.05315,20.00684 h 3.9851 v 3.9851 h -3.9851 z"
       style="fill:none;stroke:#e41a1c;stroke-width:0.79701;stroke-linecap:butt;stroke-linejoin:bevel;stroke-miterlimit:10;stroke-dasharray:none;stroke-opacity:1"
       transform="matrix(1.3333333,0,0,-1.3333333,49.112,215.45733)" />
    <path
       id="path34"
       d="m 127.85522,13.91849 h 3.9851 v 3.9851 h -3.9851 z"
       style="fill:none;stroke:#e41a1c;stroke-width:0.79701;stroke-linecap:butt;stroke-linejoin:bevel;stroke-miterlimit:10;stroke-dasharray:none;stroke-opacity:1"
       transform="matrix(1.3333333,0,0,-1.3333333,49.112,215.45733)" />
    <path
       id="path35"
       d="m 150.55305,8.59119 h 3.9851 v 3.9851 h -3.9851 z"
       style="fill:none;stroke:#e41a1c;stroke-width:0.79701;stroke-linecap:butt;stroke-linejoin:bevel;stroke-miterlimit:10;stroke-dasharray:none;stroke-opacity:1"
       transform="matrix(1.3333333,0,0,-1.3333333,49.112,215.45733)" />
    <path
       id="path36"
       d="m 184.68578,4.25581 h 3.9851 v 3.9851 h -3.9851 z"
       style="fill:none;stroke:#e41a1c;stroke-width:0.79701;stroke-linecap:butt;stroke-linejoin:bevel;stroke-miterlimit:10;stroke-dasharray:none;stroke-opacity:1"
       transform="matrix(1.3333333,0,0,-1.3333333,49.112,215.45733)" />
    <path
       id="path37"
       d="m 1.0299922,-1.0904375 c 0,0.7265625 -0.11718751,0.85546875 -0.86718751,0.90234375 v 0.1875 H 2.9870234 c 1.1601563,0 2.203125,-0.328125 2.8242188,-0.890625 0.6445312,-0.58593755 1.0078125,-1.46484375 1.0078125,-2.43750005 0,-0.890625 -0.2929688,-1.6757812 -0.84375,-2.2148437 C 5.2956172,-6.2349688 4.2174922,-6.59825 2.8463984,-6.59825 H 0.16280469 v 0.1875 c 0.78515625,0.070312 0.86718751,0.1640625 0.86718751,0.9023437 z m 1.0195312,-4.7460938 c 0,-0.3046875 0.1054688,-0.3867187 0.515625,-0.3867187 0.8554688,0 1.5117188,0.1523437 1.9804688,0.4921875 0.7851562,0.5390625 1.1953125,1.3945312 1.1953125,2.4726562 0,1.171875 -0.4101563,2.015625 -1.21875,2.48437505 -0.5039063,0.28125 -1.0898438,0.41015625 -1.9570313,0.41015625 -0.3984375,0 -0.515625,-0.09375 -0.515625,-0.41015625 z m 6.890625,1.2539063 -1.546875,0.5507812 v 0.140625 h 0.082031 c 0.1171875,-0.023437 0.2460937,-0.035156 0.3398437,-0.035156 0.234375,0 0.328125,0.1640625 0.328125,0.5976562 v 2.3085938 c 0,0.71484375 -0.1054687,0.83203125 -0.7851562,0.8671875 v 0.15234355 h 2.355469 V -0.1529375 C 9.0573359,-0.1998125 8.9753047,-0.30528125 8.9753047,-1.020125 v -3.5273438 z m -0.46875,-2.2265625 c -0.2695312,0 -0.5039062,0.234375 -0.5039062,0.515625 0,0.28125 0.2226562,0.5039062 0.5039062,0.5039062 0.28125,0 0.515625,-0.2226562 0.515625,-0.5039062 0,-0.28125 -0.234375,-0.515625 -0.515625,-0.515625 z M 13.103234,-3.1295 13.056359,-4.488875 h -0.105468 l -0.02344,0.023437 c -0.08203,0.070312 -0.09375,0.082031 -0.140625,0.082031 -0.05859,0 -0.152344,-0.023437 -0.269531,-0.070312 -0.210938,-0.082031 -0.433594,-0.1171875 -0.691406,-0.1171875 -0.785157,0 -1.359375,0.5039063 -1.359375,1.21875 0,0.5625 0.328125,0.9609375 1.171875,1.4414063 l 0.574218,0.328125 c 0.351563,0.1992187 0.515625,0.4335937 0.515625,0.75 0,0.43359375 -0.316406,0.71484375 -0.820312,0.71484375 -0.339844,0 -0.644531,-0.12890625 -0.84375,-0.3515625 C 10.864953,-0.7154375 10.771203,-0.9498125 10.642297,-1.5123125 h -0.164063 v 1.546875 h 0.128907 c 0.07031,-0.09375 0.117187,-0.1171875 0.234375,-0.1171875 0.08203,0 0.222656,0.0234375 0.457031,0.08203125 C 11.579797,0.058 11.849328,0.104875 12.025109,0.104875 c 0.761719,0 1.40625,-0.5859375 1.40625,-1.2773438 0,-0.5039062 -0.246093,-0.8320312 -0.84375,-1.1835937 l -1.066406,-0.6445313 c -0.28125,-0.1523437 -0.433594,-0.4101562 -0.433594,-0.6796875 0,-0.3984375 0.304688,-0.6679687 0.773438,-0.6679687 0.5625,0 0.855469,0.328125 1.089844,1.21875 z m 0.829102,-0.7851563 c 0.08203,-0.011719 0.152344,-0.011719 0.246094,-0.011719 0.339843,0 0.410156,0.1054687 0.410156,0.5742187 v 4.6523438 c 0,0.5273437 -0.117188,0.6328125 -0.703125,0.6914062 v 0.1640625 h 2.414062 V 1.979875 c -0.75,-0.011719 -0.878906,-0.1171875 -0.878906,-0.75 v -1.55859375 c 0.351563,0.328125 0.585938,0.43359375 1.007813,0.43359375 1.171875,0 2.097656,-1.125 2.097656,-2.5664063 0,-1.2304687 -0.703125,-2.1210937 -1.664063,-2.1210937 -0.5625,0 -0.996093,0.2460937 -1.441406,0.7851562 v -0.7617187 l -0.05859,-0.023437 c -0.539062,0.2109375 -0.890625,0.3398437 -1.429687,0.5039062 z m 1.488281,0.5859375 c 0,-0.2929687 0.5625,-0.65625 1.019531,-0.65625 0.738282,0 1.21875,0.7617188 1.21875,1.9101563 0,1.11328125 -0.480468,1.8515625 -1.195312,1.8515625 -0.46875,0 -1.042969,-0.3515625 -1.042969,-0.65625 z m 3.585938,-2.8828125 h 0.05859 c 0.117188,0 0.234375,-0.011719 0.316407,-0.011719 0.316406,0 0.410156,0.140625 0.410156,0.609375 v 4.74609375 c 0,0.5390625 -0.140625,0.66796875 -0.761719,0.71484375 v 0.15234375 h 2.34375 V -0.1529375 C 20.752645,-0.1880938 20.635458,-0.2935625 20.635458,-0.832625 V -6.78575 l -0.04687,-0.023437 c -0.515625,0.1757812 -0.890625,0.2695312 -1.582031,0.4453125 z m 6.987304,5.55468755 c -0.175781,0.140625 -0.292968,0.1875 -0.445312,0.1875 -0.222656,0 -0.292969,-0.140625 -0.292969,-0.57421875 V -2.988875 c 0,-0.515625 -0.04687,-0.8085938 -0.199219,-1.0429688 -0.222656,-0.3632812 -0.644531,-0.5507812 -1.242187,-0.5507812 -0.925781,0 -1.664063,0.4921875 -1.664063,1.1132812 0,0.234375 0.199219,0.4335938 0.421875,0.4335938 0.246094,0 0.445313,-0.1992188 0.445313,-0.421875 0,-0.035156 0,-0.09375 -0.01172,-0.1640625 -0.02344,-0.082031 -0.03516,-0.1640625 -0.03516,-0.234375 0,-0.2695313 0.316406,-0.4921875 0.714844,-0.4921875 0.492187,0 0.761718,0.2929687 0.761718,0.8320312 v 0.609375 c -1.535156,0.609375 -1.699218,0.6914063 -2.132812,1.078125 -0.222656,0.1992188 -0.363281,0.5273438 -0.363281,0.86718755 0,0.62109375 0.445312,1.06640625 1.054687,1.06640625 0.433594,0 0.84375,-0.2109375 1.453125,-0.73828125 0.04687,0.52734375 0.222656,0.73828125 0.632813,0.73828125 0.339843,0 0.550781,-0.12890625 0.902343,-0.50390625 z M 24.446984,-1.2310625 c 0,0.31640625 -0.04687,0.3984375 -0.257812,0.52734375 -0.246094,0.140625 -0.515625,0.22265625 -0.726563,0.22265625 -0.351562,0 -0.632812,-0.33984375 -0.632812,-0.7617188 v -0.046875 c 0,-0.5859375 0.410156,-0.9375 1.617187,-1.3828125 z m 5.525391,-0.328125 c -0.46875,0.703125 -0.832031,0.9375 -1.40625,0.9375 -0.902344,0 -1.535156,-0.796875 -1.535156,-1.9335938 0,-1.03125 0.539062,-1.734375 1.347656,-1.734375 0.363281,0 0.492187,0.1054688 0.585937,0.46875 l 0.07031,0.2226563 c 0.07031,0.28125 0.257812,0.4570312 0.46875,0.4570312 0.257812,0 0.46875,-0.1875 0.46875,-0.4101562 0,-0.5625 -0.691406,-1.03125 -1.535156,-1.03125 -0.480469,0 -0.996094,0.1992187 -1.394532,0.5625 -0.503906,0.4335937 -0.785156,1.1132812 -0.785156,1.8984375 0,1.2890625 0.785156,2.2265625 1.898438,2.2265625 0.445312,0 0.84375,-0.1640625 1.207031,-0.46875 0.269531,-0.24609375 0.457031,-0.515625 0.75,-1.1015625 z M 34.501672,-1.6295 c -0.480469,0.75 -0.914063,1.04296875 -1.546875,1.04296875 -0.5625,0 -0.996094,-0.29296875 -1.289063,-0.85546875 -0.175781,-0.3867188 -0.246093,-0.7148438 -0.269531,-1.3125 h 3.070313 c -0.08203,-0.65625 -0.175782,-0.9375 -0.421875,-1.265625 -0.304688,-0.3515625 -0.761719,-0.5625 -1.277344,-0.5625 -0.503906,0 -0.972656,0.1757812 -1.347656,0.515625 -0.46875,0.4101562 -0.738282,1.1132812 -0.738282,1.9335937 0,1.3710938 0.714844,2.2382813 1.863282,2.2382813 0.949218,0 1.699218,-0.59765625 2.109375,-1.6640625 z m -3.082031,-1.453125 c 0.117187,-0.7734375 0.445312,-1.1367188 1.054687,-1.1367188 0.609375,0 0.855469,0.2695313 0.984375,1.1367188 z m 3.626953,-0.8789063 c 0.128906,-0.035156 0.210937,-0.046875 0.316406,-0.046875 0.257812,0 0.351562,0.1640625 0.351562,0.6445313 v 2.51953125 c 0,0.5390625 -0.140625,0.6796875 -0.691406,0.69140625 v 0.15234375 h 2.203125 V -0.1529375 c -0.527344,-0.0117188 -0.667969,-0.12890625 -0.667969,-0.515625 v -2.8125 c 0,-0.011719 0.07031,-0.1171875 0.140625,-0.1875 C 36.95675,-3.8912188 37.378625,-4.067 37.730187,-4.067 c 0.433594,0 0.65625,0.3515625 0.65625,1.0429687 v 2.1679688 c 0,0.55078125 -0.105468,0.66796875 -0.679687,0.703125 v 0.15234375 h 2.238281 V -0.1529375 c -0.574219,-0.0117188 -0.726562,-0.17578125 -0.726562,-0.796875 V -3.457625 C 39.523156,-3.8912188 39.851281,-4.067 40.308312,-4.067 c 0.5625,0 0.75,0.2695312 0.75,1.1015625 v 2.09765625 c 0,0.5625 -0.08203,0.64453125 -0.65625,0.71484375 V -5.9375e-4 H 42.58175 V -0.1529375 L 42.323937,-0.1646563 C 42.01925,-0.18809375 41.890344,-0.363875 41.890344,-0.7623125 v -2.0507813 c 0,-1.171875 -0.386719,-1.7695312 -1.148438,-1.7695312 -0.585937,0 -1.089844,0.2578125 -1.628906,0.8320312 -0.175781,-0.5625 -0.515625,-0.8320312 -1.054688,-0.8320312 -0.445312,0 -0.714843,0.140625 -1.546875,0.7617187 v -0.7382812 l -0.07031,-0.023437 c -0.503906,0.1875 -0.84375,0.2929687 -1.394531,0.4453125 z M 46.677453,-1.6295 c -0.480469,0.75 -0.914062,1.04296875 -1.546875,1.04296875 -0.5625,0 -0.996094,-0.29296875 -1.289062,-0.85546875 -0.175782,-0.3867188 -0.246094,-0.7148438 -0.269532,-1.3125 h 3.070313 c -0.08203,-0.65625 -0.175781,-0.9375 -0.421875,-1.265625 -0.304688,-0.3515625 -0.761719,-0.5625 -1.277344,-0.5625 -0.503906,0 -0.972656,0.1757812 -1.347656,0.515625 -0.46875,0.4101562 -0.738281,1.1132812 -0.738281,1.9335937 0,1.3710938 0.714843,2.2382813 1.863281,2.2382813 0.949219,0 1.699219,-0.59765625 2.109375,-1.6640625 z m -3.082031,-1.453125 c 0.117187,-0.7734375 0.445312,-1.1367188 1.054687,-1.1367188 0.609375,0 0.855469,0.2695313 0.984375,1.1367188 z m 3.603515,-0.8789063 c 0.05859,-0.035156 0.152344,-0.046875 0.269532,-0.046875 0.269531,0 0.363281,0.1523438 0.363281,0.6445313 v 2.4609375 c 0,0.57421875 -0.105469,0.71484375 -0.621094,0.75 V -5.9375e-4 H 49.33175 V -0.1529375 c -0.515625,-0.0351563 -0.667969,-0.15234375 -0.667969,-0.515625 v -2.8007813 c 0.480469,-0.4453125 0.703125,-0.5625 1.03125,-0.5625 0.492188,0 0.726563,0.3046875 0.726563,0.9609375 v 2.08593755 c 0,0.62109375 -0.128907,0.796875 -0.632813,0.83203125 V -5.9375e-4 H 51.863 V -0.1529375 C 51.382531,-0.1998125 51.253625,-0.317 51.253625,-0.8091875 v -2.2851563 c 0,-0.9257812 -0.433594,-1.4882812 -1.171875,-1.4882812 -0.457031,0 -0.761719,0.1640625 -1.441406,0.8085937 v -0.7851562 l -0.07031,-0.023437 c -0.49219,0.1757807 -0.832034,0.2929682 -1.371097,0.445312 z M 54.558312,-4.488875 H 53.5505 v -1.1484375 c 0,-0.1054688 -0.01172,-0.1289063 -0.07031,-0.1289063 -0.07031,0.082031 -0.128906,0.1757813 -0.199218,0.28125 -0.375,0.5390625 -0.808594,1.0195313 -0.960938,1.0664063 -0.117187,0.070312 -0.175781,0.1289062 -0.175781,0.1875 0,0.023437 0.01172,0.046875 0.03516,0.070312 h 0.539063 v 3 c 0,0.83203125 0.292968,1.265625 0.878906,1.265625 0.492187,0 0.867187,-0.24609375 1.195312,-0.76171875 L 54.663781,-0.7623125 c -0.210937,0.24609375 -0.375,0.33984375 -0.597656,0.33984375 -0.363281,0 -0.515625,-0.26953125 -0.515625,-0.89062505 V -4.16075 h 1.007812 z m 5.692383,5.7890625 h -0.855468 c -0.328125,0 -0.492188,-0.1640625 -0.492188,-0.515625 v -6.6914063 c 0,-0.3046875 0.128906,-0.4335937 0.457031,-0.4335937 h 0.890625 V -6.59825 H 58.153039 V 1.558 h 2.097656 z m 0.530274,-5.2617188 c 0.128906,-0.035156 0.210937,-0.046875 0.316406,-0.046875 0.257812,0 0.351562,0.1640625 0.351562,0.6445313 v 2.51953125 c 0,0.5390625 -0.140625,0.6796875 -0.691406,0.69140625 v 0.15234375 h 2.203125 V -0.1529375 c -0.527344,-0.0117188 -0.667969,-0.12890625 -0.667969,-0.515625 v -2.8125 c 0,-0.011719 0.07031,-0.1171875 0.140625,-0.1875 C 62.691125,-3.8912188 63.113,-4.067 63.464562,-4.067 c 0.433594,0 0.65625,0.3515625 0.65625,1.0429687 v 2.1679688 c 0,0.55078125 -0.105468,0.66796875 -0.679687,0.703125 v 0.15234375 h 2.238281 V -0.1529375 c -0.574219,-0.0117188 -0.726562,-0.17578125 -0.726562,-0.796875 V -3.457625 C 65.257531,-3.8912188 65.585656,-4.067 66.042687,-4.067 c 0.5625,0 0.75,0.2695312 0.75,1.1015625 v 2.09765625 c 0,0.5625 -0.08203,0.64453125 -0.65625,0.71484375 v 0.15234375 h 2.179688 V -0.1529375 l -0.257813,-0.0117188 c -0.304687,-0.0234375 -0.433593,-0.1992187 -0.433593,-0.5976562 v -2.0507813 c 0,-1.171875 -0.386719,-1.7695312 -1.148438,-1.7695312 -0.585937,0 -1.089844,0.2578125 -1.628906,0.8320312 -0.175781,-0.5625 -0.515625,-0.8320312 -1.054688,-0.8320312 -0.445312,0 -0.714843,0.140625 -1.546875,0.7617187 V -4.5591875 L 62.1755,-4.582625 c -0.503906,0.1875 -0.84375,0.2929687 -1.394531,0.4453125 z m 7.901367,5.2617188 V 1.558 h 2.097656 v -8.15625 h -2.097656 v 0.2578125 h 0.855469 c 0.328125,0 0.492187,0.1640625 0.492187,0.515625 v 6.69140625 c 0,0.30468745 -0.140625,0.43359375 -0.457031,0.43359375 z m 0,0"
       style="fill:#000000;fill-opacity:1;fill-rule:nonzero;stroke:none"
       aria-label="Displacement[m]"
       transform="matrix(1.3333333,0,0,1.3333333,130.84933,247.42267)" />
    <path
       id="path38"
       d="M 4.7683125,-2.2972891 V -4.6176016 H 4.5456562 C 4.41675,-3.8207266 4.2409687,-3.6683828 3.4440937,-3.6683828 H 2.0026875 v -2.2148438 c 0,-0.2695312 0.046875,-0.328125 0.3164062,-0.328125 h 1.359375 c 1.125,0 1.3359375,0.140625 1.5117188,1.0429688 H 5.4362812 L 5.4128437,-6.5980703 H 0.11596875 v 0.1875 c 0.73828125,0.070312 0.8671875,0.1992187 0.8671875,0.9023437 v 4.3125 c 0,0.83203129 -0.10546875,0.96093754 -0.8671875,1.00781254 V -4.140625e-4 H 2.9050312 V -0.18791406 C 2.1433125,-0.23478906 2.0026875,-0.36369531 2.0026875,-1.0902578 v -2.1679688 h 1.4414062 c 0.8085938,0 0.9726563,0.1523438 1.1015625,0.9609375 z M 7.8855,-4.5824453 c -1.3007813,0 -2.203125,0.9609375 -2.203125,2.3320312 0,1.34765629 0.9257812,2.35546879 2.1796875,2.35546879 1.2539062,0 2.2148435,-1.06640625 2.2148435,-2.43749999 0,-1.3007813 -0.925781,-2.25 -2.191406,-2.25 z m -0.140625,0.28125 c 0.84375,0 1.4296875,0.9492187 1.4296875,2.3203125 0,1.12499999 -0.4453125,1.80468749 -1.1953125,1.80468749 -0.3867188,0 -0.7617188,-0.24609375 -0.9609375,-0.64453125 C 6.7370625,-1.3363516 6.573,-2.0277578 6.573,-2.7426016 c 0,-0.9492187 0.46875,-1.5585937 1.171875,-1.5585937 z m 2.695312,0.4101562 c 0.140625,-0.023437 0.234375,-0.035156 0.351563,-0.035156 0.246094,0 0.339844,0.1640625 0.339844,0.5976562 v 2.49609379 c 0,0.4921875 -0.07031,0.5625 -0.714844,0.6796875 v 0.1523437475 h 2.390625 V -0.15275781 c -0.679688,-0.0234375 -0.84375,-0.17578125 -0.84375,-0.75 V -3.1410391 c 0,-0.3164062 0.433594,-0.8085937 0.703125,-0.8085937 0.05859,0 0.140625,0.046875 0.257812,0.140625 0.152344,0.140625 0.269532,0.1992187 0.398438,0.1992187 0.234375,0 0.386719,-0.1640625 0.386719,-0.4453125 0,-0.328125 -0.210938,-0.5273437 -0.550782,-0.5273437 -0.421875,0 -0.703125,0.234375 -1.195312,0.9375 v -0.9140625 l -0.04687,-0.023437 c -0.527344,0.2226562 -0.890625,0.3515625 -1.476563,0.5390625 z m 7.209961,2.3320313 c -0.46875,0.70312499 -0.832031,0.93749999 -1.40625,0.93749999 -0.902343,0 -1.535156,-0.79687499 -1.535156,-1.93359379 0,-1.03125 0.539063,-1.734375 1.347656,-1.734375 0.363282,0 0.492188,0.1054688 0.585938,0.46875 l 0.07031,0.2226563 c 0.07031,0.28125 0.257813,0.4570312 0.46875,0.4570312 0.257813,0 0.46875,-0.1875 0.46875,-0.4101562 0,-0.5625 -0.691406,-1.03125 -1.535156,-1.03125 -0.480469,0 -0.996094,0.1992187 -1.394531,0.5625 -0.503906,0.4335937 -0.785156,1.1132812 -0.785156,1.8984375 0,1.28906249 0.785156,2.22656249 1.898437,2.22656249 0.445313,0 0.84375,-0.1640625 1.207031,-0.46875 0.269532,-0.24609375 0.457032,-0.515625 0.75,-1.10156249 z m 4.529297,-0.070312 c -0.480468,0.74999999 -0.914062,1.04296874 -1.546875,1.04296874 -0.5625,0 -0.996093,-0.29296875 -1.289062,-0.85546874 -0.175781,-0.3867188 -0.246094,-0.7148438 -0.269531,-1.3125 h 3.070312 c -0.08203,-0.65625 -0.175781,-0.9375 -0.421875,-1.265625 -0.304687,-0.3515625 -0.761719,-0.5625 -1.277344,-0.5625 -0.503906,0 -0.972656,0.1757812 -1.347656,0.515625 -0.46875,0.4101562 -0.738281,1.1132812 -0.738281,1.9335937 0,1.37109379 0.714844,2.23828129 1.863281,2.23828129 0.949219,0 1.699219,-0.59765625 2.109375,-1.66406249 z m -3.082031,-1.453125 c 0.117188,-0.7734375 0.445313,-1.1367188 1.054688,-1.1367188 0.609375,0 0.855468,0.2695313 0.984375,1.1367188 z m 8.90625,4.3828125 h -0.855469 c -0.328125,0 -0.492187,-0.1640625 -0.492187,-0.51562501 V -5.9066641 c 0,-0.3046875 0.128906,-0.4335937 0.457031,-0.4335937 h 0.890625 v -0.2578125 h -2.097656 v 8.15625 h 2.097656 z M 34.437258,0.10505469 V -5.1332266 c 0,-0.5976562 0.105469,-0.9609375 0.292969,-1.0898437 0.140625,-0.1054688 0.28125,-0.140625 0.65625,-0.1875 v -0.1875 h -2.34375 v 0.1875 c 0.386718,0.035156 0.515625,0.070312 0.667968,0.1640625 0.199219,0.140625 0.292969,0.5039062 0.292969,1.1132812 v 3.3632813 l -3.832031,-4.828125 h -1.710938 v 0.1875 c 0.433594,0 0.574219,0.082031 0.972657,0.5507812 v 4.3945313 c 0,1.03124999 -0.140625,1.21874999 -0.972657,1.27734374 v 0.1874999975 h 2.34375 V -0.18791406 c -0.761718,-0.046875 -0.9375,-0.26953125 -0.9375,-1.27734374 v -3.9023438 l 4.40625,5.47265629 z m 1.438476,1.19531251 v 0.2578125 h 2.097657 v -8.15625 h -2.097657 v 0.2578125 h 0.855469 c 0.328125,0 0.492188,0.1640625 0.492188,0.515625 v 6.69140624 c 0,0.30468746 -0.140625,0.43359376 -0.457032,0.43359376 z m 0,0"
       style="fill:#000000;fill-opacity:1;fill-rule:nonzero;stroke:none"
       aria-label="Force[N]"
       transform="matrix(0,-1.3333333,1.3333333,0,13.301333,133.764)" />
    <path
       id="path39"
       d="m 0,0 h 8.50412 8.50414"
       style="fill:none;stroke:#000000;stroke-width:1.59404;stroke-linecap:butt;stroke-linejoin:bevel;stroke-miterlimit:10;stroke-dasharray:none;stroke-opacity:1"
       transform="matrix(1.3333333,0,0,-1.3333333,235.792,15.222667)" />
    <path
       id="path40"
       d="M 4.217375,-3.4799531 V -3.8315156 H 3.5259688 c -0.1875,0 -0.3164063,-0.023437 -0.4921875,-0.082031 l -0.1992188,-0.070312 c -0.2460937,-0.09375 -0.4921875,-0.140625 -0.7148437,-0.140625 -0.84375,0 -1.50000005,0.6445313 -1.50000005,1.4648438 0,0.5625 0.234375,0.9023437 0.83203125,1.1953125 -0.1757812,0.1640625 -0.328125,0.3164062 -0.3867187,0.3632812 -0.2929688,0.25781253 -0.4101563,0.43359378 -0.4101563,0.62109378 0,0.1875 0.10546875,0.29296875 0.46875,0.46875 -0.6328125,0.46875 -0.87890625,0.76171875 -0.87890625,1.10156252 0,0.46875 0.703125,0.8671875 1.55859375,0.8671875 0.6679688,0 1.3710938,-0.234375 1.8398438,-0.609375 C 3.983,1.0669219 4.1353438,0.78567188 4.1353438,0.43410938 c 0,-0.55078125 -0.421875,-0.92578125 -1.0898438,-0.94921875 l -1.1601562,-0.0585938 c -0.46875,-0.0117188 -0.6914063,-0.09375 -0.6914063,-0.24609375 0,-0.17578125 0.2929688,-0.49218748 0.5390625,-0.56250008 0.082031,0.011719 0.140625,0.023437 0.1640625,0.023437 0.1757813,0.011719 0.2929688,0.023437 0.3398438,0.023437 0.3398437,0 0.6914062,-0.1289062 0.9726562,-0.375 0.2929688,-0.2578125 0.4335938,-0.5625 0.4335938,-1.0195312 0,-0.2578125 -0.046875,-0.4570313 -0.1757813,-0.75 z m -2.90625,3.50390623 c 0.3046875,0.05859375 1.0195313,0.10546875 1.453125,0.10546875 0.8203125,0 1.1132813,0.1171875 1.1132813,0.4453125 0,0.51562502 -0.6796875,0.86718752 -1.6875,0.86718752 -0.796875,0 -1.31250005,-0.2578125 -1.31250005,-0.65625002 0,-0.19921875 0.0585938,-0.31640625 0.43359375,-0.76171875 z M 1.358,-3.0346406 c 0,-0.5273438 0.2578125,-0.8320313 0.6679688,-0.8320313 0.28125,0 0.5039062,0.1523438 0.65625,0.4101563 0.1640625,0.3164062 0.2695312,0.7265625 0.2695312,1.078125 0,0.5039062 -0.2695312,0.8203125 -0.6796875,0.8203125 C 1.733,-1.5580781 1.358,-2.1440156 1.358,-2.9994844 Z m 6.6884766,1.640625 c -0.421875,0.62109373 -0.75,0.84374998 -1.2539063,0.84374998 -0.8203125,0 -1.3945312,-0.72656248 -1.3945312,-1.75781248 0,-0.9140625 0.4921875,-1.5585938 1.21875,-1.5585938 0.328125,0 0.4453125,0.1054688 0.5273437,0.4335938 l 0.058594,0.1992187 c 0.070312,0.2460938 0.234375,0.4101563 0.421875,0.4101563 0.234375,0 0.421875,-0.1757813 0.421875,-0.375 0,-0.5039063 -0.6210938,-0.9257813 -1.3710938,-0.9257813 -0.4453125,0 -0.9023437,0.1757813 -1.265625,0.5039063 -0.4453125,0.3984375 -0.703125,1.0078125 -0.703125,1.7109375 0,1.17187498 0.7148438,2.00390623 1.6992188,2.00390623 0.4101562,0 0.7617187,-0.15234375 1.0898437,-0.421875 0.2460938,-0.22265625 0.4101563,-0.45703125 0.6796875,-0.98437503 z m 0.477539,-2.0976563 c 0.1289063,-0.035156 0.2109375,-0.035156 0.3164063,-0.035156 0.2226562,0 0.3046875,0.140625 0.3046875,0.5273437 v 2.25000003 c 0,0.4453125 -0.058594,0.50390625 -0.6328125,0.62109375 V 5.15625e-4 H 10.656828 V -0.12839062 c -0.609375,-0.0351563 -0.7617186,-0.1640625 -0.7617186,-0.6796875 V -2.8237031 c 0,-0.28125 0.3867186,-0.7382813 0.6328126,-0.7382813 0.05859,0 0.128906,0.046875 0.234375,0.140625 0.140625,0.1171875 0.234375,0.1757813 0.351562,0.1757813 0.222657,0 0.351563,-0.1523438 0.351563,-0.3984375 0,-0.3046875 -0.1875,-0.4804688 -0.492188,-0.4804688 -0.375,0 -0.632812,0.2109375 -1.0781246,0.84375 v -0.8203125 l -0.035156,-0.023437 c -0.4804687,0.1992188 -0.8085937,0.3164063 -1.3359375,0.4804688 z m 6.8876954,2.90625003 c -0.152344,0.1171875 -0.257813,0.1640625 -0.398438,0.1640625 -0.199218,0 -0.257812,-0.12890625 -0.257812,-0.515625 V -2.6830781 c 0,-0.46875 -0.04687,-0.7265625 -0.1875,-0.9492188 -0.199219,-0.3164062 -0.585938,-0.4921875 -1.113281,-0.4921875 -0.84375,0 -1.5,0.4453125 -1.5,1.0078125 0,0.1992188 0.175781,0.3867188 0.386718,0.3867188 0.210938,0 0.398438,-0.1875 0.398438,-0.375 0,-0.046875 -0.01172,-0.082031 -0.01172,-0.1523438 -0.02344,-0.082031 -0.03516,-0.1523437 -0.03516,-0.2109375 0,-0.2460937 0.292969,-0.4453125 0.644531,-0.4453125 0.445313,0 0.691406,0.2695313 0.691406,0.75 v 0.5507813 c -1.382812,0.5507812 -1.535156,0.6210937 -1.921875,0.9609375 -0.199218,0.1875 -0.328125,0.4921875 -0.328125,0.78515623 0,0.5625 0.398438,0.9609375 0.949219,0.9609375 0.386719,0 0.761719,-0.1875 1.300781,-0.65625 0.04687,0.46875 0.210938,0.65625 0.574219,0.65625 0.304688,0 0.492188,-0.1171875 0.808594,-0.45703125 z M 14.028898,-1.1010469 c 0,0.28125003 -0.04687,0.36328128 -0.234375,0.46875003 -0.222656,0.1171875 -0.46875,0.19921875 -0.65625,0.19921875 -0.316406,0 -0.5625,-0.3046875 -0.5625,-0.69140628 v -0.035156 c 0,-0.5273438 0.363282,-0.84375 1.453125,-1.2421875 z m 4.965821,-0.2929687 c -0.421875,0.62109373 -0.75,0.84374998 -1.253906,0.84374998 -0.820313,0 -1.394532,-0.72656248 -1.394532,-1.75781248 0,-0.9140625 0.492188,-1.5585938 1.21875,-1.5585938 0.328125,0 0.445313,0.1054688 0.527344,0.4335938 l 0.05859,0.1992187 c 0.07031,0.2460938 0.234375,0.4101563 0.421875,0.4101563 0.234375,0 0.421875,-0.1757813 0.421875,-0.375 0,-0.5039063 -0.621094,-0.9257813 -1.371094,-0.9257813 -0.445312,0 -0.902344,0.1757813 -1.265625,0.5039063 -0.445312,0.3984375 -0.703125,1.0078125 -0.703125,1.7109375 0,1.17187498 0.714844,2.00390623 1.699219,2.00390623 0.410156,0 0.761719,-0.15234375 1.089844,-0.421875 0.246093,-0.22265625 0.410156,-0.45703125 0.679687,-0.98437503 z m 0.477539,-4.1953125 c 0.117187,0 0.199219,-0.011719 0.292969,-0.011719 0.292968,0 0.386718,0.1171875 0.386718,0.5507813 v 4.31249998 c 0,0.46875 -0.03516,0.4921875 -0.679687,0.609375 V 5.15625e-4 h 2.097656 V -0.12839062 l -0.175781,-0.0117188 c -0.363281,-0.0234375 -0.492188,-0.140625 -0.492188,-0.45703125 V -2.2494844 l 1.253907,1.67578128 0.02344,0.0351563 c 0.02344,0.0234375 0.03516,0.0585938 0.07031,0.0820313 0.07031,0.09375 0.09375,0.140625 0.09375,0.1875 0,0.0820313 -0.08203,0.140625 -0.1875,0.140625 H 21.991789 V 5.15625e-4 h 1.945313 V -0.12839062 c -0.386719,-0.0351563 -0.667969,-0.19921875 -1.042969,-0.65625 l -1.371094,-1.74609378 0.257813,-0.234375 c 0.632812,-0.5976562 1.195312,-1.0078125 1.453125,-1.078125 0.128906,-0.035156 0.257812,-0.058594 0.410156,-0.058594 h 0.07031 v -0.128906 H 21.88632 v 0.1171875 c 0.351563,0.011719 0.445313,0.046875 0.445313,0.1757813 0,0.070312 -0.07031,0.1992187 -0.199219,0.3046875 l -1.230469,1.0898437 v -3.7617187 l -0.03516,-0.011719 c -0.339844,0.1054688 -0.597656,0.1757813 -1.125,0.3164063 l -0.269531,0.070312 z m 0,0"
       style="fill:#000000;fill-opacity:1;fill-rule:nonzero;stroke:none"
       aria-label="gcrack"
       transform="matrix(1.3333333,0,0,1.3333333,262.18933,18.304)" />
    <path
       id="path41"
       d="m 0,0 h 8.50412 8.50414"
       style="fill:none;stroke:#e41a1c;stroke-width:0.79701;stroke-linecap:butt;stroke-linejoin:bevel;stroke-miterlimit:10;stroke-dasharray:none;stroke-opacity:1"
       transform="matrix(1.3333333,0,0,-1.3333333,235.792,30.682667)" />
    <path
       id="path42"
       d="m 6.51157,-1.99255 h 3.9851 v 3.9851 h -3.9851 z"
       style="fill:none;stroke:#e41a1c;stroke-width:0.79701;stroke-linecap:butt;stroke-linejoin:bevel;stroke-miterlimit:10;stroke-dasharray:none;stroke-opacity:1"
       transform="matrix(1.3333333,0,0,-1.3333333,235.792,30.682667)" />
    <path
       id="path43"
       d="M 2.76425,-4.0319609 H 1.6626875 v -1.0429688 c 0,-0.515625 0.1757813,-0.796875 0.515625,-0.796875 0.1875,0 0.3164063,0.09375 0.46875,0.3515625 0.1523438,0.234375 0.2578125,0.3164063 0.4101563,0.3164063 0.1992187,0 0.375,-0.1523438 0.375,-0.3632813 0,-0.328125 -0.3984375,-0.5507812 -0.9375,-0.5507812 -0.5507813,0 -1.03125,0.234375 -1.2539063,0.6445312 -0.234375,0.3984375 -0.3046875,0.7265625 -0.31640625,1.4414063 H 0.186125 v 0.28125 h 0.73828125 v 2.81249996 c 0,0.65625 -0.10546875,0.76171875 -0.75,0.80859375 V -7.109375e-4 H 2.5064375 V -0.12961719 C 1.7681563,-0.16477344 1.6744063,-0.25852344 1.6744063,-0.93821094 V -3.7507109 H 2.76425 Z m 0.28125,0.5390625 c 0.1289063,-0.035156 0.2109375,-0.035156 0.3164063,-0.035156 0.2226562,0 0.3046875,0.140625 0.3046875,0.5273438 v 2.24999996 c 0,0.4453125 -0.058594,0.50390625 -0.6328125,0.62109375 V -7.109375e-4 H 5.1783125 V -0.12961719 c -0.609375,-0.0351563 -0.7617187,-0.1640625 -0.7617187,-0.6796875 V -2.8249297 c 0,-0.28125 0.3867187,-0.7382812 0.6328125,-0.7382812 0.058594,0 0.1289062,0.046875 0.234375,0.140625 0.140625,0.1171875 0.234375,0.1757812 0.3515625,0.1757812 0.2226562,0 0.3515625,-0.1523437 0.3515625,-0.3984375 0,-0.3046875 -0.1875,-0.4804687 -0.4921875,-0.4804687 -0.375,0 -0.6328125,0.2109375 -1.078125,0.84375 v -0.8203125 l -0.035156,-0.023437 C 3.9009688,-3.9264922 3.5728438,-3.8093047 3.0455,-3.6452422 Z m 6.8876953,2.90624996 c -0.1523437,0.1171875 -0.2578125,0.1640625 -0.3984375,0.1640625 -0.1992187,0 -0.2578125,-0.12890625 -0.2578125,-0.515625 V -2.6843047 c 0,-0.46875 -0.046875,-0.7265625 -0.1875,-0.9492187 -0.1992187,-0.3164063 -0.5859375,-0.4921875 -1.1132812,-0.4921875 -0.84375,0 -1.5,0.4453125 -1.5,1.0078125 0,0.1992187 0.1757812,0.3867187 0.3867187,0.3867187 0.2109375,0 0.3984375,-0.1875 0.3984375,-0.375 0,-0.046875 -0.011719,-0.082031 -0.011719,-0.1523437 -0.023437,-0.082031 -0.035156,-0.1523438 -0.035156,-0.2109375 0,-0.2460938 0.2929688,-0.4453125 0.6445313,-0.4453125 0.4453125,0 0.6914062,0.2695312 0.6914062,0.75 v 0.5507812 c -1.3828125,0.5507813 -1.5351562,0.6210938 -1.921875,0.9609375 -0.1992187,0.1875 -0.328125,0.4921875 -0.328125,0.78515626 0,0.5625 0.3984375,0.9609375 0.9492188,0.9609375 0.3867187,0 0.7617187,-0.1875 1.3007812,-0.65625 0.046875,0.46875 0.2109375,0.65625 0.5742188,0.65625 0.3046875,0 0.4921875,-0.1171875 0.8085937,-0.45703125 z M 8.5503828,-1.1022734 c 0,0.28124996 -0.046875,0.36328121 -0.234375,0.46874996 -0.2226562,0.1171875 -0.46875,0.19921875 -0.65625,0.19921875 -0.3164062,0 -0.5625,-0.3046875 -0.5625,-0.69140621 v -0.035156 c 0,-0.5273437 0.3632813,-0.84375 1.453125,-1.2421875 z m 5.6220702,-2.3789063 v -0.3515625 h -0.691406 c -0.1875,0 -0.316406,-0.023437 -0.492188,-0.082031 l -0.199218,-0.070312 c -0.246094,-0.09375 -0.492188,-0.140625 -0.714844,-0.140625 -0.84375,0 -1.5,0.6445312 -1.5,1.4648437 0,0.5625 0.234375,0.9023438 0.832031,1.1953125 -0.175781,0.1640625 -0.328125,0.3164063 -0.386719,0.3632813 -0.292968,0.25781246 -0.410156,0.43359371 -0.410156,0.62109371 0,0.1875 0.105469,0.29296875 0.46875,0.46875 -0.632812,0.46875 -0.878906,0.76171875 -0.878906,1.10156249 0,0.46875 0.703125,0.8671875 1.558594,0.8671875 0.667968,0 1.371093,-0.234375 1.839843,-0.609375 0.339844,-0.28125 0.492188,-0.56249999 0.492188,-0.91406249 0,-0.55078125 -0.421875,-0.92578125 -1.089844,-0.94921875 l -1.160156,-0.0585938 c -0.46875,-0.0117188 -0.691406,-0.09375 -0.691406,-0.24609375 0,-0.17578125 0.292968,-0.49218741 0.539062,-0.56249991 0.08203,0.011719 0.140625,0.023437 0.164063,0.023437 0.175781,0.011719 0.292968,0.023437 0.339843,0.023437 0.339844,0 0.691407,-0.1289062 0.972657,-0.375 0.292968,-0.2578125 0.433593,-0.5625 0.433593,-1.0195312 0,-0.2578125 -0.04687,-0.4570312 -0.175781,-0.75 z m -2.90625,3.50390626 c 0.304688,0.05859375 1.019531,0.10546875 1.453125,0.10546875 0.820313,0 1.113281,0.1171875 1.113281,0.4453125 0,0.51562499 -0.679687,0.86718749 -1.6875,0.86718749 -0.796875,0 -1.3125,-0.2578125 -1.3125,-0.65624999 0,-0.19921875 0.05859,-0.31640625 0.433594,-0.76171875 z m 0.04687,-3.05859376 c 0,-0.5273437 0.257813,-0.8320312 0.667969,-0.8320312 0.28125,0 0.503906,0.1523437 0.65625,0.4101562 0.164062,0.3164063 0.269531,0.7265625 0.269531,1.078125 0,0.5039063 -0.269531,0.8203125 -0.679687,0.8203125 -0.539063,0 -0.914063,-0.5859375 -0.914063,-1.4414062 z m 3.298828,-0.5273437 c 0.105469,-0.035156 0.1875,-0.046875 0.28125,-0.046875 0.234375,0 0.316407,0.1523437 0.316407,0.5742187 v 2.27343751 c 0,0.48046875 -0.128907,0.62109375 -0.632813,0.6328125 v 0.1289062525 h 1.992188 V -0.12961719 c -0.46875,-0.0234375 -0.609375,-0.1171875 -0.609375,-0.46875 V -3.1296172 c 0,-0.023437 0.07031,-0.1054687 0.140625,-0.1757812 0.222656,-0.1992188 0.609375,-0.3515625 0.914062,-0.3515625 0.398438,0 0.597656,0.3164062 0.597656,0.9375 v 1.94531246 c 0,0.50390625 -0.105468,0.59765625 -0.609375,0.64453125 v 0.1289062525 h 2.003907 V -0.12961719 c -0.503907,-0.0117188 -0.644532,-0.1640625 -0.644532,-0.7265625 V -3.1061797 c 0.269532,-0.3867187 0.5625,-0.5507812 0.972657,-0.5507812 0.515625,0 0.679687,0.2460937 0.679687,0.984375 v 1.88671871 c 0,0.515625 -0.07031,0.5859375 -0.597656,0.65625 v 0.1289062525 h 1.96875 V -0.12961719 l -0.234375,-0.0234375 C 20.881438,-0.17649219 20.76425,-0.32883594 20.76425,-0.68039844 V -2.5319609 c 0,-1.0546875 -0.351562,-1.59375 -1.042969,-1.59375 -0.515625,0 -0.972656,0.234375 -1.453125,0.75 -0.164062,-0.5039063 -0.46875,-0.75 -0.949218,-0.75 -0.398438,0 -0.65625,0.1289062 -1.394532,0.6914062 v -0.6679687 l -0.05859,-0.023437 c -0.457032,0.1757812 -0.761719,0.2695312 -1.253907,0.4101562 z m 10.760742,2.97656246 c -0.152343,0.1171875 -0.257812,0.1640625 -0.398437,0.1640625 -0.199219,0 -0.257813,-0.12890625 -0.257813,-0.515625 V -2.6843047 c 0,-0.46875 -0.04687,-0.7265625 -0.1875,-0.9492187 -0.199218,-0.3164063 -0.585937,-0.4921875 -1.113281,-0.4921875 -0.84375,0 -1.5,0.4453125 -1.5,1.0078125 0,0.1992187 0.175781,0.3867187 0.386719,0.3867187 0.210937,0 0.398437,-0.1875 0.398437,-0.375 0,-0.046875 -0.01172,-0.082031 -0.01172,-0.1523437 -0.02344,-0.082031 -0.03516,-0.1523438 -0.03516,-0.2109375 0,-0.2460938 0.292969,-0.4453125 0.644532,-0.4453125 0.445312,0 0.691406,0.2695312 0.691406,0.75 v 0.5507812 c -1.382813,0.5507813 -1.535156,0.6210938 -1.921875,0.9609375 -0.199219,0.1875 -0.328125,0.4921875 -0.328125,0.78515626 0,0.5625 0.398437,0.9609375 0.949219,0.9609375 0.386718,0 0.761718,-0.1875 1.300781,-0.65625 0.04687,0.46875 0.210937,0.65625 0.574219,0.65625 0.304687,0 0.492187,-0.1171875 0.808593,-0.45703125 z M 23.989836,-1.1022734 c 0,0.28124996 -0.04687,0.36328121 -0.234375,0.46874996 -0.222656,0.1171875 -0.46875,0.19921875 -0.65625,0.19921875 -0.316406,0 -0.5625,-0.3046875 -0.5625,-0.69140621 v -0.035156 c 0,-0.5273437 0.363281,-0.84375 1.453125,-1.2421875 z m 0,0"
       style="fill:#000000;fill-opacity:1;fill-rule:nonzero;stroke:none"
       aria-label="fragma"
       transform="matrix(1.3333333,0,0,1.3333333,262.18933,33.762667)" />
    <path
       id="path44"
       d="M 88.80632,31.68234 H 188.99203 V 132.72876 H 88.80632 Z"
       style="fill:#ffffff;fill-opacity:1;fill-rule:nonzero;stroke:none"
       transform="matrix(1.3333333,0,0,-1.3333333,49.112,215.45733)" />
    <g
       id="g78">
      <path
         d="M 0,56.69359 H 56.69359"
         style="fill:none;stroke:#000000;stroke-width:1.59404;stroke-linecap:butt;stroke-linejoin:miter;stroke-miterlimit:10;stroke-dasharray:none;stroke-opacity:1"
         transform="matrix(1.0885333,0,0,-1.0885333,172.81289,168.35368)"
         id="path48" />
      <path
         d="M 77.95367,56.69359 H 92.12708"
         style="fill:none;stroke:#000000;stroke-width:1.59404;stroke-linecap:butt;stroke-linejoin:miter;stroke-miterlimit:10;stroke-dasharray:none;stroke-opacity:1"
         transform="matrix(1.0885333,0,0,-1.0885333,172.81289,168.35368)"
         id="path49" />
      <path
         d="M 4.66248,62.36331 H 52.0311"
         style="fill:none;stroke:#000000;stroke-width:0.79701;stroke-linecap:butt;stroke-linejoin:miter;stroke-miterlimit:10;stroke-dasharray:none;stroke-opacity:1"
         transform="matrix(1.0885333,0,0,-1.0885333,172.81289,168.35368)"
         id="path50" />
      <path
         d="M 4.66248,0 C 3.28098,0.25902 1.0361,1.0361 -0.51805,1.94269 V -1.94269 C 1.0361,-1.0361 3.28098,-0.25902 4.66248,0"
         style="fill:#000000;fill-opacity:1;fill-rule:nonzero;stroke:none"
         transform="matrix(-1.0885333,0,0,1.0885333,177.88816,100.46913)"
         id="path51" />
      <path
         d="M 4.66248,0 C 3.28098,0.25902 1.0361,1.0361 -0.51805,1.94269 V -1.94269 C 1.0361,-1.0361 3.28098,-0.25902 4.66248,0"
         style="fill:#000000;fill-opacity:1;fill-rule:nonzero;stroke:none"
         transform="matrix(1.0885333,0,0,-1.0885333,229.45048,100.46913)"
         id="path52" />
      <g
         aria-label="a&#10;0"
         transform="matrix(1.0885333,0,0,1.0885333,198.6808,94.659969)"
         clip-path="url(#clipPath45)"
         id="g54">
        <path
           d="m 4.6210224,-1.090745 c -0.1435417,0.14354178 -0.2153126,0.20095848 -0.2727293,0.27272937 -0.3014377,0.31579189 -0.4306253,0.41627113 -0.5311046,0.41627113 -0.071771,0 -0.1291876,-0.0717709 -0.1291876,-0.1291876 0,-0.20095847 0.4162712,-1.9091055 0.889959,-3.6172526 0.028708,-0.1004792 0.028708,-0.1291876 0.057417,-0.2153126 l -0.071771,-0.028708 -0.6028754,0.071771 -0.043063,0.028708 -0.1004793,0.4736878 C 3.7310635,-4.176893 3.4439799,-4.3922057 3.0133546,-4.3922057 c -1.3062301,0 -2.84212698,1.8229805 -2.84212698,3.40193994 0,0.68900049 0.37320859,1.10527162 1.01914658,1.10527162 0.6890005,0 1.1196258,-0.33014606 1.9952306,-1.56460526 -0.2009585,0.77512554 -0.2296669,0.90431313 -0.2296669,1.13397996 0,0.30143771 0.1148334,0.41627113 0.401917,0.41627113 0.4019169,0 0.6459379,-0.1866043 1.378001,-1.09091745 z M 3.0707713,-4.176893 c 0.3445003,0.028708 0.5598129,0.2583752 0.5598129,0.6172296 0,0.8325422 -0.488042,2.0095847 -1.1770425,2.74164777 -0.244021,0.27272936 -0.5885212,0.44497948 -0.8756048,0.44497948 -0.3445002,0 -0.574167,-0.28708354 -0.574167,-0.74641715 0,-0.5454588 0.3732086,-1.5646053 0.8038339,-2.1818349 0.4019169,-0.5885213 0.8756048,-0.9043132 1.2631675,-0.8756048 z m 0,0"
           style="fill:#000000;fill-opacity:1;fill-rule:nonzero;stroke:none"
           id="path53" />
        <path
           d="m 6.860274,-3.4771269 c -0.4162711,0 -0.7177088,0.1148334 -0.9904382,0.3732086 -0.4306253,0.4162711 -0.7177088,1.2631676 -0.7177088,2.12441818 0,0.8038339 0.244021,1.66508451 0.5885212,2.08135562 0.2727294,0.3301461 0.6602922,0.5023962 1.0909175,0.5023962 0.3732086,0 0.6890005,-0.1291876 0.9473757,-0.3875628 0.4306253,-0.40191691 0.7177088,-1.24881335 0.7177088,-2.15312649 0,-1.50718861 -0.6746463,-2.54068931 -1.6363762,-2.54068931 z m -0.028708,0.1866043 c 0.6172296,0 0.9473757,0.8325423 0.9473757,2.36843919 0,1.5502511 -0.3157919,2.33973081 -0.9473757,2.33973081 -0.645938,0 -0.9617299,-0.78947971 -0.9617299,-2.32537664 0,-1.56460526 0.3301461,-2.38279336 0.9617299,-2.38279336 z m 0,0"
           style="fill:#000000;fill-opacity:1;fill-rule:nonzero;stroke:none"
           id="path54" />
      </g>
      <path
         d="M 82.61615,62.36331 H 87.4646"
         style="fill:none;stroke:#000000;stroke-width:0.79701;stroke-linecap:butt;stroke-linejoin:miter;stroke-miterlimit:10;stroke-dasharray:none;stroke-opacity:1"
         transform="matrix(1.0885333,0,0,-1.0885333,172.81289,168.35368)"
         id="path55" />
      <path
         d="M 4.66248,0 C 3.28098,0.25902 1.0361,1.0361 -0.51805,1.94269 V -1.94269 C 1.0361,-1.0361 3.28098,-0.25902 4.66248,0"
         style="fill:#000000;fill-opacity:1;fill-rule:nonzero;stroke:none"
         transform="matrix(-1.0885333,0,0,1.0885333,262.74333,100.46913)"
         id="path56" />
      <path
         d="M 4.66248,0 C 3.28098,0.25902 1.0361,1.0361 -0.51805,1.94269 V -1.94269 C 1.0361,-1.0361 3.28098,-0.25902 4.66248,0"
         style="fill:#000000;fill-opacity:1;fill-rule:nonzero;stroke:none"
         transform="matrix(1.0885333,0,0,-1.0885333,268.02103,100.46913)"
         id="path57" />
      <g
         aria-label="a&#10;1"
         transform="matrix(1.0885333,0,0,1.0885333,260.39193,94.784061)"
         clip-path="url(#clipPath46)"
         id="g59">
        <path
           d="m 4.620844,-1.0899116 c -0.1435418,0.14354179 -0.2153126,0.2009585 -0.2727294,0.27272938 -0.3014377,0.31579189 -0.4306253,0.41627113 -0.5311045,0.41627113 -0.071771,0 -0.1291876,-0.0717709 -0.1291876,-0.12918759 0,-0.20095848 0.4162711,-1.90910552 0.889959,-3.61725262 0.028708,-0.1004792 0.028708,-0.1291875 0.057417,-0.2153126 l -0.071771,-0.028708 -0.6028754,0.071771 -0.043063,0.028708 -0.1004792,0.4736878 C 3.730885,-4.1760596 3.4438015,-4.3913723 3.0131762,-4.3913723 c -1.3062301,0 -2.84212702,1.8229805 -2.84212702,3.40193996 0,0.68900049 0.3732086,1.10527162 1.01914652,1.10527162 0.6890005,0 1.1196258,-0.33014607 1.9952306,-1.56460528 -0.2009585,0.77512555 -0.2296668,0.90431314 -0.2296668,1.13397997 0,0.30143772 0.1148334,0.41627113 0.4019169,0.41627113 0.401917,0 0.645938,-0.1866043 1.378001,-1.09091744 z m -1.5502511,-3.086148 c 0.3445003,0.028708 0.5598129,0.2583752 0.5598129,0.6172296 0,0.8325423 -0.488042,2.0095848 -1.1770425,2.74164778 -0.244021,0.27272936 -0.5885212,0.44497949 -0.8756048,0.44497949 -0.3445002,0 -0.5741671,-0.28708354 -0.5741671,-0.74641717 0,-0.5454588 0.3732086,-1.5646053 0.8038339,-2.1818349 0.401917,-0.5885213 0.8756048,-0.9043132 1.2631676,-0.8756048 z m 0,0"
           style="fill:#000000;fill-opacity:1;fill-rule:nonzero;stroke:none"
           id="path58" />
        <path
           d="m 7.1364135,-3.4762935 -1.3349384,0.6602922 v 0.1148334 c 0.086125,-0.043063 0.1722501,-0.071771 0.2009584,-0.086125 0.1291876,-0.057417 0.2583752,-0.086125 0.3301461,-0.086125 0.1578959,0 0.2153127,0.1148335 0.2153127,0.3445003 v 3.3445232 c 0,0.244021 -0.057417,0.4162711 -0.1722502,0.488042 -0.1148334,0.057417 -0.2153126,0.086125 -0.5167503,0.086125 V 1.5046059 H 7.8971849 V 1.3897725 c -0.5885213,0 -0.7033547,-0.071771 -0.7033547,-0.43062533 V -3.4619393 Z m 0,0"
           style="fill:#000000;fill-opacity:1;fill-rule:nonzero;stroke:none"
           id="path59" />
      </g>
      <path
         d="M 4.66248,51.02385 H 108.72476"
         style="fill:none;stroke:#000000;stroke-width:0.79701;stroke-linecap:butt;stroke-linejoin:miter;stroke-miterlimit:10;stroke-dasharray:none;stroke-opacity:1"
         transform="matrix(1.0885333,0,0,-1.0885333,172.81289,168.35368)"
         id="path60" />
      <path
         d="M 4.66248,0 C 3.28098,0.25902 1.0361,1.0361 -0.51805,1.94269 V -1.94269 C 1.0361,-1.0361 3.28098,-0.25902 4.66248,0"
         style="fill:#000000;fill-opacity:1;fill-rule:nonzero;stroke:none"
         transform="matrix(-1.0885333,0,0,1.0885333,177.88816,112.81251)"
         id="path61" />
      <path
         d="M 4.66248,0 C 3.28098,0.25902 1.0361,1.0361 -0.51805,1.94269 V -1.94269 C 1.0361,-1.0361 3.28098,-0.25902 4.66248,0"
         style="fill:#000000;fill-opacity:1;fill-rule:nonzero;stroke:none"
         transform="matrix(1.0885333,0,0,-1.0885333,291.16342,112.81251)"
         id="path62" />
      <path
         d="M 4.0179185,-6.5030162 H 1.2906248 v 0.1578959 c 0.6172297,0.057417 0.7751256,0.1435418 0.7751256,0.4306254 0,0.1291875 -0.043063,0.3588544 -0.1148334,0.6172296 l -1.22010505,4.40673226 c -0.1866043,0.57416707 -0.25837518,0.63158378 -0.81818808,0.73206302 V -5.7407521e-4 H 4.9940025 L 5.5681696,-1.780492 5.3672111,-1.8379087 C 5.0227108,-1.1201999 4.7499815,-0.80440798 4.3193562,-0.58909533 3.9605017,-0.4168452 3.5585848,-0.3594285 2.68298,-0.3594285 c -0.7464172,0 -1.0047924,-0.0861251 -1.0047924,-0.34450024 0,-0.0574167 0.057417,-0.30143776 0.1004793,-0.48804206 L 3.0131261,-5.6130572 C 3.1566678,-6.1154534 3.415043,-6.3020577 4.0179185,-6.3451203 Z m 0,0"
         style="fill:#000000;fill-opacity:1;fill-rule:nonzero;stroke:none"
         aria-label="L"
         transform="matrix(1.0885333,0,0,1.0885333,231.49355,123.89906)"
         id="path63" />
      <path
         d="m 28.34676,85.0404 v 18.01462"
         style="fill:none;stroke:#808080;stroke-width:0.79701;stroke-linecap:butt;stroke-linejoin:miter;stroke-miterlimit:10;stroke-dasharray:none;stroke-opacity:1"
         transform="matrix(1.0885333,0,0,-1.0885333,172.81289,168.35368)"
         id="path64" />
      <path
         d="M 4.66248,0 C 3.28098,0.25902 1.0361,1.0361 -0.51805,1.94269 V -1.94269 C 1.0361,-1.0361 3.28098,-0.25902 4.66248,0"
         style="fill:#808080;fill-opacity:1;fill-rule:nonzero;stroke:none"
         transform="matrix(0,-1.0885333,-1.0885333,0,203.66929,56.174851)"
         id="path65" />
      <g
         aria-label="F,u"
         transform="matrix(1.0885333,0,0,1.0885333,207.71672,53.568924)"
         clip-path="url(#clipPath47)"
         id="g68">
        <path
           d="M 6.4289515,-6.5011663 H 1.4624063 v 0.1578959 c 0.645938,0.057417 0.7607714,0.1148335 0.7607714,0.401917 0,0.1578959 -0.028708,0.4019169 -0.1004793,0.6459379 L 0.88823924,-0.88868315 C 0.71598911,-0.3001619 0.64421823,-0.24274519 0.08440533,-0.15662013 V 0.00127581 H 2.5820321 V -0.15662013 C 2.007865,-0.18532848 1.8356149,-0.3001619 1.8356149,-0.60159961 c 0,-0.0717709 0.028708,-0.22966683 0.086125,-0.44497949 l 0.6172296,-2.2248974 c 0.3732086,0.028708 0.5885212,0.028708 0.8038339,0.028708 0.3875628,0 0.4593336,0.014354 0.5454587,0.057417 0.1578959,0.071771 0.2296668,0.2009585 0.2296668,0.401917 0,0.1578959 -0.028708,0.2870835 -0.086125,0.5885213 l 0.1722501,0.057417 0.7607714,-2.3397309 -0.1866043,-0.043062 c -0.4449795,0.889959 -0.4736879,0.9043131 -2.1531266,0.9186673 l 0.6602922,-2.3110225 c 0.057417,-0.2009584 0.2009585,-0.2583751 0.6028754,-0.2583751 1.6794387,0 2.0382931,0.1291876 2.0382931,0.7464172 0,0.057417 0,0.1004792 -0.014354,0.2296668 0,0.071771 0,0.071771 -0.014354,0.2009585 l 0.2009584,0.014354 z m 0,0"
           style="fill:#808080;fill-opacity:1;fill-rule:nonzero;stroke:none"
           id="path66" />
        <path
           d="m 7.6024055,-0.01307836 c 0,-0.64593796 -0.244021,-1.04785494 -0.645938,-1.04785494 -0.3157919,0 -0.5167504,0.25837521 -0.5167504,0.53110457 0,0.27272936 0.2009585,0.53110454 0.5167504,0.53110454 0.1291876,0 0.2583752,-0.04306253 0.3588544,-0.12918759 0.028708,-0.0143542 0.043063,-0.0287083 0.043063,-0.0287083 0.014354,0 0.028708,0.0143542 0.028708,0.14354177 0,0.7464172 -0.3588544,1.33493851 -0.6890005,1.66508461 -0.1004792,0.1148334 -0.1004792,0.1291875 -0.1004792,0.1578958 0,0.071771 0.043062,0.1148334 0.1004792,0.1148334 0.1004793,0 0.9043132,-0.7607714 0.9043131,-1.93781386 z m 0,0"
           style="fill:#808080;fill-opacity:1;fill-rule:nonzero;stroke:none"
           id="path67" />
        <path
           d="m 14.040254,-1.1614125 c -0.516751,0.64593795 -0.674647,0.78947972 -0.832542,0.78947972 -0.07177,0 -0.10048,-0.0717709 -0.10048,-0.17225013 0,-0.0574167 0,-0.0574167 0.186605,-0.77512559 l 0.789479,-2.9856687 h -0.746417 c -0.559813,1.5502511 -0.631584,1.708147 -1.090917,2.44021 -0.602876,0.93302152 -1.090918,1.44977189 -1.40671,1.44977189 -0.114833,0 -0.200958,-0.10047924 -0.200958,-0.24402101 0,-0.0430625 0,-0.0717709 0,-0.10047924 l 0.904313,-3.61725254 -0.02871,-0.014354 c -0.559813,0.1291876 -0.918668,0.2009585 -1.492835,0.2727294 v 0.1291875 c 0.387563,0 0.401917,0.014354 0.488042,0.071771 0.05742,0.014354 0.114834,0.1004793 0.114834,0.1722502 0,0.086125 -0.05742,0.330146 -0.143542,0.6746463 l -0.373209,1.4067093 c -0.1722498,0.70335466 -0.2440207,1.04785491 -0.2440207,1.22010503 0,0.35885442 0.1866047,0.5598129 0.5311047,0.5598129 0.703355,0 1.234459,-0.54545872 2.382793,-2.46891843 -0.287083,1.0622091 -0.444979,1.75120959 -0.444979,1.96652224 0,0.30143771 0.17225,0.47368784 0.473688,0.47368784 0.459333,0 0.689,-0.20095848 1.378001,-1.16268838 z m 0,0"
           style="fill:#808080;fill-opacity:1;fill-rule:nonzero;stroke:none"
           id="path68" />
      </g>
      <path
         d="M 28.34676,28.34676 V 17.00906"
         style="fill:none;stroke:#7f7f7f;stroke-width:0.79701;stroke-linecap:butt;stroke-linejoin:miter;stroke-miterlimit:10;stroke-dasharray:none;stroke-opacity:1"
         transform="matrix(1.0885333,0,0,-1.0885333,172.81289,168.35368)"
         id="path69" />
      <path
         d="M 22.6771,17.00906 H 34.01648"
         style="fill:none;stroke:#7f7f7f;stroke-width:0.79701;stroke-linecap:butt;stroke-linejoin:miter;stroke-miterlimit:10;stroke-dasharray:none;stroke-opacity:1"
         transform="matrix(1.0885333,0,0,-1.0885333,172.81289,168.35368)"
         id="path70" />
      <path
         d="M 23.81207,17.00906 22.11133,13.60759"
         style="fill:none;stroke:#7f7f7f;stroke-width:0.79701;stroke-linecap:butt;stroke-linejoin:miter;stroke-miterlimit:10;stroke-dasharray:none;stroke-opacity:1"
         transform="matrix(1.0885333,0,0,-1.0885333,172.81289,168.35368)"
         id="path71" />
      <path
         d="M 26.07857,17.00906 24.37782,13.60759"
         style="fill:none;stroke:#7f7f7f;stroke-width:0.79701;stroke-linecap:butt;stroke-linejoin:miter;stroke-miterlimit:10;stroke-dasharray:none;stroke-opacity:1"
         transform="matrix(1.0885333,0,0,-1.0885333,172.81289,168.35368)"
         id="path72" />
      <path
         d="M 28.34505,17.00906 26.64432,13.60759"
         style="fill:none;stroke:#7f7f7f;stroke-width:0.79701;stroke-linecap:butt;stroke-linejoin:miter;stroke-miterlimit:10;stroke-dasharray:none;stroke-opacity:1"
         transform="matrix(1.0885333,0,0,-1.0885333,172.81289,168.35368)"
         id="path73" />
      <path
         d="M 30.61154,17.00906 28.91081,13.60759"
         style="fill:none;stroke:#7f7f7f;stroke-width:0.79701;stroke-linecap:butt;stroke-linejoin:miter;stroke-miterlimit:10;stroke-dasharray:none;stroke-opacity:1"
         transform="matrix(1.0885333,0,0,-1.0885333,172.81289,168.35368)"
         id="path74" />
      <path
         d="M 32.87804,17.00906 31.1773,13.60759"
         style="fill:none;stroke:#7f7f7f;stroke-width:0.79701;stroke-linecap:butt;stroke-linejoin:miter;stroke-miterlimit:10;stroke-dasharray:none;stroke-opacity:1"
         transform="matrix(1.0885333,0,0,-1.0885333,172.81289,168.35368)"
         id="path75" />
      <path
         d="M 0,0 V 113.38724 H 113.38724 V 0 Z"
         style="fill:none;stroke:#000000;stroke-width:0.79701;stroke-linecap:butt;stroke-linejoin:miter;stroke-miterlimit:10;stroke-dasharray:none;stroke-opacity:1"
         transform="matrix(1.0885333,0,0,-1.0885333,172.81289,168.35368)"
         id="path76" />
      <path
         d="m 29.23254,28.34676 c 0,0.48919 -0.39659,0.88578 -0.88578,0.88578 -0.4892,0 -0.88579,-0.39659 -0.88579,-0.88578 0,-0.4892 0.39659,-0.88579 0.88579,-0.88579 0.48919,0 0.88578,0.39659 0.88578,0.88579 z"
         style="fill:#000000;fill-opacity:1;fill-rule:nonzero;stroke:#000000;stroke-width:0.79701;stroke-linecap:butt;stroke-linejoin:miter;stroke-miterlimit:10;stroke-dasharray:none;stroke-opacity:1"
         transform="matrix(1.0885333,0,0,-1.0885333,172.81289,168.35368)"
         id="path77" />
      <path
         d="m 29.23254,85.0404 c 0,0.4892 -0.39659,0.8858 -0.88578,0.8858 -0.4892,0 -0.88579,-0.3966 -0.88579,-0.8858 0,-0.48919 0.39659,-0.88578 0.88579,-0.88578 0.48919,0 0.88578,0.39659 0.88578,0.88578 z"
         style="fill:#000000;fill-opacity:1;fill-rule:nonzero;stroke:#000000;stroke-width:0.79701;stroke-linecap:butt;stroke-linejoin:miter;stroke-miterlimit:10;stroke-dasharray:none;stroke-opacity:1"
         transform="matrix(1.0885333,0,0,-1.0885333,172.81289,168.35368)"
         id="path78" />
    </g>
  </g>
</svg>
