<?xml version="1.0" encoding="UTF-8" standalone="no"?>
<!-- Created with Inkscape (http://www.inkscape.org/) -->

<svg
   version="1.1"
   id="svg1"
   width="422.07812"
   height="131.18359"
   viewBox="0 0 422.07812 131.18359"
   sodipodi:docname="postdoc_mesh_bias.svg"
   inkscape:version="1.4.3 (0d15f75042, 2025-12-25)"
   xmlns:inkscape="http://www.inkscape.org/namespaces/inkscape"
   xmlns:sodipodi="http://sodipodi.sourceforge.net/DTD/sodipodi-0.dtd"
   xmlns="http://www.w3.org/2000/svg"
   xmlns:svg="http://www.w3.org/2000/svg">
  <defs
     id="defs1" />
  <sodipodi:namedview
     id="namedview1"
     pagecolor="#ffffff"
     bordercolor="#000000"
     borderopacity="0.25"
     inkscape:showpageshadow="2"
     inkscape:pageopacity="0.0"
     inkscape:pagecheckerboard="0"
     inkscape:deskcolor="#d1d1d1"
     inkscape:zoom="3.925951"
     inkscape:cx="255.60686"
     inkscape:cy="7.5141029"
     inkscape:window-width="2556"
     inkscape:window-height="1381"
     inkscape:window-x="0"
     inkscape:window-y="0"
     inkscape:window-maximized="0"
     inkscape:current-layer="g176">
    <inkscape:page
       x="0"
       y="0"
       inkscape:label="5"
       id="page1"
       width="422.07812"
       height="131.18359"
       margin="0"
       bleed="0" />
  </sodipodi:namedview>
  <g
     id="g1"
     inkscape:groupmode="layer"
     inkscape:label="5"
     transform="translate(-171.96875,-120.8125)">
    <g
       id="g176"
       inkscape:label="Expected trajectory">
      <path
         style="fill:#ff950a;stroke:#00002c;stroke-width:0.999996;stroke-dasharray:0.99999601, 1.99999201;stroke-dashoffset:0"
         d="M 190.34267,179.70282 H 568.30431"
         id="path3-6"
         inkscape:label="Center line" />
      <path
         style="fill:none;stroke:#3746ff;stroke-width:1;stroke-dasharray:none;stroke-opacity:1"
         d="m 228.05232,170.20769 c 0.89447,0.085 1.78892,0.16893 2.68322,0.25169 0.89446,0.0828 1.78894,0.16444 2.68339,0.24514 0.89448,0.0808 1.78877,0.16033 2.68323,0.23897 0.89446,0.0786 1.78894,0.15621 2.68321,0.23275 0.89447,0.0766 1.78894,0.15226 2.6834,0.22691 0.89448,0.0747 1.78875,0.1483 2.68324,0.22108 0.89445,0.0728 1.78889,0.14451 2.68333,0.2154 0.89441,0.0711 1.78885,0.1409 2.68329,0.21006 0.89441,0.0693 1.78885,0.13727 2.68329,0.20454 0.89442,0.0674 1.78883,0.13384 2.68326,0.1994 0.89445,0.0657 1.78887,0.13041 2.68331,0.19439 0.89442,0.0639 1.78887,0.12699 2.6833,0.18942 0.89441,0.0623 1.78886,0.1237 2.68326,0.1844 0.89443,0.0607 1.78886,0.12082 2.68329,0.17998 0.89444,0.059 1.78888,0.11748 2.6833,0.17513 0.89443,0.0577 1.78887,0.11463 2.68329,0.17083 0.89441,0.056 1.78884,0.11167 2.68329,0.16635 0.89442,0.0547 1.78884,0.10896 2.68329,0.16224 0.89443,0.0533 1.78884,0.10601 2.68329,0.15811 0.89443,0.0519 1.78885,0.10312 2.68319,0.15397 0.89447,0.0505 1.78895,0.1006 2.68339,0.15003 0.89449,0.0494 1.78877,0.0982 2.68324,0.14621 0.89446,0.0481 1.78893,0.0957 2.6834,0.14262 0.89429,0.0467 1.78875,0.0932 2.68323,0.13884 0.89445,0.0457 1.78894,0.0908 2.68321,0.13539 0.89445,0.0444 1.78894,0.0883 2.6834,0.13194 0.89428,0.0434 1.78875,0.0861 2.68322,0.12853 0.89448,0.0422 1.78893,0.0839 2.68321,0.12525 0.89449,0.0413 1.78893,0.0818 2.68342,0.12213 0.89446,0.0401 1.78875,0.0796 2.68321,0.11896 0.89447,0.0391 1.78894,0.0778 2.68341,0.11599 0.89428,0.0383 1.78874,0.0757 2.68321,0.11289 0.89447,0.0374 1.78876,0.074 2.68323,0.11008 0.89447,0.0362 1.78893,0.0721 2.6834,0.10736 0.89428,0.0353 1.78876,0.0701 2.68321,0.10458 0.89447,0.0344 1.78894,0.0684 2.68324,0.10176 0.89446,0.0337 1.78892,0.0666 2.68339,0.0993 0.89447,0.0327 1.78874,0.0648 2.68323,0.0967 0.89446,0.0319 1.78894,0.0634 2.68339,0.0944 0.89428,0.0312 1.78877,0.0617 2.68322,0.0918 0.89446,0.0304 1.78876,0.0603 2.68322,0.0895 0.89447,0.0296 1.78894,0.0585 2.68341,0.0873 0.89429,0.0287 1.78874,0.0571 2.68321,0.0852 0.89447,0.0283 1.78894,0.0556 2.68323,0.083 0.89446,0.0274 1.78893,0.0541 2.68339,0.0808 0.89448,0.0266 1.78875,0.0529 2.68323,0.0788 0.89447,0.0259 1.78893,0.0513 2.68321,0.0766 0.89448,0.0254 1.78894,0.0502 2.68341,0.0748 0.89446,0.0246 1.78875,0.0487 2.68321,0.0728 0.89446,0.024 1.78895,0.0477 2.68341,0.0712 0.89428,0.0232 1.78875,0.0462 2.68322,0.0692 0.89447,0.0227 1.78893,0.0452 2.68322,0.0673 0.89447,0.0223 1.78893,0.044 2.68341,0.0657 0.89427,0.0217 1.78875,0.0431 2.68322,0.0639 0.89446,0.0211 1.78892,0.0418 2.68322,0.0626 0.89447,0.0205 1.78893,0.0408 2.68339,0.0607 0.89449,0.0201 1.78875,0.0397 2.68322,0.0593 0.89448,0.0195 1.78894,0.0387 2.6834,0.0579 0.89429,0.019 1.78877,0.0378 2.68322,0.056 0.89447,0.0185 1.78894,0.0367 2.68324,0.0548 0.89446,0.018 1.78892,0.0361 2.68339,0.0534 0.89429,0.0177 1.78875,0.0349 2.68323,0.0518 0.89445,0.0172 1.78893,0.0341 2.68321,0.0508 0.89446,0.0165 1.78894,0.0333 2.68341,0.0495 0.89446,0.0161 1.78874,0.0322 2.68321,0.0481 0.89448,0.0159 1.78894,0.0317 2.6834,0.0467 0.8943,0.0154 1.78876,0.0308 2.68323,0.0457 0.89446,0.0151 1.78875,0.0301 2.68322,0.0445 0.89446,0.0147 1.78893,0.0294 2.6834,0.0435 0.89428,0.0142 1.78876,0.0285 2.68322,0.0423 0.89447,0.0138 1.78893,0.0278 2.68321,0.0413 0.89448,0.0134 1.78894,0.027 2.68341,0.0402 0.89446,0.013 1.78875,0.0262 2.68322,0.0391 0.89447,0.0129 1.78893,0.0258 2.6834,0.0383 0.89429,0.0125 1.78874,0.025 2.68322,0.0374 0.89447,0.0123 1.78876,0.0243 2.68322,0.0362 0.89447,0.0123 1.78893,0.0239 2.68341,0.0355 0.89427,0.011 1.78876,0.0231 2.68322,0.0344 0.89445,0.011 1.78893,0.0227 2.68322,0.0337 0.89446,0.011 1.78893,0.0218 2.68339,0.0326 0.89448,0.011 1.78948,0.0213 2.6825,0.0319 0.89483,0.011 1.78966,0.0207 2.68449,0.0311 0.89484,0.009 1.78785,0.0204 2.68268,0.0304 0.89484,0.009 1.78966,0.0199 2.68268,0.0296 0.89482,0.009 1.78967,0.0191 2.68447,0.0287 0.89485,0.009 1.78787,0.0187 2.68269,0.0283 0.89482,0.008 1.78966,0.0183 2.68267,0.0273 0.89483,0.008 1.78967,0.0179 2.68449,0.0267 0.89484,0.008 1.78784,0.0172 2.68269,0.0261 0.89481,0.008 1.78966,0.0168 2.68267,0.0252 0.89483,0.008 1.78965,0.0164 2.68449,0.0246 0.89482,0.008 1.78785,0.0159 2.68268,0.0241 0.89483,0.007 1.78965,0.0155 2.68268,0.0234 0.89483,0.007 1.78966,0.0152 2.68448,0.0227 0.89483,0.007 1.78786,0.0147 2.68268,0.0224 0.89482,0.007 1.78967,0.0145 2.68267,0.0217 0.89483,0.007 1.78966,0.014 2.6845,0.0212 0.89483,0.007 1.78784,0.0137 2.68268,0.0204 0.89482,0.006 1.78965,0.0134 2.68267,0.0201 0.89481,0.006 1.78965,0.013 2.6845,0.0195 0.89482,0.006 1.78783,0.0125 2.68267,0.0189 0.89481,0.006 1.78965,0.0123 2.68267,0.0186 0.89484,0.006 1.78966,0.0123 2.68448,0.018 0.89483,0.006 1.78784,0.011 2.68268,0.0178 0.89482,0.006 1.78967,0.011 2.6845,0.0171 0.89301,0.006 1.78783,0.011 2.68267,0.0166 0.89482,0.005 1.78785,0.011 2.68268,0.0162 0.89483,0.005 1.78965,0.011 2.68448,0.0157 0.89302,0.005 1.78786,0.009 2.68268,0.0156 0.89483,0.005 1.78785,0.009 2.68269,0.0147 0.89481,0.005 1.78966,0.009 2.68447,0.0146 0.89303,0.005 1.78786,0.009 2.68268,0.0142 0.89483,0.005 1.78785,0.009 2.68268,0.0138 0.89484,0.005 1.78966,0.008 2.6845,0.0134 0.89301,0.005 1.78783,0.008 2.68268,0.0133 0.89481,0.004 1.78783,0.008 2.68267,0.0128 0.89482,0.004 1.78964,0.008 2.68448,0.0124 0.89302,0.004 1.78785,0.008 2.68268,0.0123 0.89483,0.004 1.78785,0.008 2.68266,0.0122 0.89485,0.004 1.78968,0.007 2.6845,0.011 0.89302,0.004 1.78785,0.007 2.68267,0.011 0.89484,0.004 1.78785,0.007 2.68269,0.011 0.89483,0.004 1.78966,0.007 2.68449,0.011 0.89302,0.004 1.78785,0.007 2.68269,0.011 0.8948,0.004 1.78785,0.007 2.68266,0.009 0.89482,0.004 1.78966,0.006 2.68448,0.009 0.89303,0.004 1.78785,0.006 2.68268,0.009"
         title="exp(-0.1*x)"
         id="path2-3"
         inkscape:label="Expected path" />
      <text
         xml:space="preserve"
         style="font-size:16px;line-height:1;font-family:'Century Gothic';-inkscape-font-specification:'Century Gothic';text-align:start;text-decoration-color:#000000;writing-mode:lr-tb;direction:ltr;text-anchor:start;opacity:1;fill:#3746ff;fill-opacity:1;stroke:none;stroke-width:1;stroke-dasharray:0.999996, 1.99999;stroke-dashoffset:0;stroke-opacity:1"
         x="294.56345"
         y="193.69264"
         id="text174"><tspan
           sodipodi:role="line"
           id="tspan174"
           x="294.56345"
           y="193.69264">Trajectoire exponentielle attendue</tspan></text>
    </g>
    <g
       id="g173"
       inkscape:label="Load">
      <g
         id="g172"
         inkscape:label="top"
         style="stroke:#ff808b;stroke-opacity:1">
        <path
           id="path26"
           d="m 0,47.51775 c 0,0 0.8222,-0.01767 1.138,-0.02553 0.31578,-0.0079 0.8222,-0.02327 1.138,-0.03113 0.3158,-0.0079 0.82222,-0.01804 1.138,-0.02553 0.3158,-0.0075 0.82222,-0.02028 1.13802,-0.02855 0.31578,-0.0083 0.8222,-0.02209 1.138,-0.03114 0.31579,-0.0091 0.82223,-0.02553 1.13801,-0.03417 0.3158,-0.0086 0.82222,-0.01948 1.13802,-0.02812 0.31578,-0.0086 0.8222,-0.02432 1.138,-0.03416 0.31578,-0.0098 0.8222,-0.02693 1.138,-0.03677 0.3158,-0.0098 0.82222,-0.02398 1.138,-0.03417 0.3158,-0.01021 0.82222,-0.02881 1.13802,-0.03937 0.31578,-0.01054 0.82222,-0.02614 1.13801,-0.03676 0.3158,-0.0106 0.82222,-0.02833 1.138,-0.03979 0.3158,-0.01146 0.82222,-0.03142 1.13802,-0.04283 0.31578,-0.0114 0.8222,-0.02718 1.138,-0.03935 0.31578,-0.01218 0.8222,-0.03543 1.138,-0.04845 0.3158,-0.01302 0.82222,-0.03323 1.138,-0.04541 0.3158,-0.01218 0.82223,-0.02945 1.13803,-0.04241 0.31578,-0.01293 0.82221,-0.03686 1.138,-0.05102 0.3158,-0.01416 0.82222,-0.03689 1.138,-0.05106 0.3158,-0.01414 0.82222,-0.03651 1.13802,-0.05102 0.31578,-0.01451 0.8222,-0.03835 1.138,-0.05364 0.31579,-0.01529 0.8222,-0.04094 1.138,-0.05665 0.31579,-0.01572 0.82223,-0.04054 1.13801,-0.05667 0.3158,-0.01613 0.82222,-0.04277 1.13802,-0.0597 0.31578,-0.0169 0.8222,-0.04535 1.138,-0.06227 0.3158,-0.01692 0.82222,-0.042 1.138,-0.0597 0.3158,-0.01769 0.82222,-0.04944 1.13802,-0.06791 0.31578,-0.01846 0.8222,-0.04684 1.138,-0.0653 0.3158,-0.01847 0.82222,-0.04865 1.13801,-0.06791 0.3158,-0.01926 0.82222,-0.05091 1.138,-0.07095 0.3158,-0.02003 0.82222,-0.05307 1.13802,-0.07353 0.31578,-0.02046 0.8222,-0.05308 1.138,-0.07396 0.3158,-0.02087 0.82222,-0.05495 1.138,-0.07655 0.3158,-0.02161 0.82222,-0.05715 1.13802,-0.07917 0.31578,-0.022 0.82222,-0.05677 1.13801,-0.07957 0.3158,-0.02281 0.82222,-0.06163 1.138,-0.08479 0.3158,-0.02315 0.82222,-0.05854 1.138,-0.08217 0.3158,-0.02365 0.82222,-0.06347 1.13802,-0.08824 0.31578,-0.02478 0.8222,-0.06485 1.138,-0.09041 0.31579,-0.02555 0.82222,-0.06787 1.138,-0.09386 0.3158,-0.02597 0.82223,-0.0675 1.13803,-0.09343 0.31578,-0.02591 0.82221,-0.06673 1.138,-0.09343 0.31579,-0.02669 0.82222,-0.07115 1.138,-0.09906 0.31579,-0.02789 0.82222,-0.07374 1.138,-0.10206 0.3158,-0.02832 0.82222,-0.07335 1.13802,-0.10208 0.31578,-0.02874 0.8222,-0.07601 1.138,-0.10511 0.31579,-0.02909 0.82223,-0.07445 1.13801,-0.10467 0.3158,-0.03025 0.82222,-0.08266 1.13802,-0.11332 0.31578,-0.03067 0.8222,-0.07699 1.138,-0.1077 0.3158,-0.03074 0.82222,-0.0819 1.138,-0.11376 0.3158,-0.03186 0.82222,-0.08373 1.13802,-0.11594 0.31578,-0.03221 0.8222,-0.08326 1.138,-0.11633 0.31578,-0.03307 0.82222,-0.08857 1.13802,-0.12198 0.31579,-0.03343 0.82221,-0.08556 1.138,-0.11896 0.31579,-0.03341 0.82221,-0.08735 1.13801,-0.12196 0.31578,-0.03462 0.8222,-0.09221 1.138,-0.12761 0.31579,-0.03542 0.82222,-0.09262 1.138,-0.12759 0.31579,-0.03497 0.82222,-0.08917 1.13802,-0.12457 0.31577,-0.03542 0.82222,-0.09444 1.13801,-0.13062 0.31578,-0.0362 0.82221,-0.09368 1.138,-0.13022 0.3158,-0.03654 0.82222,-0.09583 1.138,-0.13321 0.3158,-0.03738 0.82222,-0.09851 1.13802,-0.13626 0.31578,-0.03774 0.8222,-0.09807 1.138,-0.1358 0.31579,-0.03775 0.82222,-0.09851 1.138,-0.13626 0.31579,-0.03775 0.82224,-0.09772 1.13803,-0.13583 0.31578,-0.03808 0.82221,-0.09988 1.138,-0.13883 0.31578,-0.03894 0.82221,-0.10292 1.138,-0.14188 0.3158,-0.03894 0.82222,-0.10031 1.138,-0.13884 0.3158,-0.03853 0.82222,-0.09988 1.13801,-0.13884 0.31579,-0.03894 0.82221,-0.10252 1.13801,-0.14187 0.31579,-0.03937 0.82223,-0.10257 1.13801,-0.14187 0.3158,-0.0393 0.82222,-0.10214 1.13802,-0.14144 0.31578,-0.0393 0.8222,-0.10253 1.138,-0.14188 0.3158,-0.03935 0.8222,-0.10257 1.138,-0.14186 0.3158,-0.03931 0.82222,-0.10214 1.138,-0.14145 0.3158,-0.03929 0.82222,-0.10252 1.13802,-0.14188 0.31578,-0.03935 0.82222,-0.10256 1.13801,-0.14186 0.3158,-0.0393 0.82222,-0.10226 1.138,-0.14145 0.3158,-0.03917 0.82223,-0.10188 1.13802,-0.141 0.31578,-0.03913 0.82221,-0.10219 1.138,-0.14101 0.31579,-0.03884 0.82222,-0.10027 1.138,-0.13884 0.3158,-0.03859 0.82222,-0.10077 1.138,-0.13928 0.3158,-0.03853 0.82223,-0.10051 1.13803,-0.13842 0.31578,-0.03791 0.82221,-0.09715 1.138,-0.13494 0.3158,-0.03781 0.82222,-0.09987 1.138,-0.13756 0.3158,-0.03767 0.82222,-0.09694 1.13802,-0.13408 0.31578,-0.03714 0.8222,-0.09686 1.138,-0.13365 0.31579,-0.03679 0.82222,-0.09508 1.138,-0.1315 0.31579,-0.03642 0.82223,-0.09513 1.13801,-0.13106 0.3158,-0.03593 0.82222,-0.09256 1.13802,-0.12802 0.31578,-0.03548 0.8222,-0.09256 1.138,-0.12759 0.3158,-0.03505 0.82222,-0.0904 1.138,-0.12502 0.3158,-0.03461 0.82222,-0.09055 1.13802,-0.12458 0.31578,-0.03402 0.8222,-0.08707 1.138,-0.12067 0.31579,-0.03359 0.82223,-0.08835 1.13801,-0.12154 0.3158,-0.03319 0.82222,-0.08531 1.138,-0.11765 0.3158,-0.03233 0.82222,-0.08351 1.13802,-0.11549 0.31578,-0.03198 0.8222,-0.08362 1.138,-0.11507 0.3158,-0.03143 0.82222,-0.08079 1.138,-0.11157 0.3158,-0.03079 0.82222,-0.08001 1.13802,-0.11031 0.31578,-0.0303 0.82222,-0.07842 1.13801,-0.10813 0.3158,-0.0297 0.82222,-0.07682 1.138,-0.10597 0.3158,-0.02917 0.82222,-0.07574 1.13802,-0.10424 0.31578,-0.0285 0.8222,-0.07344 1.138,-0.10121 0.31578,-0.02779 0.8222,-0.07188 1.138,-0.09906 0.31579,-0.02718 0.82223,-0.07025 1.13801,-0.09688 0.3158,-0.02664 0.82222,-0.06907 1.13802,-0.09517 0.31578,-0.02611 0.8222,-0.06756 1.138,-0.09298 0.3158,-0.02544 0.82222,-0.06557 1.138,-0.09041 0.3158,-0.02485 0.82222,-0.0645 1.13802,-0.08867 0.31578,-0.02418 0.8222,-0.06218 1.138,-0.08565 0.31578,-0.02345 0.82222,-0.06056 1.13801,-0.08348 0.3158,-0.02292 0.82222,-0.05931 1.138,-0.08174 0.3158,-0.02245 0.82222,-0.05826 1.13802,-0.08002 0.31578,-0.02177 0.8222,-0.05575 1.138,-0.07699 0.3158,-0.02123 0.82222,-0.05532 1.138,-0.07613 0.3158,-0.02081 0.82222,-0.05394 1.13802,-0.07397 0.31578,-0.02004 0.82222,-0.05098 1.13801,-0.0705 0.31578,-0.0195 0.82221,-0.05112 1.138,-0.07007 0.3158,-0.01897 0.82222,-0.04826 1.138,-0.0666 0.3158,-0.01836 0.82222,-0.04781 1.13802,-0.06575 0.31578,-0.01795 0.8222,-0.04621 1.138,-0.06358 0.3158,-0.0174 0.82222,-0.04494 1.138,-0.06187 0.3158,-0.01692 0.82223,-0.04374 1.13803,-0.06012 0.31578,-0.01637 0.82221,-0.04217 1.138,-0.05795 0.3158,-0.01578 0.82221,-0.04051 1.138,-0.05582 0.3158,-0.01528 0.82222,-0.03961 1.138,-0.05448 0.3158,-0.0149 0.82222,-0.03832 1.13802,-0.05277 0.31578,-0.01446 0.8222,-0.03751 1.138,-0.05149 0.31579,-0.01395 0.82223,-0.03579 1.13801,-0.0493 0.3158,-0.01348 0.82222,-0.03488 1.13802,-0.04801 0.31578,-0.01314 0.8222,-0.03406 1.138,-0.04671 0.3158,-0.01263 0.82222,-0.03232 1.138,-0.04456 0.3158,-0.01223 0.82222,-0.03181 1.138,-0.04368 0.3158,-0.01187 0.82222,-0.03055 1.13802,-0.04196 0.31578,-0.0114 0.82222,-0.02918 1.13801,-0.04023 0.3158,-0.01103 0.82222,-0.02868 1.138,-0.03935 0.3158,-0.01068 0.82222,-0.02725 1.13802,-0.03763 0.31578,-0.01036 0.8222,-0.02717 1.138,-0.0372 0.3158,-0.01001 0.82222,-0.02545 1.138,-0.03503 0.3158,-0.0096 0.82222,-0.02489 1.138,-0.03418 0.3158,-0.0093 0.82224,-0.02386 1.13803,-0.03287 0.31578,-0.009 0.82221,-0.02331 1.138,-0.03201 0.3158,-0.0087 0.82222,-0.02238 1.138,-0.0307 0.3158,-0.0083 0.82222,-0.02138 1.13802,-0.02942 0.31578,-0.008 0.8222,-0.02076 1.138,-0.02855 0.31579,-0.0078 0.82222,-0.02013 1.138,-0.02768 0.3158,-0.0076 0.82223,-0.01958 1.13802,-0.02683 0.31579,-0.0072 0.82221,-0.01855 1.13801,-0.0255 0.31578,-0.0069 0.82221,-0.01794 1.138,-0.02467 0.31579,-0.0067 0.82222,-0.0173 1.138,-0.02378 0.3158,-0.0065 0.82222,-0.0167 1.13802,-0.02292 0.31578,-0.0062 0.8222,-0.01601 1.138,-0.02207 0.31579,-0.006 0.82223,-0.01576 1.13801,-0.02162 0.3158,-0.0059 0.82222,-0.01512 1.13802,-0.02075 0.31578,-0.0056 0.8222,-0.01451 1.138,-0.01991 0.31578,-0.0054 0.8222,-0.01388 1.138,-0.01903 0.3158,-0.0052 0.82222,-0.01314 1.138,-0.01816 0.3158,-0.005 0.82222,-0.01332 1.13802,-0.01817 0.31578,-0.0049 0.82222,-0.01227 1.13802,-0.01688 0.31579,-0.0046 0.82221,-0.01199 1.138,-0.01643 0.31579,-0.0044 0.82221,-0.01125 1.13801,-0.01557 0.31578,-0.0043 0.8222,-0.01144 1.138,-0.01558 0.31578,-0.0041 0.8222,-0.01033 1.138,-0.01428 0.31579,-0.004 0.82222,-0.01038 1.138,-0.01426 0.31579,-0.0039 0.82224,-0.01014 1.13803,-0.01384 0.31578,-0.0037 0.82221,-0.0095 1.138,-0.01299 0.3158,-0.0035 0.82222,-0.0091 1.138,-0.01254 0.3158,-0.0034 0.82222,-0.0088 1.13802,-0.0121 0.31578,-0.0033 0.8222,-0.0085 1.138,-0.01169 0.31578,-0.0032 0.8222,-0.0082 1.138,-0.01123 0.31579,-0.0031 0.82224,-0.0079 1.13801,-0.01082 0.3158,-0.0029 0.82223,-0.0076 1.13802,-0.01039 0.31578,-0.0028 0.82221,-0.0072 1.138,-0.0099 0.3158,-0.0027 0.82222,-0.0069 1.138,-0.0095 0.3158,-0.0026 0.82222,-0.007 1.13801,-0.0095 0.31579,-0.0025 0.82221,-0.0062 1.138,-0.0086 0.3158,-0.0024 0.82223,-0.0063 1.13802,-0.0086 0.3158,-0.0023 0.82222,-0.006 1.138,-0.0082 0.3158,-0.0023 0.82222,-0.0061 1.13802,-0.0082 0.31578,-0.0022 0.8222,-0.0053 1.138,-0.0074 0.3158,-0.002 0.82222,-0.0054 1.138,-0.0074 0.3158,-0.002 0.82222,-0.005 1.13802,-0.0069 0.31578,-0.0019 0.82222,-0.0051 1.13801,-0.0069 0.3158,-0.0019 0.82222,-0.0047 1.138,-0.0065 0.3158,-0.0018 0.82223,-0.0048 1.138,-0.0065 0.3158,-0.0017 0.82223,-0.0044 1.13802,-0.0061 0.31578,-0.0016 0.82221,-0.0041 1.138,-0.0056 0.3158,-0.0016 0.82222,-0.0041 1.138,-0.0056 0.3158,-0.0015 0.82223,-0.0037 1.13803,-0.0052 0.31578,-0.0014 0.82221,-0.0038 1.138,-0.0052 0.3158,-0.0014 0.82222,-0.0035 1.138,-0.0048 0.3158,-0.0013 0.82222,-0.0035 1.138,-0.0048 0.3158,-0.0013 0.82222,-0.0035 1.13802,-0.0048 0.31578,-0.0012 0.8222,-0.0031 1.138,-0.0043 0.31579,-0.0012 0.82223,-0.0032 1.13801,-0.0043 0.3158,-0.0011 0.82222,-0.0028 1.13802,-0.0039 0.31578,-0.0011 0.8222,-0.0028 1.138,-0.0039 0.3158,-0.0011 0.82222,-0.0029 1.138,-0.0039 0.3158,-0.001 0.82222,-0.0025 1.138,-0.0035 0.3158,-9.6e-4 0.82222,-0.0025 1.13802,-0.0035 0.31578,-9.6e-4 0.82221,-0.0026 1.13801,-0.0035 0.3158,-9e-4 0.82222,-0.0021 1.138,-0.003 0.3158,-9e-4 0.82222,-0.0026 1.13802,-0.0035 0.31578,-8.4e-4 0.8222,-0.0018 1.138,-0.0026 0.3158,-7.8e-4 0.82222,-0.0023 1.138,-0.003 0.3158,-7.7e-4 0.82222,-0.0019 1.13802,-0.0026 0.31578,-7.1e-4 0.82222,-0.0019 1.13801,-0.0026 0.31578,-7.2e-4 0.82221,-0.0019 1.138,-0.0026 0.3158,-7e-4 0.82222,-0.0019 1.138,-0.0026 0.3158,-6.5e-4 0.82222,-0.0016 1.13802,-0.0022 0.31578,-6e-4 0.8222,-0.0016 1.138,-0.0022 0.31579,-6e-4 0.82223,-0.0016 1.13801,-0.0022 0.3158,-6e-4 0.82222,-0.0016 1.13802,-0.0022 0.31578,-5.9e-4 0.8222,-0.0016 1.138,-0.0022 0.31578,-5.3e-4 0.8222,-0.0012 1.138,-0.0017 0.3158,-4.7e-4 0.82222,-0.0013 1.138,-0.0017 0.3158,-4.7e-4 0.82222,-0.0013 1.13802,-0.0017 0.31578,-4.8e-4 0.82222,-0.0013 1.13801,-0.0017 0.3158,-4.6e-4 0.82222,-0.0012 1.138,-0.0017 0.3158,-4.7e-4 0.82222,-0.0013 1.13802,-0.0017 0.31578,-4.1e-4 0.8222,-9.4e-4 1.138,-0.0013 0.31578,-3.5e-4 0.8222,-8.8e-4 1.138,-0.0013 0.3158,-4.1e-4 0.82222,-0.0013 1.138,-0.0017 0.3158,-4e-4 0.82224,-9.3e-4 1.13803,-0.0013 0.31578,-3.5e-4 0.82221,-10e-4 1.138,-0.0013 0.3158,-2.9e-4 0.82222,-5.8e-4 1.138,-8.7e-4 0.3158,-2.9e-4 0.82222,-9.4e-4 1.13802,-0.0013 0.31578,-3.3e-4 0.8222,-9.9e-4 1.138,-0.0013 0.3158,-2.9e-4 0.8222,-5.8e-4 1.138,-8.6e-4 0.3158,-3e-4 0.82223,-10e-4 1.13802,-0.0013 0.31579,-2.9e-4 0.82222,-6.4e-4 1.13801,-8.5e-4 0.31578,-2.3e-4 0.82221,-6.3e-4 1.138,-8.6e-4 0.3158,-2.3e-4 0.82222,-5.8e-4 1.138,-8.7e-4 0.3158,-2.9e-4 0.82222,-0.001 1.13802,-0.0013 0.31578,-2.9e-4 0.8222,-7e-4 1.138,-8.7e-4 0.31579,-1.5e-4 0.82223,-2.4e-4 1.13801,-4.2e-4 0.3158,-1.6e-4 0.82222,-6.3e-4 1.138,-8.6e-4 0.3158,-2.3e-4 0.82222,-6.4e-4 1.13802,-8.7e-4 0.31578,-2.3e-4 0.8222,-7e-4 1.138,-8.7e-4 0.3158,-1.7e-4 0.82222,-2.6e-4 1.138,-4.3e-4 0.3158,-1.7e-4 0.82222,-7e-4 1.13802,-8.5e-4 0.31578,-1.7e-4 0.82222,-2.8e-4 1.13801,-4.5e-4 0.3158,-1.7e-4 0.82222,-7e-4 1.138,-8.7e-4 0.3158,-1.6e-4 0.82222,-2.6e-4 1.138,-4.2e-4 0.3158,-1.7e-4 0.82222,-7e-4 1.13802,-8.8e-4 0.31578,-1.6e-4 0.8222,-3.1e-4 1.138,-4.2e-4 0.3158,-1.1e-4 1.138,-4.4e-4 1.138,-4.4e-4"
           style="fill:none;stroke:#ff808b;stroke-width:0.79701;stroke-linecap:butt;stroke-linejoin:miter;stroke-miterlimit:10;stroke-dasharray:none;stroke-opacity:1"
           transform="matrix(1.3333333,0,0,-1.3333333,190.34267,198.56933)" />
        <path
           id="path27"
           d="M 0,28.3468 V 46.81038"
           style="fill:none;stroke:#ff808b;stroke-width:0.79701;stroke-linecap:butt;stroke-linejoin:miter;stroke-miterlimit:10;stroke-dasharray:none;stroke-opacity:1"
           transform="matrix(1.3333333,0,0,-1.3333333,190.34267,198.56933)" />
        <path
           id="path28"
           d="M -1.55415,2.0722 C -1.42464,1.29512 0,0.1295 0.38852,0 0,-0.1295 -1.42464,-1.29512 -1.55415,-2.0722"
           style="fill:none;stroke:#ff808b;stroke-width:0.6376;stroke-linecap:round;stroke-linejoin:round;stroke-miterlimit:10;stroke-dasharray:none;stroke-opacity:1"
           transform="matrix(0,-1.3333333,-1.3333333,0,190.34267,136.15549)" />
        <path
           id="path29"
           d="M 28.3468,28.3468 V 45.79262"
           style="fill:none;stroke:#ff808b;stroke-width:0.79701;stroke-linecap:butt;stroke-linejoin:miter;stroke-miterlimit:10;stroke-dasharray:none;stroke-opacity:1"
           transform="matrix(1.3333333,0,0,-1.3333333,190.34267,198.56933)" />
        <path
           id="path30"
           d="M -1.55415,2.0722 C -1.42464,1.29512 0,0.1295 0.38852,0 0,-0.1295 -1.42464,-1.29512 -1.55415,-2.0722"
           style="fill:none;stroke:#ff808b;stroke-width:0.6376;stroke-linecap:round;stroke-linejoin:round;stroke-miterlimit:10;stroke-dasharray:none;stroke-opacity:1"
           transform="matrix(0,-1.3333333,-1.3333333,0,228.1384,137.51251)" />
        <path
           id="path31"
           d="M 56.69362,28.3468 V 43.66928"
           style="fill:none;stroke:#ff808b;stroke-width:0.79701;stroke-linecap:butt;stroke-linejoin:miter;stroke-miterlimit:10;stroke-dasharray:none;stroke-opacity:1"
           transform="matrix(1.3333333,0,0,-1.3333333,190.34267,198.56933)" />
        <path
           id="path32"
           d="M -1.55415,2.0722 C -1.42464,1.29512 0,0.1295 0.38852,0 0,-0.1295 -1.42464,-1.29512 -1.55415,-2.0722"
           style="fill:none;stroke:#ff808b;stroke-width:0.6376;stroke-linecap:round;stroke-linejoin:round;stroke-miterlimit:10;stroke-dasharray:none;stroke-opacity:1"
           transform="matrix(0,-1.3333333,-1.3333333,0,265.93416,140.34363)" />
        <path
           id="path33"
           d="M 85.04042,28.3468 V 40.3954"
           style="fill:none;stroke:#ff808b;stroke-width:0.79701;stroke-linecap:butt;stroke-linejoin:miter;stroke-miterlimit:10;stroke-dasharray:none;stroke-opacity:1"
           transform="matrix(1.3333333,0,0,-1.3333333,190.34267,198.56933)" />
        <path
           id="path34"
           d="M -1.55415,2.0722 C -1.42464,1.29512 0,0.1295 0.38852,0 0,-0.1295 -1.42464,-1.29512 -1.55415,-2.0722"
           style="fill:none;stroke:#ff808b;stroke-width:0.6376;stroke-linecap:round;stroke-linejoin:round;stroke-miterlimit:10;stroke-dasharray:none;stroke-opacity:1"
           transform="matrix(0,-1.3333333,-1.3333333,0,303.72989,144.7088)" />
        <path
           id="path35"
           d="m 113.38724,28.3468 v 8.77387"
           style="fill:none;stroke:#ff808b;stroke-width:0.79701;stroke-linecap:butt;stroke-linejoin:miter;stroke-miterlimit:10;stroke-dasharray:none;stroke-opacity:1"
           transform="matrix(1.3333333,0,0,-1.3333333,190.34267,198.56933)" />
        <path
           id="path36"
           d="M -1.55415,2.0722 C -1.42464,1.29512 0,0.1295 0.38852,0 0,-0.1295 -1.42464,-1.29512 -1.55415,-2.0722"
           style="fill:none;stroke:#ff808b;stroke-width:0.6376;stroke-linecap:round;stroke-linejoin:round;stroke-miterlimit:10;stroke-dasharray:none;stroke-opacity:1"
           transform="matrix(0,-1.3333333,-1.3333333,0,341.52565,149.07511)" />
        <path
           id="path37"
           d="m 141.73404,28.3468 v 6.65097"
           style="fill:none;stroke:#ff808b;stroke-width:0.79701;stroke-linecap:butt;stroke-linejoin:miter;stroke-miterlimit:10;stroke-dasharray:none;stroke-opacity:1"
           transform="matrix(1.3333333,0,0,-1.3333333,190.34267,198.56933)" />
        <path
           id="path38"
           d="M -1.55415,2.0722 C -1.42464,1.29512 0,0.1295 0.38852,0 0,-0.1295 -1.42464,-1.29512 -1.55415,-2.0722"
           style="fill:none;stroke:#ff808b;stroke-width:0.6376;stroke-linecap:round;stroke-linejoin:round;stroke-miterlimit:10;stroke-dasharray:none;stroke-opacity:1"
           transform="matrix(0,-1.3333333,-1.3333333,0,379.32139,151.90564)" />
        <path
           id="path39"
           d="m 170.08086,28.3468 v 5.63407"
           style="fill:none;stroke:#ff808b;stroke-width:0.79701;stroke-linecap:butt;stroke-linejoin:miter;stroke-miterlimit:10;stroke-dasharray:none;stroke-opacity:1"
           transform="matrix(1.3333333,0,0,-1.3333333,190.34267,198.56933)" />
        <path
           id="path40"
           d="M -1.55415,2.0722 C -1.42464,1.29512 0,0.1295 0.38852,0 0,-0.1295 -1.42464,-1.29512 -1.55415,-2.0722"
           style="fill:none;stroke:#ff808b;stroke-width:0.6376;stroke-linecap:round;stroke-linejoin:round;stroke-miterlimit:10;stroke-dasharray:none;stroke-opacity:1"
           transform="matrix(0,-1.3333333,-1.3333333,0,417.11715,153.26151)" />
        <path
           id="path41"
           d="m 198.42766,28.3468 v 5.21666"
           style="fill:none;stroke:#ff808b;stroke-width:0.79701;stroke-linecap:butt;stroke-linejoin:miter;stroke-miterlimit:10;stroke-dasharray:none;stroke-opacity:1"
           transform="matrix(1.3333333,0,0,-1.3333333,190.34267,198.56933)" />
        <path
           id="path42"
           d="M -1.55415,2.0722 C -1.42464,1.29512 0,0.1295 0.38852,0 0,-0.1295 -1.42464,-1.29512 -1.55415,-2.0722"
           style="fill:none;stroke:#ff808b;stroke-width:0.6376;stroke-linecap:round;stroke-linejoin:round;stroke-miterlimit:10;stroke-dasharray:none;stroke-opacity:1"
           transform="matrix(0,-1.3333333,-1.3333333,0,454.91288,153.81805)" />
        <path
           id="path43"
           d="m 226.77448,28.3468 v 5.05664"
           style="fill:none;stroke:#ff808b;stroke-width:0.79701;stroke-linecap:butt;stroke-linejoin:miter;stroke-miterlimit:10;stroke-dasharray:none;stroke-opacity:1"
           transform="matrix(1.3333333,0,0,-1.3333333,190.34267,198.56933)" />
        <path
           id="path44"
           d="M -1.55415,2.0722 C -1.42464,1.29512 0,0.1295 0.38852,0 0,-0.1295 -1.42464,-1.29512 -1.55415,-2.0722"
           style="fill:none;stroke:#ff808b;stroke-width:0.6376;stroke-linecap:round;stroke-linejoin:round;stroke-miterlimit:10;stroke-dasharray:none;stroke-opacity:1"
           transform="matrix(0,-1.3333333,-1.3333333,0,492.70864,154.03141)" />
        <path
           id="path45"
           d="m 255.12128,28.3468 v 4.99693"
           style="fill:none;stroke:#ff808b;stroke-width:0.79701;stroke-linecap:butt;stroke-linejoin:miter;stroke-miterlimit:10;stroke-dasharray:none;stroke-opacity:1"
           transform="matrix(1.3333333,0,0,-1.3333333,190.34267,198.56933)" />
        <path
           id="path46"
           d="M -1.55415,2.0722 C -1.42464,1.29512 0,0.1295 0.38852,0 0,-0.1295 -1.42464,-1.29512 -1.55415,-2.0722"
           style="fill:none;stroke:#ff808b;stroke-width:0.6376;stroke-linecap:round;stroke-linejoin:round;stroke-miterlimit:10;stroke-dasharray:none;stroke-opacity:1"
           transform="matrix(0,-1.3333333,-1.3333333,0,530.50437,154.11103)" />
        <path
           id="path47"
           d="m 283.4681,28.3468 v 4.97489"
           style="fill:none;stroke:#ff808b;stroke-width:0.79701;stroke-linecap:butt;stroke-linejoin:miter;stroke-miterlimit:10;stroke-dasharray:none;stroke-opacity:1"
           transform="matrix(1.3333333,0,0,-1.3333333,190.34267,198.56933)" />
        <path
           id="path48"
           d="M -1.55415,2.0722 C -1.42464,1.29512 0,0.1295 0.38852,0 0,-0.1295 -1.42464,-1.29512 -1.55415,-2.0722"
           style="fill:none;stroke:#ff808b;stroke-width:0.6376;stroke-linecap:round;stroke-linejoin:round;stroke-miterlimit:10;stroke-dasharray:none;stroke-opacity:1"
           transform="matrix(0,-1.3333333,-1.3333333,0,568.30013,154.14041)" />
      </g>
      <g
         id="g171"
         inkscape:label="bot"
         style="stroke:#ff808b;stroke-opacity:1">
        <path
           id="path49"
           d="m 0,-19.17093 c 0,0 0.8222,0.01766 1.138,0.02551 0.31578,0.0079 0.8222,0.02329 1.138,0.03115 0.3158,0.0079 0.82222,0.01802 1.138,0.02552 0.3158,0.0075 0.82222,0.02028 1.13802,0.02855 0.31578,0.0083 0.8222,0.02208 1.138,0.03115 0.31579,0.0091 0.82223,0.02553 1.13801,0.03416 0.3158,0.0086 0.82222,0.01949 1.13802,0.02812 0.31578,0.0086 0.8222,0.02433 1.138,0.03415 0.31578,0.0098 0.8222,0.02695 1.138,0.03678 0.3158,0.0098 0.82222,0.02397 1.138,0.03418 0.3158,0.01019 0.82222,0.0288 1.13802,0.03935 0.31578,0.01056 0.82222,0.02615 1.13801,0.03676 0.3158,0.01062 0.82222,0.02833 1.138,0.03981 0.3158,0.01146 0.82222,0.03142 1.13802,0.04281 0.31578,0.0114 0.8222,0.02718 1.138,0.03936 0.31578,0.01217 0.8222,0.03544 1.138,0.04846 0.3158,0.013 0.82222,0.03321 1.138,0.04539 0.3158,0.01218 0.82223,0.02945 1.13803,0.04241 0.31578,0.01295 0.82221,0.03688 1.138,0.05104 0.3158,0.01414 0.82222,0.03689 1.138,0.05104 0.3158,0.01416 0.82222,0.03651 1.13802,0.05104 0.31578,0.01451 0.8222,0.03833 1.138,0.05362 0.31579,0.0153 0.8222,0.04094 1.138,0.05667 0.31579,0.01572 0.82223,0.04054 1.13801,0.05667 0.3158,0.01613 0.82222,0.04276 1.13802,0.05968 0.31578,0.01692 0.8222,0.04536 1.138,0.06228 0.3158,0.01693 0.82222,0.04201 1.138,0.0597 0.3158,0.0177 0.82222,0.04943 1.13802,0.06791 0.31578,0.01846 0.8222,0.04683 1.138,0.06531 0.3158,0.01846 0.82222,0.04865 1.13801,0.0679 0.3158,0.01926 0.82222,0.05091 1.138,0.07095 0.3158,0.02004 0.82222,0.05308 1.13802,0.07354 0.31578,0.02046 0.8222,0.05308 1.138,0.07394 0.3158,0.02088 0.82222,0.05496 1.138,0.07657 0.3158,0.02159 0.82222,0.05715 1.13802,0.07915 0.31578,0.02202 0.82222,0.05678 1.13801,0.07959 0.3158,0.02279 0.82222,0.06163 1.138,0.08478 0.3158,0.02314 0.82222,0.05854 1.138,0.08218 0.3158,0.02364 0.82222,0.06345 1.13802,0.08823 0.31578,0.02478 0.8222,0.06485 1.138,0.0904 0.31579,0.02556 0.82222,0.06789 1.138,0.09386 0.3158,0.02599 0.82223,0.06752 1.13803,0.09343 0.31578,0.02593 0.82221,0.06674 1.138,0.09343 0.31579,0.0267 0.82222,0.07117 1.138,0.09906 0.31579,0.02789 0.82222,0.07374 1.138,0.10207 0.3158,0.02832 0.82222,0.07335 1.13802,0.10207 0.31578,0.02874 0.8222,0.07603 1.138,0.10511 0.31579,0.0291 0.82223,0.07445 1.13801,0.10469 0.3158,0.03023 0.82222,0.08266 1.13802,0.11331 0.31578,0.03067 0.8222,0.07699 1.138,0.10771 0.3158,0.03072 0.82222,0.0819 1.138,0.11376 0.3158,0.03186 0.82222,0.08371 1.13802,0.11592 0.31578,0.03221 0.8222,0.08328 1.138,0.11635 0.31578,0.03306 0.82222,0.08855 1.13802,0.12198 0.31579,0.03343 0.82221,0.08554 1.138,0.11895 0.31579,0.03342 0.82221,0.08735 1.13801,0.12197 0.31578,0.03462 0.8222,0.09219 1.138,0.12761 0.31579,0.0354 0.82222,0.0926 1.138,0.12759 0.31579,0.03497 0.82222,0.08917 1.13802,0.12457 0.31577,0.0354 0.82222,0.09444 1.13801,0.13062 0.31578,0.03618 0.82221,0.09366 1.138,0.1302 0.3158,0.03655 0.82222,0.09584 1.138,0.13321 0.3158,0.03739 0.82222,0.09851 1.13802,0.13626 0.31578,0.03775 0.8222,0.09807 1.138,0.13582 0.31579,0.03775 0.82222,0.09851 1.138,0.13625 0.31579,0.03775 0.82224,0.09773 1.13803,0.13582 0.31578,0.0381 0.82221,0.0999 1.138,0.13883 0.31578,0.03896 0.82221,0.10294 1.138,0.14188 0.3158,0.03896 0.82222,0.10033 1.138,0.13884 0.3158,0.03853 0.82222,0.0999 1.13801,0.13884 0.31579,0.03896 0.82221,0.10252 1.13801,0.14189 0.31579,0.03935 0.82223,0.10257 1.13801,0.14186 0.3158,0.03929 0.82222,0.10214 1.13802,0.14144 0.31578,0.0393 0.8222,0.10252 1.138,0.14189 0.3158,0.03935 0.8222,0.10255 1.138,0.14186 0.3158,0.03929 0.82222,0.10214 1.138,0.14143 0.3158,0.03931 0.82222,0.10253 1.13802,0.14188 0.31578,0.03936 0.82222,0.10257 1.13801,0.14187 0.3158,0.03929 0.82222,0.10227 1.138,0.14144 0.3158,0.03917 0.82223,0.10188 1.13802,0.14102 0.31578,0.03913 0.82221,0.10219 1.138,0.14101 0.31579,0.03882 0.82222,0.10025 1.138,0.13884 0.3158,0.03858 0.82222,0.10075 1.138,0.13928 0.3158,0.03851 0.82223,0.1005 1.13803,0.13841 0.31578,0.03792 0.82221,0.09714 1.138,0.13495 0.3158,0.03781 0.82222,0.09985 1.138,0.13754 0.3158,0.03769 0.82222,0.09696 1.13802,0.13408 0.31578,0.03714 0.8222,0.09688 1.138,0.13367 0.31579,0.03679 0.82222,0.09506 1.138,0.13148 0.31579,0.03644 0.82223,0.09513 1.13801,0.13106 0.3158,0.03595 0.82222,0.09258 1.13802,0.12804 0.31578,0.03546 0.8222,0.09254 1.138,0.12759 0.3158,0.03504 0.82222,0.09039 1.138,0.125 0.3158,0.03462 0.82222,0.09056 1.13802,0.12459 0.31578,0.03401 0.8222,0.08707 1.138,0.12067 0.31579,0.0336 0.82223,0.08834 1.13801,0.12153 0.3158,0.03319 0.82222,0.08531 1.138,0.11766 0.3158,0.03233 0.82222,0.0835 1.13802,0.11548 0.31578,0.03198 0.8222,0.08364 1.138,0.11507 0.3158,0.03143 0.82222,0.08079 1.138,0.11158 0.3158,0.03078 0.82222,0.08 1.13802,0.11031 0.31578,0.03029 0.82222,0.07842 1.13801,0.10813 0.3158,0.0297 0.82222,0.07681 1.138,0.10596 0.3158,0.02917 0.82222,0.07575 1.13802,0.10426 0.31578,0.0285 0.8222,0.07344 1.138,0.10121 0.31578,0.02777 0.8222,0.07187 1.138,0.09906 0.31579,0.02717 0.82223,0.07023 1.13801,0.09687 0.3158,0.02663 0.82222,0.06907 1.13802,0.09517 0.31578,0.0261 0.8222,0.06756 1.138,0.09299 0.3158,0.02544 0.82222,0.06557 1.138,0.09041 0.3158,0.02484 0.82222,0.0645 1.13802,0.08867 0.31578,0.02417 0.8222,0.06218 1.138,0.08563 0.31578,0.02345 0.82222,0.06056 1.13801,0.0835 0.3158,0.02292 0.82222,0.05929 1.138,0.08174 0.3158,0.02243 0.82222,0.05824 1.13802,0.08002 0.31578,0.02177 0.8222,0.05574 1.138,0.07697 0.3158,0.02125 0.82222,0.05533 1.138,0.07613 0.3158,0.02082 0.82222,0.05394 1.13802,0.07397 0.31578,0.02004 0.82222,0.051 1.13801,0.0705 0.31578,0.0195 0.82221,0.05113 1.138,0.07009 0.3158,0.01895 0.82222,0.04824 1.138,0.0666 0.3158,0.01834 0.82222,0.04781 1.13802,0.06575 0.31578,0.01793 0.8222,0.04619 1.138,0.06358 0.3158,0.0174 0.82222,0.04494 1.138,0.06186 0.3158,0.01692 0.82223,0.04373 1.13803,0.06011 0.31578,0.01637 0.82221,0.04219 1.138,0.05797 0.3158,0.01577 0.82221,0.04051 1.138,0.0558 0.3158,0.01529 0.82222,0.03962 1.138,0.0545 0.3158,0.01488 0.82222,0.0383 1.13802,0.05277 0.31578,0.01445 0.8222,0.0375 1.138,0.05147 0.31579,0.01397 0.82223,0.0358 1.13801,0.0493 0.3158,0.0135 0.82222,0.03489 1.13802,0.04801 0.31578,0.01314 0.8222,0.03406 1.138,0.04671 0.3158,0.01265 0.82222,0.03232 1.138,0.04456 0.3158,0.01224 0.82222,0.03181 1.138,0.04368 0.3158,0.01189 0.82222,0.03057 1.13802,0.04197 0.31578,0.01139 0.82222,0.02919 1.13801,0.04022 0.3158,0.01105 0.82222,0.02868 1.138,0.03937 0.3158,0.01066 0.82222,0.02725 1.13802,0.03761 0.31578,0.01037 0.8222,0.02719 1.138,0.0372 0.3158,0.01002 0.82222,0.02545 1.138,0.03505 0.3158,0.00958 0.82222,0.02489 1.138,0.03416 0.3158,0.0093 0.82224,0.02388 1.13803,0.03287 0.31578,0.009 0.82221,0.02333 1.138,0.03203 0.3158,0.00868 0.82222,0.02237 1.138,0.0307 0.3158,0.00833 0.82222,0.02138 1.13802,0.02942 0.31578,0.00804 0.8222,0.02075 1.138,0.02854 0.31579,0.0078 0.82222,0.02013 1.138,0.02769 0.3158,0.00755 0.82223,0.01956 1.13802,0.02681 0.31579,0.00726 0.82221,0.01857 1.13801,0.02551 0.31578,0.00696 0.82221,0.01794 1.138,0.02466 0.31579,0.00673 0.82222,0.01732 1.138,0.02379 0.3158,0.00648 0.82222,0.01669 1.13802,0.02293 0.31578,0.00623 0.8222,0.01601 1.138,0.02205 0.31579,0.00606 0.82223,0.01576 1.13801,0.02164 0.3158,0.00587 0.82222,0.0151 1.13802,0.02075 0.31578,0.00564 0.8222,0.01449 1.138,0.01989 0.31578,0.00541 0.8222,0.01389 1.138,0.01903 0.3158,0.00516 0.82222,0.01314 1.138,0.01818 0.3158,0.00503 0.82222,0.01332 1.13802,0.01817 0.31578,0.00484 0.82222,0.01227 1.13802,0.01686 0.31579,0.00461 0.82221,0.01199 1.138,0.01644 0.31579,0.00443 0.82221,0.01125 1.13801,0.01557 0.31578,0.00431 0.8222,0.01145 1.138,0.01558 0.31578,0.00414 0.8222,0.01032 1.138,0.01427 0.31579,0.00395 0.82222,0.01039 1.138,0.01428 0.31579,0.0039 0.82224,0.01012 1.13803,0.01383 0.31578,0.0037 0.82221,0.00946 1.138,0.01298 0.3158,0.00353 0.82222,0.00914 1.138,0.01254 0.3158,0.00341 0.82222,0.00881 1.13802,0.0121 0.31578,0.0033 0.8222,0.00852 1.138,0.01169 0.31578,0.00318 0.8222,0.00818 1.138,0.01125 0.31579,0.00305 0.82224,0.00789 1.13801,0.01081 0.3158,0.00294 0.82223,0.00757 1.13802,0.01038 0.31578,0.00282 0.82221,0.00727 1.138,0.00995 0.3158,0.00269 0.82222,0.00688 1.138,0.00952 0.3158,0.00263 0.82222,0.00701 1.13801,0.00951 0.31579,0.00252 0.82221,0.00627 1.138,0.00865 0.3158,0.00239 0.82223,0.00632 1.13802,0.00865 0.3158,0.00234 0.82222,0.00597 1.138,0.00823 0.3158,0.00226 0.82222,0.00604 1.13802,0.00821 0.31578,0.00215 0.8222,0.00532 1.138,0.00735 0.3158,0.00205 0.82222,0.00539 1.138,0.00735 0.3158,0.00199 0.82222,0.00501 1.13802,0.00693 0.31578,0.00191 0.82222,0.00505 1.13801,0.00692 0.3158,0.00185 0.82222,0.0047 1.138,0.00648 0.3158,0.0018 0.82223,0.00476 1.138,0.0065 0.3158,0.00172 0.82223,0.00444 1.13802,0.00604 0.31578,0.00162 0.82221,0.00408 1.138,0.00563 0.3158,0.00156 0.82222,0.00414 1.138,0.00563 0.3158,0.00148 0.82223,0.00376 1.13803,0.00517 0.31578,0.00144 0.82221,0.00384 1.138,0.00521 0.3158,0.00137 0.82222,0.00345 1.138,0.00476 0.3158,0.00131 0.82222,0.00345 1.138,0.00476 0.3158,0.0013 0.82222,0.00351 1.13802,0.00476 0.31578,0.00124 0.8222,0.00313 1.138,0.00431 0.31579,0.00119 0.82223,0.0032 1.13801,0.00433 0.3158,0.00114 0.82222,0.00282 1.13802,0.00389 0.31578,0.00108 0.8222,0.00282 1.138,0.00389 0.3158,0.00109 0.82222,0.00289 1.138,0.00391 0.3158,0.001 0.82222,0.0025 1.138,0.00346 0.3158,9.5e-4 0.82222,0.00249 1.13802,0.00345 0.31578,9.6e-4 0.82221,0.00257 1.13801,0.00347 0.3158,9e-4 0.82222,0.00211 1.138,0.00301 0.3158,9e-4 0.82222,0.00264 1.13802,0.00347 0.31578,8.4e-4 0.8222,0.00182 1.138,0.00259 0.3158,7.8e-4 0.82222,0.00224 1.138,0.00303 0.3158,7.7e-4 0.82222,0.00189 1.13802,0.00259 0.31578,7.1e-4 0.82222,0.00189 1.13801,0.00261 0.31578,7.1e-4 0.82221,0.00187 1.138,0.00259 0.3158,7.1e-4 0.82222,0.00194 1.138,0.00258 0.3158,6.6e-4 0.82222,0.00159 1.13802,0.00218 0.31578,6e-4 0.8222,0.00157 1.138,0.00215 0.31579,6e-4 0.82223,0.00157 1.13801,0.00217 0.3158,5.9e-4 0.82222,0.00157 1.13802,0.00215 0.31578,6e-4 0.8222,0.00165 1.138,0.00218 0.31578,5.4e-4 0.8222,0.00125 1.138,0.00171 0.3158,4.7e-4 0.82222,0.00127 1.138,0.00174 0.3158,4.7e-4 0.82222,0.00127 1.13802,0.00174 0.31578,4.6e-4 0.82222,0.00125 1.13801,0.00173 0.3158,4.7e-4 0.82222,0.00126 1.138,0.00173 0.3158,4.8e-4 0.82222,0.00132 1.13802,0.00173 0.31578,4.1e-4 0.8222,9.4e-4 1.138,0.0013 0.31578,3.5e-4 0.8222,8.8e-4 1.138,0.00129 0.3158,4.1e-4 0.82222,0.00132 1.138,0.00173 0.3158,4.1e-4 0.82224,9.4e-4 1.13803,0.0013 0.31578,3.5e-4 0.82221,0.00102 1.138,0.0013 0.3158,3e-4 0.82222,5.7e-4 1.138,8.6e-4 0.3158,2.9e-4 0.82222,9.4e-4 1.13802,0.0013 0.31578,3.5e-4 0.8222,0.001 1.138,0.00129 0.3158,2.9e-4 0.8222,5.8e-4 1.138,8.7e-4 0.3158,2.8e-4 0.82223,0.00101 1.13802,0.0013 0.31579,2.9e-4 0.82222,6.4e-4 1.13801,8.7e-4 0.31578,2.3e-4 0.82221,6.3e-4 1.138,8.6e-4 0.3158,2.2e-4 0.82222,5.8e-4 1.138,8.7e-4 0.3158,2.8e-4 0.82222,10e-4 1.13802,0.00129 0.31578,2.9e-4 0.8222,7e-4 1.138,8.7e-4 0.31579,1.7e-4 0.82223,2.6e-4 1.13801,4.3e-4 0.3158,1.7e-4 0.82222,6.4e-4 1.138,8.7e-4 0.3158,2.3e-4 0.82222,6.4e-4 1.13802,8.7e-4 0.31578,2.1e-4 0.8222,6.9e-4 1.138,8.5e-4 0.3158,1.7e-4 0.82222,2.6e-4 1.138,4.3e-4 0.3158,1.7e-4 0.82222,7e-4 1.13802,8.7e-4 0.31578,1.7e-4 0.82222,2.8e-4 1.13801,4.4e-4 0.3158,1.7e-4 0.82222,7e-4 1.138,8.7e-4 0.3158,1.7e-4 0.82222,2.6e-4 1.138,4.3e-4 0.3158,1.7e-4 0.82222,6.9e-4 1.13802,8.6e-4 0.31578,1.6e-4 0.8222,3.1e-4 1.138,4.2e-4 0.3158,1.1e-4 1.138,4.4e-4 1.138,4.4e-4"
           style="fill:none;stroke:#ff808b;stroke-width:0.79701;stroke-linecap:butt;stroke-linejoin:miter;stroke-miterlimit:10;stroke-dasharray:none;stroke-opacity:1"
           transform="matrix(1.3333333,0,0,-1.3333333,190.34267,198.56933)" />
        <path
           id="path50"
           d="M 0,0 V -18.46358"
           style="fill:none;stroke:#ff808b;stroke-width:0.79701;stroke-linecap:butt;stroke-linejoin:miter;stroke-miterlimit:10;stroke-dasharray:none;stroke-opacity:1"
           transform="matrix(1.3333333,0,0,-1.3333333,190.34267,198.56933)" />
        <path
           id="path51"
           d="M -1.55415,2.0722 C -1.42464,1.29512 0,0.1295 0.38852,0 0,-0.1295 -1.42464,-1.29512 -1.55415,-2.0722"
           style="fill:none;stroke:#ff808b;stroke-width:0.6376;stroke-linecap:round;stroke-linejoin:round;stroke-miterlimit:10;stroke-dasharray:none;stroke-opacity:1"
           transform="matrix(0,1.3333333,1.3333333,0,190.34267,223.18744)" />
        <path
           id="path52"
           d="M 28.3468,0 V -17.44582"
           style="fill:none;stroke:#ff808b;stroke-width:0.79701;stroke-linecap:butt;stroke-linejoin:miter;stroke-miterlimit:10;stroke-dasharray:none;stroke-opacity:1"
           transform="matrix(1.3333333,0,0,-1.3333333,190.34267,198.56933)" />
        <path
           id="path53"
           d="M -1.55415,2.0722 C -1.42464,1.29512 0,0.1295 0.38852,0 0,-0.1295 -1.42464,-1.29512 -1.55415,-2.0722"
           style="fill:none;stroke:#ff808b;stroke-width:0.6376;stroke-linecap:round;stroke-linejoin:round;stroke-miterlimit:10;stroke-dasharray:none;stroke-opacity:1"
           transform="matrix(0,1.3333333,1.3333333,0,228.1384,221.83043)" />
        <path
           id="path54"
           d="M 56.69362,0 V -15.32248"
           style="fill:none;stroke:#ff808b;stroke-width:0.79701;stroke-linecap:butt;stroke-linejoin:miter;stroke-miterlimit:10;stroke-dasharray:none;stroke-opacity:1"
           transform="matrix(1.3333333,0,0,-1.3333333,190.34267,198.56933)" />
        <path
           id="path55"
           d="M -1.55415,2.0722 C -1.42464,1.29512 0,0.1295 0.38852,0 0,-0.1295 -1.42464,-1.29512 -1.55415,-2.0722"
           style="fill:none;stroke:#ff808b;stroke-width:0.6376;stroke-linecap:round;stroke-linejoin:round;stroke-miterlimit:10;stroke-dasharray:none;stroke-opacity:1"
           transform="matrix(0,1.3333333,1.3333333,0,265.93416,218.99931)" />
        <path
           id="path56"
           d="M 85.04042,0 V -12.0486"
           style="fill:none;stroke:#ff808b;stroke-width:0.79701;stroke-linecap:butt;stroke-linejoin:miter;stroke-miterlimit:10;stroke-dasharray:none;stroke-opacity:1"
           transform="matrix(1.3333333,0,0,-1.3333333,190.34267,198.56933)" />
        <path
           id="path57"
           d="M -1.55415,2.0722 C -1.42464,1.29512 0,0.1295 0.38852,0 0,-0.1295 -1.42464,-1.29512 -1.55415,-2.0722"
           style="fill:none;stroke:#ff808b;stroke-width:0.6376;stroke-linecap:round;stroke-linejoin:round;stroke-miterlimit:10;stroke-dasharray:none;stroke-opacity:1"
           transform="matrix(0,1.3333333,1.3333333,0,303.72989,214.63413)" />
        <path
           id="path58"
           d="M 113.38724,0 V -8.77386"
           style="fill:none;stroke:#ff808b;stroke-width:0.79701;stroke-linecap:butt;stroke-linejoin:miter;stroke-miterlimit:10;stroke-dasharray:none;stroke-opacity:1"
           transform="matrix(1.3333333,0,0,-1.3333333,190.34267,198.56933)" />
        <path
           id="path59"
           d="M -1.55415,2.0722 C -1.42464,1.29512 0,0.1295 0.38852,0 0,-0.1295 -1.42464,-1.29512 -1.55415,-2.0722"
           style="fill:none;stroke:#ff808b;stroke-width:0.6376;stroke-linecap:round;stroke-linejoin:round;stroke-miterlimit:10;stroke-dasharray:none;stroke-opacity:1"
           transform="matrix(0,1.3333333,1.3333333,0,341.52565,210.26781)" />
        <path
           id="path60"
           d="M 141.73404,0 V -6.65097"
           style="fill:none;stroke:#ff808b;stroke-width:0.79701;stroke-linecap:butt;stroke-linejoin:miter;stroke-miterlimit:10;stroke-dasharray:none;stroke-opacity:1"
           transform="matrix(1.3333333,0,0,-1.3333333,190.34267,198.56933)" />
        <path
           id="path61"
           d="M -1.55415,2.0722 C -1.42464,1.29512 0,0.1295 0.38852,0 0,-0.1295 -1.42464,-1.29512 -1.55415,-2.0722"
           style="fill:none;stroke:#ff808b;stroke-width:0.6376;stroke-linecap:round;stroke-linejoin:round;stroke-miterlimit:10;stroke-dasharray:none;stroke-opacity:1"
           transform="matrix(0,1.3333333,1.3333333,0,379.32139,207.43729)" />
        <path
           id="path62"
           d="M 170.08086,0 V -5.63406"
           style="fill:none;stroke:#ff808b;stroke-width:0.79701;stroke-linecap:butt;stroke-linejoin:miter;stroke-miterlimit:10;stroke-dasharray:none;stroke-opacity:1"
           transform="matrix(1.3333333,0,0,-1.3333333,190.34267,198.56933)" />
        <path
           id="path63"
           d="M -1.55415,2.0722 C -1.42464,1.29512 0,0.1295 0.38852,0 0,-0.1295 -1.42464,-1.29512 -1.55415,-2.0722"
           style="fill:none;stroke:#ff808b;stroke-width:0.6376;stroke-linecap:round;stroke-linejoin:round;stroke-miterlimit:10;stroke-dasharray:none;stroke-opacity:1"
           transform="matrix(0,1.3333333,1.3333333,0,417.11715,206.08141)" />
        <path
           id="path64"
           d="M 198.42766,0 V -5.21666"
           style="fill:none;stroke:#ff808b;stroke-width:0.79701;stroke-linecap:butt;stroke-linejoin:miter;stroke-miterlimit:10;stroke-dasharray:none;stroke-opacity:1"
           transform="matrix(1.3333333,0,0,-1.3333333,190.34267,198.56933)" />
        <path
           id="path65"
           d="M -1.55415,2.0722 C -1.42464,1.29512 0,0.1295 0.38852,0 0,-0.1295 -1.42464,-1.29512 -1.55415,-2.0722"
           style="fill:none;stroke:#ff808b;stroke-width:0.6376;stroke-linecap:round;stroke-linejoin:round;stroke-miterlimit:10;stroke-dasharray:none;stroke-opacity:1"
           transform="matrix(0,1.3333333,1.3333333,0,454.91288,205.52488)" />
        <path
           id="path66"
           d="M 226.77448,0 V -5.05663"
           style="fill:none;stroke:#ff808b;stroke-width:0.79701;stroke-linecap:butt;stroke-linejoin:miter;stroke-miterlimit:10;stroke-dasharray:none;stroke-opacity:1"
           transform="matrix(1.3333333,0,0,-1.3333333,190.34267,198.56933)" />
        <path
           id="path67"
           d="M -1.55415,2.0722 C -1.42464,1.29512 0,0.1295 0.38852,0 0,-0.1295 -1.42464,-1.29512 -1.55415,-2.0722"
           style="fill:none;stroke:#ff808b;stroke-width:0.6376;stroke-linecap:round;stroke-linejoin:round;stroke-miterlimit:10;stroke-dasharray:none;stroke-opacity:1"
           transform="matrix(0,1.3333333,1.3333333,0,492.70864,205.31151)" />
        <path
           id="path68"
           d="M 255.12128,0 V -4.99693"
           style="fill:none;stroke:#ff808b;stroke-width:0.79701;stroke-linecap:butt;stroke-linejoin:miter;stroke-miterlimit:10;stroke-dasharray:none;stroke-opacity:1"
           transform="matrix(1.3333333,0,0,-1.3333333,190.34267,198.56933)" />
        <path
           id="path69"
           d="M -1.55415,2.0722 C -1.42464,1.29512 0,0.1295 0.38852,0 0,-0.1295 -1.42464,-1.29512 -1.55415,-2.0722"
           style="fill:none;stroke:#ff808b;stroke-width:0.6376;stroke-linecap:round;stroke-linejoin:round;stroke-miterlimit:10;stroke-dasharray:none;stroke-opacity:1"
           transform="matrix(0,1.3333333,1.3333333,0,530.50437,205.23191)" />
        <path
           id="path70"
           d="M 283.4681,0 V -4.97487"
           style="fill:none;stroke:#ff808b;stroke-width:0.79701;stroke-linecap:butt;stroke-linejoin:miter;stroke-miterlimit:10;stroke-dasharray:none;stroke-opacity:1"
           transform="matrix(1.3333333,0,0,-1.3333333,190.34267,198.56933)" />
        <path
           id="path71"
           d="M -1.55415,2.0722 C -1.42464,1.29512 0,0.1295 0.38852,0 0,-0.1295 -1.42464,-1.29512 -1.55415,-2.0722"
           style="fill:none;stroke:#ff808b;stroke-width:0.6376;stroke-linecap:round;stroke-linejoin:round;stroke-miterlimit:10;stroke-dasharray:none;stroke-opacity:1"
           transform="matrix(0,1.3333333,1.3333333,0,568.30013,205.20249)" />
      </g>
      <g
         id="g174"
         transform="translate(24.81299,4.9209994)"
         style="stroke:#ff808b;stroke-opacity:1">
        <path
           id="path72"
           d="m 141.73404,45.35506 h 84.33307"
           style="fill:none;stroke:#ff808b;stroke-width:0.79701;stroke-linecap:butt;stroke-linejoin:miter;stroke-miterlimit:10;stroke-dasharray:none;stroke-opacity:1"
           transform="matrix(1.3333333,0,0,-1.3333333,190.34267,198.56933)" />
        <path
           id="path73"
           d="M -1.55415,2.0722 C -1.42464,1.29512 0,0.1295 0.38852,0 0,-0.1295 -1.42464,-1.29512 -1.55415,-2.0722"
           style="fill:none;stroke:#ff808b;stroke-width:0.6376;stroke-linecap:round;stroke-linejoin:round;stroke-miterlimit:10;stroke-dasharray:none;stroke-opacity:1"
           transform="matrix(1.3333333,0,0,-1.3333333,491.76548,138.09592)" />
      </g>
      <text
         xml:space="preserve"
         style="font-size:16px;line-height:1;font-family:'Century Gothic';-inkscape-font-specification:'Century Gothic';text-align:start;text-decoration-color:#000000;writing-mode:lr-tb;direction:ltr;text-anchor:start;opacity:1;fill:#ff808b;stroke:none;stroke-width:3.78;stroke-dasharray:none;fill-opacity:1"
         x="378.07907"
         y="132.59375"
         id="text171"><tspan
           sodipodi:role="line"
           id="tspan171"
           x="378.07907"
           y="132.59375"
           style="font-size:16px;fill:#ff808b;fill-opacity:1">Avance chargement </tspan></text>
    </g>
    <g
       id="g175"
       inkscape:label="Geometry">
      <path
         id="path4"
         d="M 0,0 H 283.4681"
         style="fill:none;stroke:#000000;stroke-width:0.79701;stroke-linecap:butt;stroke-linejoin:miter;stroke-miterlimit:10;stroke-dasharray:none;stroke-opacity:1"
         transform="matrix(1.3333333,0,0,-1.3333333,190.34267,198.56933)" />
      <path
         id="path5"
         d="M 283.4681,0 V 28.3468"
         style="fill:none;stroke:#000000;stroke-width:0.79701;stroke-linecap:butt;stroke-linejoin:miter;stroke-miterlimit:10;stroke-dasharray:none;stroke-opacity:1"
         transform="matrix(1.3333333,0,0,-1.3333333,190.34267,198.56933)" />
      <path
         id="path6"
         d="M 283.4681,28.3468 H 0"
         style="fill:none;stroke:#000000;stroke-width:0.79701;stroke-linecap:butt;stroke-linejoin:miter;stroke-miterlimit:10;stroke-dasharray:none;stroke-opacity:1"
         transform="matrix(1.3333333,0,0,-1.3333333,190.34267,198.56933)" />
      <path
         id="path7"
         d="M 0,28.3468 V 0"
         style="fill:none;stroke:#000000;stroke-width:0.79701;stroke-linecap:butt;stroke-linejoin:miter;stroke-miterlimit:10;stroke-dasharray:none;stroke-opacity:1"
         transform="matrix(1.3333333,0,0,-1.3333333,190.34267,198.56933)" />
      <path
         id="path8"
         d="M 0,21.2601 H 28.3468"
         style="fill:none;stroke:#000000;stroke-width:0.75000002;stroke-linecap:butt;stroke-linejoin:miter;stroke-miterlimit:10;stroke-dasharray:none;stroke-opacity:1"
         transform="matrix(1.3333333,0,0,-1.3333333,190.34267,198.56933)" />
      <path
         id="path9"
         d="M 0.70735,14.17339 H 27.63943"
         style="fill:none;stroke:#000000;stroke-width:0.79701;stroke-linecap:butt;stroke-linejoin:miter;stroke-miterlimit:10;stroke-dasharray:none;stroke-opacity:1"
         transform="matrix(1.3333333,0,0,-1.3333333,190.34267,198.56933)" />
      <path
         id="path10"
         d="M -1.55415,2.0722 C -1.42464,1.29512 0,0.1295 0.38852,0 0,-0.1295 -1.42464,-1.29512 -1.55415,-2.0722"
         style="fill:none;stroke:#000000;stroke-width:0.6376;stroke-linecap:round;stroke-linejoin:round;stroke-miterlimit:10;stroke-dasharray:none;stroke-opacity:1"
         transform="matrix(-1.3333333,0,0,1.3333333,191.2858,179.67148)" />
      <path
         id="path11"
         d="M -1.55415,2.0722 C -1.42464,1.29512 0,0.1295 0.38852,0 0,-0.1295 -1.42464,-1.29512 -1.55415,-2.0722"
         style="fill:none;stroke:#000000;stroke-width:0.6376;stroke-linecap:round;stroke-linejoin:round;stroke-miterlimit:10;stroke-dasharray:none;stroke-opacity:1"
         transform="matrix(1.3333333,0,0,-1.3333333,227.19524,179.67148)" />
      <path
         id="path12"
         d="m 4.0670469,-4.125625 c -0.1875,-0.3984375 -0.5039063,-0.703125 -0.9960938,-0.703125 -1.2773437,0 -2.63671872,1.6054687 -2.63671872,3.1992187 0,1.03125005 0.59765622,1.7460938 1.45312502,1.7460938 0.2226562,0 0.7617187,-0.03515625 1.4179687,-0.8203125 0.09375,0.46875 0.46875,0.8203125 0.9960938,0.8203125 0.375,0 0.6328125,-0.24609375 0.8085937,-0.59765625 0.1875,-0.38671875 0.328125,-1.05468755 0.328125,-1.07812505 0,-0.1054687 -0.1054687,-0.1054687 -0.140625,-0.1054687 -0.1054687,0 -0.1171875,0.035156 -0.1523437,0.1875 -0.1757813,0.71484375 -0.375,1.359375 -0.8203125,1.359375 -0.2929688,0 -0.328125,-0.28125 -0.328125,-0.50390625 0,-0.24609375 0.023438,-0.328125 0.140625,-0.80859375 0.1171875,-0.4570313 0.140625,-0.5625 0.234375,-0.984375 L 4.7701719,-3.938125 c 0.070312,-0.3046875 0.070312,-0.328125 0.070312,-0.375 0,-0.1875 -0.1289063,-0.2929688 -0.3164063,-0.2929688 -0.2578125,0 -0.421875,0.2460938 -0.4570307,0.4804688 z m -0.703125,2.8242187 c -0.058594,0.1992188 -0.058594,0.2226563 -0.2226563,0.4101563 -0.4804687,0.59765625 -0.9257812,0.7734375 -1.2304687,0.7734375 -0.5507813,0 -0.703125,-0.59765625 -0.703125,-1.03125 0,-0.5390625 0.3515625,-1.8867188 0.609375,-2.390625 0.328125,-0.6445313 0.8203125,-1.0429688 1.265625,-1.0429688 0.703125,0 0.8554687,0.890625 0.8554687,0.9609375 0,0.058594 -0.023437,0.1289063 -0.035156,0.1875 z m 0,0"
         style="fill:#000000;fill-opacity:1;fill-rule:nonzero;stroke:none"
         aria-label="a"
         transform="matrix(1.3333333,0,0,1.3333333,202.24133,191.31333)" />
      <path
         id="path13"
         d="m 3.9026094,-2.5418984 c 0,-0.8554688 -0.09375,-1.3710938 -0.3515625,-1.875 -0.3515625,-0.703125 -0.9960938,-0.8789063 -1.4414063,-0.8789063 -0.9960937,0 -1.37109373,0.75 -1.47656248,0.9726563 -0.29296875,0.5742187 -0.3046875,1.3710937 -0.3046875,1.78125 0,0.5273437 0.0234375,1.3359375 0.41015625,1.96874996 0.36328123,0.5859375 0.94921873,0.73828125 1.37109373,0.73828125 0.3867188,0 1.0664063,-0.1171875 1.4648438,-0.90234375 0.2929687,-0.57421876 0.328125,-1.28906246 0.328125,-1.80468746 z m -1.7929688,2.48437496 c -0.2695312,0 -0.8203125,-0.12890625 -0.984375,-0.96093746 -0.09375,-0.4570313 -0.09375,-1.2070313 -0.09375,-1.6171875 0,-0.5507813 0,-1.1132813 0.09375,-1.546875 0.1640625,-0.8085938 0.7851563,-0.890625 0.984375,-0.890625 0.2695313,0 0.8203125,0.1289062 0.984375,0.8554687 0.09375,0.4453125 0.09375,1.0429688 0.09375,1.5820313 0,0.46875 0,1.1835937 -0.09375,1.6289062 -0.1640625,0.84375001 -0.7148437,0.94921876 -0.984375,0.94921876 z m 0,0"
         style="fill:#000000;fill-opacity:1;fill-rule:nonzero;stroke:none"
         aria-label="0"
         transform="matrix(1.3333333,0,0,1.3333333,209.92933,193.49467)" />
      <path
         id="path14"
         d="m 183.91822,178.72833 v -7.56264"
         style="fill:none;stroke:#000000;stroke-width:1.06268;stroke-linecap:butt;stroke-linejoin:miter;stroke-miterlimit:10;stroke-dasharray:none;stroke-opacity:1" />
      <path
         id="path15"
         d="m 186.68114,176.65613 c -1.0361,0.17268 -2.59026,2.0722 -2.76293,2.59023 -0.17267,-0.51803 -1.72683,-2.41755 -2.76293,-2.59023"
         style="fill:none;stroke:#000000;stroke-width:0.850133;stroke-linecap:round;stroke-linejoin:round;stroke-miterlimit:10;stroke-dasharray:none;stroke-opacity:1" />
      <path
         id="path16"
         d="m 181.15528,173.23789 c 1.0361,-0.17268 2.59026,-2.0722 2.76293,-2.59023 0.17267,0.51803 1.72683,2.41755 2.76293,2.59023"
         style="fill:none;stroke:#000000;stroke-width:0.850133;stroke-linecap:round;stroke-linejoin:round;stroke-miterlimit:10;stroke-dasharray:none;stroke-opacity:1" />
      <path
         id="path17"
         d="m 174.01562,174.71875 c 0.42188,0 1.5,-0.0312 2.23438,-0.32812 1.01562,-0.4375 1.07812,-1.29688 1.07812,-1.5 0,-0.64063 -0.54687,-1.25 -1.54687,-1.25 -1.625,0 -3.8125,1.42187 -3.8125,3.96875 0,1.48437 0.85937,2.625 2.28125,2.625 2.07812,0 3.29687,-1.53125 3.29687,-1.71875 0,-0.0781 -0.0781,-0.1875 -0.17187,-0.1875 -0.0625,0 -0.0937,0.0312 -0.1875,0.15625 -1.14063,1.4375 -2.73438,1.4375 -2.90625,1.4375 -1.14063,0 -1.26563,-1.21875 -1.26563,-1.6875 0,-0.17188 0.0156,-0.625 0.23438,-1.51563 z m -0.6875,-0.32812 c 0.57813,-2.20313 2.07813,-2.42188 2.45313,-2.42188 0.6875,0 1.07812,0.42188 1.07812,0.92188 0,1.5 -2.32812,1.5 -2.92187,1.5 z m 0,0"
         style="fill:#000000;fill-opacity:1;fill-rule:nonzero;stroke:none;stroke-width:1.33333"
         aria-label="e" />
      <path
         id="path18"
         d="M 0.70735,-28.3468 H 282.76073"
         style="fill:none;stroke:#000000;stroke-width:0.79701;stroke-linecap:butt;stroke-linejoin:miter;stroke-miterlimit:10;stroke-dasharray:none;stroke-opacity:1"
         transform="matrix(1.3333333,0,0,-1.3333333,190.34267,198.56933)" />
      <path
         id="path19"
         d="M -1.55415,2.0722 C -1.42464,1.29512 0,0.1295 0.38852,0 0,-0.1295 -1.42464,-1.29512 -1.55415,-2.0722"
         style="fill:none;stroke:#000000;stroke-width:0.6376;stroke-linecap:round;stroke-linejoin:round;stroke-miterlimit:10;stroke-dasharray:none;stroke-opacity:1"
         transform="matrix(-1.3333333,0,0,1.3333333,191.2858,236.36507)" />
      <path
         id="path20"
         d="M -1.55415,2.0722 C -1.42464,1.29512 0,0.1295 0.38852,0 0,-0.1295 -1.42464,-1.29512 -1.55415,-2.0722"
         style="fill:none;stroke:#000000;stroke-width:0.6376;stroke-linecap:round;stroke-linejoin:round;stroke-miterlimit:10;stroke-dasharray:none;stroke-opacity:1"
         transform="matrix(1.3333333,0,0,-1.3333333,567.35697,236.36507)" />
      <path
         id="path21"
         d="m 10.008867,-6.1868047 c 0.269531,-0.4804687 0.527344,-0.8671875 1.21875,-0.9257812 0.09375,-0.011719 0.210938,-0.011719 0.210938,-0.2226563 0,-0.035156 -0.04687,-0.1171875 -0.128907,-0.1171875 -0.269531,0 -0.574218,0.035156 -0.84375,0.035156 -0.375,0 -0.7734371,-0.035156 -1.1367183,-0.035156 -0.070312,0 -0.2109375,0 -0.2109375,0.2109375 0,0.1171875 0.1054687,0.1289063 0.1640625,0.1289063 0.2695312,0.011719 0.6445312,0.09375 0.6445312,0.421875 0,0.1289062 -0.046875,0.2109375 -0.140625,0.3632812 L 6.8448047,-1.1828984 6.4346484,-6.5969609 c -0.011719,-0.2226563 -0.035156,-0.5039063 0.7617188,-0.515625 0.1875,0 0.3046875,0 0.3046875,-0.2226563 0,-0.1054687 -0.1289063,-0.1171875 -0.1640625,-0.1171875 -0.4453125,0 -0.9023438,0.035156 -1.3359375,0.035156 -0.2460938,0 -0.890625,-0.035156 -1.1484375,-0.035156 -0.058594,0 -0.1992188,0 -0.1992188,0.2226563 0,0.1171875 0.1054688,0.1171875 0.2578125,0.1171875 0.4804688,0 0.5507813,0.070312 0.5742188,0.2695312 l 0.070312,0.84375 -2.765625,4.8164063 -0.4101563,-5.53125 c 0,-0.140625 0,-0.3867188 0.8320313,-0.3984375 0.1054687,0 0.2226562,0 0.2226562,-0.2226563 0,-0.1171875 -0.1289062,-0.1171875 -0.1523437,-0.1171875 -0.4335938,0 -0.890625,0.035156 -1.3359375,0.035156 -0.3867188,0 -0.7734375,-0.035156 -1.14843751,-0.035156 -0.0585938,0 -0.19921875,0 -0.19921875,0.2109375 0,0.1289063 0.10546875,0.1289063 0.26953125,0.1289063 0.55078121,0 0.56250001,0.09375 0.58593751,0.3984375 l 0.4921875,6.66796871 c 0.011719,0.19921875 0.023437,0.28125 0.1757812,0.28125 0.1289063,0 0.1640625,-0.0585938 0.2578125,-0.22265625 l 3.2109375,-5.56640626 0.3984375,5.50781251 c 0.023437,0.234375 0.046875,0.28125 0.1757813,0.28125 0.140625,0 0.2109375,-0.10546875 0.2578125,-0.19921875 z m 0,0"
         style="fill:#000000;fill-opacity:1;fill-rule:nonzero;stroke:none"
         aria-label="W"
         transform="matrix(1.3333333,0,0,1.3333333,371.44,251.68267)" />
      <path
         id="path22"
         d="M 289.13736,0.70735 V 27.63943"
         style="fill:none;stroke:#000000;stroke-width:0.79701;stroke-linecap:butt;stroke-linejoin:miter;stroke-miterlimit:10;stroke-dasharray:none;stroke-opacity:1"
         transform="matrix(1.3333333,0,0,-1.3333333,190.34267,198.56933)" />
      <path
         id="path23"
         d="M -1.55415,2.0722 C -1.42464,1.29512 0,0.1295 0.38852,0 0,-0.1295 -1.42464,-1.29512 -1.55415,-2.0722"
         style="fill:none;stroke:#000000;stroke-width:0.6376;stroke-linecap:round;stroke-linejoin:round;stroke-miterlimit:10;stroke-dasharray:none;stroke-opacity:1"
         transform="matrix(0,1.3333333,1.3333333,0,575.85915,197.6262)" />
      <path
         id="path24"
         d="M -1.55415,2.0722 C -1.42464,1.29512 0,0.1295 0.38852,0 0,-0.1295 -1.42464,-1.29512 -1.55415,-2.0722"
         style="fill:none;stroke:#00002c;stroke-width:0.6376;stroke-linecap:round;stroke-linejoin:round;stroke-miterlimit:10;stroke-dasharray:none;stroke-opacity:1"
         transform="matrix(0,-1.3333333,-1.3333333,0,575.85915,161.71676)" />
      <path
         id="path25"
         d="M 8.3210937,-6.6099063 C 8.4265625,-7.0083438 8.45,-7.1138125 9.246875,-7.1138125 c 0.28125,0 0.3632812,0 0.3632812,-0.2226563 0,-0.1171875 -0.1171875,-0.1171875 -0.1523437,-0.1171875 -0.3046875,0 -1.0898438,0.035156 -1.3945313,0.035156 -0.3164062,0 -1.0898437,-0.035156 -1.40625,-0.035156 -0.09375,0 -0.2109375,0 -0.2109375,0.2226563 0,0.1171875 0.1054688,0.1171875 0.3046875,0.1171875 0.023437,0 0.234375,0 0.421875,0.023437 0.1875,0.023437 0.2929688,0.035156 0.2929688,0.1757812 0,0.035156 -0.011719,0.058594 -0.046875,0.1992188 L 6.7625,-4.0435 H 3.434375 l 0.6445312,-2.5664063 c 0.1054688,-0.3984375 0.1289063,-0.5039062 0.9140625,-0.5039062 0.2929688,0 0.375,0 0.375,-0.2226563 0,-0.1171875 -0.1171875,-0.1171875 -0.1523437,-0.1171875 -0.3046875,0 -1.0898438,0.035156 -1.3945313,0.035156 -0.3164062,0 -1.0898437,-0.035156 -1.40625,-0.035156 -0.09375,0 -0.2109375,0 -0.2109375,0.2226563 0,0.1171875 0.09375,0.1171875 0.3046875,0.1171875 0.023437,0 0.234375,0 0.421875,0.023437 0.1875,0.023437 0.2929688,0.035156 0.2929688,0.1757812 0,0.035156 -0.011719,0.070312 -0.046875,0.1992188 L 1.7117187,-0.856 C 1.60625,-0.42240625 1.5828125,-0.340375 0.715625,-0.340375 c -0.1875,0 -0.29296875,0 -0.29296875,0.22265625 0,0.1171875 0.12890625,0.1171875 0.15234375,0.1171875 0.3046875,0 1.0898437,-0.03515625 1.3945312,-0.03515625 0.2226563,0 0.46875,0.01171875 0.6914063,0.01171875 0.2460937,0 0.4804687,0.0234375 0.7148437,0.0234375 0.082031,0 0.2109375,0 0.2109375,-0.22265625 0,-0.1171875 -0.09375,-0.1171875 -0.3046875,-0.1171875 -0.3984375,0 -0.703125,0 -0.703125,-0.19921875 0,-0.0585938 0.023437,-0.1171875 0.035156,-0.17578125 l 0.7382812,-3 h 3.328125 c -0.4570312,1.8164062 -0.7148437,2.84765625 -0.75,3.01171875 -0.1171875,0.3515625 -0.3164062,0.36328125 -0.9960937,0.36328125 -0.1640625,0 -0.2695313,0 -0.2695313,0.22265625 0,0.1171875 0.140625,0.1171875 0.1640625,0.1171875 0.3046875,0 1.078125,-0.03515625 1.3828125,-0.03515625 0.2226563,0 0.46875,0.01171875 0.6914063,0.01171875 0.2460937,0 0.4804687,0.0234375 0.7148437,0.0234375 0.082031,0 0.2109375,0 0.2109375,-0.22265625 0,-0.1171875 -0.09375,-0.1171875 -0.3046875,-0.1171875 -0.3984375,0 -0.703125,0 -0.703125,-0.19921875 0,-0.0585938 0.023437,-0.1171875 0.035156,-0.17578125 z m 0,0"
         style="fill:#000000;fill-opacity:1;fill-rule:nonzero;stroke:none"
         aria-label="H"
         transform="matrix(1.3333333,0,0,1.3333333,581.23333,184.64133)" />
      <path
         id="path147"
         d=""
         style="fill:#000000;fill-opacity:1;fill-rule:nonzero;stroke:none"
         aria-label="λestleparamètredechargementquicorrespondàl’avancéedel’échelonet"
         transform="matrix(1.3333333,0,0,1.3333333,241.072,720.172)" />
      <path
         id="path148"
         d=""
         style="fill:#000000;fill-opacity:1;fill-rule:nonzero;stroke:none"
         aria-label="δestlalongueurcaractéristiquedelazonedetransition.Lesparamètresutiliséspourcetteétudesont&#10;détaillésdansle"
         transform="matrix(1.3333333,0,0,1.3333333,96,740.948)" />
    </g>
  </g>
</svg>
