<?xml version="1.0" encoding="UTF-8" standalone="no"?>
<svg
   width="206.66493pt"
   height="118.95586pt"
   viewBox="0 0 206.66494 118.95588"
   version="1.1"
   id="svg99"
   sodipodi:docname="test.svg"
   inkscape:version="1.4.3 (0d15f75042, 2025-12-25)"
   xmlns:inkscape="http://www.inkscape.org/namespaces/inkscape"
   xmlns:sodipodi="http://sodipodi.sourceforge.net/DTD/sodipodi-0.dtd"
   xmlns:xlink="http://www.w3.org/1999/xlink"
   xmlns="http://www.w3.org/2000/svg"
   xmlns:svg="http://www.w3.org/2000/svg"
   xmlns:rdf="http://www.w3.org/1999/02/22-rdf-syntax-ns#"
   xmlns:cc="http://creativecommons.org/ns#"
   xmlns:dc="http://purl.org/dc/elements/1.1/">
  <sodipodi:namedview
     id="namedview99"
     pagecolor="#ffffff"
     bordercolor="#000000"
     borderopacity="0.25"
     inkscape:showpageshadow="2"
     inkscape:pageopacity="0.0"
     inkscape:pagecheckerboard="0"
     inkscape:deskcolor="#d1d1d1"
     inkscape:document-units="pt"
     inkscape:zoom="1.6164414"
     inkscape:cx="154.66072"
     inkscape:cy="122.80061"
     inkscape:window-width="1916"
     inkscape:window-height="1021"
     inkscape:window-x="0"
     inkscape:window-y="0"
     inkscape:window-maximized="0"
     inkscape:current-layer="matplotlib.axis_2" />
  <metadata
     id="metadata1">
    <rdf:RDF>
      <cc:Work>
        <dc:type
           rdf:resource="http://purl.org/dc/dcmitype/StillImage" />
        <dc:date>2026-05-13T17:36:06.741215</dc:date>
        <dc:format>image/svg+xml</dc:format>
        <dc:creator>
          <cc:Agent>
            <dc:title>Matplotlib v3.10.7, https://matplotlib.org/</dc:title>
          </cc:Agent>
        </dc:creator>
      </cc:Work>
    </rdf:RDF>
  </metadata>
  <defs
     id="defs1">
    <style
       type="text/css"
       id="style1">*{stroke-linejoin: round; stroke-linecap: butt}</style>
  </defs>
  <g
     id="figure_1"
     transform="translate(-19.514688,-7.615)">
    <g
       id="patch_1" />
    <g
       id="axes_1">
      <g
         id="patch_2">
        <path
           d="M 43.109178,124.57431 H 222.55192 V 23.4425 H 43.109178 Z"
           style="fill:#ffffff"
           id="path2" />
      </g>
      <g
         id="matplotlib.axis_1">
        <g
           id="xtick_1">
          <g
             id="line2d_1">
            <defs
               id="defs2">
              <path
                 id="m48a8d3f1c2"
                 d="M 0,0 V 3.5"
                 style="stroke:#000000;stroke-width:0.8" />
            </defs>
            <g
               id="g2">
              <use
                 xlink:href="#m48a8d3f1c2"
                 x="46.560001"
                 y="35.233017"
                 style="stroke:#000000;stroke-width:0.8"
                 id="use2" />
            </g>
          </g>
        </g>
        <g
           id="xtick_2">
          <g
             id="line2d_2">
            <g
               id="g3">
              <use
                 xlink:href="#m48a8d3f1c2"
                 x="81.068222"
                 y="35.233017"
                 style="stroke:#000000;stroke-width:0.8"
                 id="use3" />
            </g>
          </g>
          <g
             id="text_1">
            <!-- 0.5 -->
            <g
               transform="matrix(0.1,0,0,-0.1,73.116658,49.831455)"
               id="g6">
              <defs
                 id="defs3">
                <path
                   id="DejaVuSans-30"
                   d="m 2034,4250 q -487,0 -733,-480 -245,-479 -245,-1442 0,-959 245,-1439 246,-480 733,-480 491,0 736,480 246,480 246,1439 0,963 -246,1442 -245,480 -736,480 z m 0,500 q 785,0 1199,-621 414,-620 414,-1801 0,-1178 -414,-1799 -414,-620 -1199,-620 -784,0 -1198,620 -414,621 -414,1799 0,1181 414,1801 414,621 1198,621 z"
                   transform="scale(0.015625)" />
                <path
                   id="DejaVuSans-2e"
                   d="m 684,794 h 660 V 0 H 684 Z"
                   transform="scale(0.015625)" />
                <path
                   id="DejaVuSans-35"
                   d="M 691,4666 H 3169 V 4134 H 1269 V 2991 q 137,47 274,70 138,23 276,23 781,0 1237,-428 457,-428 457,-1159 Q 3513,744 3044,326 2575,-91 1722,-91 1428,-91 1123,-41 819,9 494,109 v 635 q 281,-153 581,-228 300,-75 634,-75 541,0 856,284 316,284 316,772 0,487 -316,771 -315,285 -856,285 -253,0 -505,-56 -251,-56 -513,-175 z"
                   transform="scale(0.015625)" />
              </defs>
              <use
                 xlink:href="#DejaVuSans-30"
                 id="use4" />
              <use
                 xlink:href="#DejaVuSans-2e"
                 transform="translate(63.623047)"
                 id="use5" />
              <use
                 xlink:href="#DejaVuSans-35"
                 transform="translate(95.410156)"
                 id="use6" />
            </g>
          </g>
        </g>
        <g
           id="xtick_3">
          <g
             id="line2d_3">
            <g
               id="g7">
              <use
                 xlink:href="#m48a8d3f1c2"
                 x="115.57644"
                 y="35.233017"
                 style="stroke:#000000;stroke-width:0.8"
                 id="use7" />
            </g>
          </g>
          <g
             id="text_2">
            <!-- 1.0 -->
            <g
               transform="matrix(0.1,0,0,-0.1,107.62488,49.831455)"
               id="g10">
              <defs
                 id="defs7">
                <path
                   id="DejaVuSans-31"
                   d="M 794,531 H 1825 V 4091 L 703,3866 v 575 l 1116,225 h 631 V 531 H 3481 V 0 H 794 Z"
                   transform="scale(0.015625)" />
              </defs>
              <use
                 xlink:href="#DejaVuSans-31"
                 id="use8" />
              <use
                 xlink:href="#DejaVuSans-2e"
                 transform="translate(63.623047)"
                 id="use9" />
              <use
                 xlink:href="#DejaVuSans-30"
                 transform="translate(95.410156)"
                 id="use10" />
            </g>
          </g>
        </g>
        <g
           id="xtick_4">
          <g
             id="line2d_4">
            <g
               id="g11">
              <use
                 xlink:href="#m48a8d3f1c2"
                 x="150.08466"
                 y="35.233017"
                 style="stroke:#000000;stroke-width:0.8"
                 id="use11" />
            </g>
          </g>
          <g
             id="text_3">
            <!-- 1.5 -->
            <g
               transform="matrix(0.1,0,0,-0.1,142.1331,49.831455)"
               id="g14">
              <use
                 xlink:href="#DejaVuSans-31"
                 id="use12" />
              <use
                 xlink:href="#DejaVuSans-2e"
                 transform="translate(63.623047)"
                 id="use13" />
              <use
                 xlink:href="#DejaVuSans-35"
                 transform="translate(95.410156)"
                 id="use14" />
            </g>
          </g>
        </g>
        <g
           id="xtick_5">
          <g
             id="line2d_5">
            <g
               id="g15">
              <use
                 xlink:href="#m48a8d3f1c2"
                 x="184.59288"
                 y="35.233017"
                 style="stroke:#000000;stroke-width:0.8"
                 id="use15" />
            </g>
          </g>
          <g
             id="text_4">
            <!-- 2.0 -->
            <g
               transform="matrix(0.1,0,0,-0.1,176.64132,49.831455)"
               id="g18">
              <defs
                 id="defs15">
                <path
                   id="DejaVuSans-32"
                   d="M 1228,531 H 3431 V 0 H 469 v 531 q 359,372 979,998 621,627 780,809 303,340 423,576 121,236 121,464 0,372 -261,606 -261,235 -680,235 -297,0 -627,-103 -329,-103 -704,-313 v 638 q 381,153 712,231 332,78 607,78 725,0 1156,-363 431,-362 431,-968 0,-288 -108,-546 -107,-257 -392,-607 -78,-91 -497,-524 Q 1991,1309 1228,531 Z"
                   transform="scale(0.015625)" />
              </defs>
              <use
                 xlink:href="#DejaVuSans-32"
                 id="use16" />
              <use
                 xlink:href="#DejaVuSans-2e"
                 transform="translate(63.623047)"
                 id="use17" />
              <use
                 xlink:href="#DejaVuSans-30"
                 transform="translate(95.410156)"
                 id="use18" />
            </g>
          </g>
        </g>
        <g
           id="xtick_6">
          <g
             id="line2d_6">
            <g
               id="g19">
              <use
                 xlink:href="#m48a8d3f1c2"
                 x="219.1011"
                 y="35.233017"
                 style="stroke:#000000;stroke-width:0.8"
                 id="use19" />
            </g>
          </g>
          <g
             id="text_5">
            <!-- 2.5 -->
            <g
               transform="matrix(0.1,0,0,-0.1,211.14954,49.831455)"
               id="g22">
              <use
                 xlink:href="#DejaVuSans-32"
                 id="use20" />
              <use
                 xlink:href="#DejaVuSans-2e"
                 transform="translate(63.623047)"
                 id="use21" />
              <use
                 xlink:href="#DejaVuSans-35"
                 transform="translate(95.410156)"
                 id="use22" />
            </g>
          </g>
        </g>
        <g
           id="xtick_7">
          <g
             id="line2d_7">
            <defs
               id="defs22">
              <path
                 id="m9ac958b1d1"
                 d="M 0,0 V 2"
                 style="stroke:#000000;stroke-width:0.6" />
            </defs>
            <g
               id="g23">
              <use
                 xlink:href="#m9ac958b1d1"
                 x="53.461643"
                 y="35.233017"
                 style="stroke:#000000;stroke-width:0.6"
                 id="use23" />
            </g>
          </g>
        </g>
        <g
           id="xtick_8">
          <g
             id="line2d_8">
            <g
               id="g24">
              <use
                 xlink:href="#m9ac958b1d1"
                 x="60.363289"
                 y="35.233017"
                 style="stroke:#000000;stroke-width:0.6"
                 id="use24" />
            </g>
          </g>
        </g>
        <g
           id="xtick_9">
          <g
             id="line2d_9">
            <g
               id="g25">
              <use
                 xlink:href="#m9ac958b1d1"
                 x="67.264931"
                 y="35.233017"
                 style="stroke:#000000;stroke-width:0.6"
                 id="use25" />
            </g>
          </g>
        </g>
        <g
           id="xtick_10">
          <g
             id="line2d_10">
            <g
               id="g26">
              <use
                 xlink:href="#m9ac958b1d1"
                 x="74.166573"
                 y="35.233017"
                 style="stroke:#000000;stroke-width:0.6"
                 id="use26" />
            </g>
          </g>
        </g>
        <g
           id="xtick_11">
          <g
             id="line2d_11">
            <g
               id="g27">
              <use
                 xlink:href="#m9ac958b1d1"
                 x="87.969864"
                 y="35.233017"
                 style="stroke:#000000;stroke-width:0.6"
                 id="use27" />
            </g>
          </g>
        </g>
        <g
           id="xtick_12">
          <g
             id="line2d_12">
            <g
               id="g28">
              <use
                 xlink:href="#m9ac958b1d1"
                 x="94.871506"
                 y="35.233017"
                 style="stroke:#000000;stroke-width:0.6"
                 id="use28" />
            </g>
          </g>
        </g>
        <g
           id="xtick_13">
          <g
             id="line2d_13">
            <g
               id="g29">
              <use
                 xlink:href="#m9ac958b1d1"
                 x="101.77316"
                 y="35.233017"
                 style="stroke:#000000;stroke-width:0.6"
                 id="use29" />
            </g>
          </g>
        </g>
        <g
           id="xtick_14">
          <g
             id="line2d_14">
            <g
               id="g30">
              <use
                 xlink:href="#m9ac958b1d1"
                 x="108.6748"
                 y="35.233017"
                 style="stroke:#000000;stroke-width:0.6"
                 id="use30" />
            </g>
          </g>
        </g>
        <g
           id="xtick_15">
          <g
             id="line2d_15">
            <g
               id="g31">
              <use
                 xlink:href="#m9ac958b1d1"
                 x="122.47809"
                 y="35.233017"
                 style="stroke:#000000;stroke-width:0.6"
                 id="use31" />
            </g>
          </g>
        </g>
        <g
           id="xtick_16">
          <g
             id="line2d_16">
            <g
               id="g32">
              <use
                 xlink:href="#m9ac958b1d1"
                 x="129.37973"
                 y="35.233017"
                 style="stroke:#000000;stroke-width:0.6"
                 id="use32" />
            </g>
          </g>
        </g>
        <g
           id="xtick_17">
          <g
             id="line2d_17">
            <g
               id="g33">
              <use
                 xlink:href="#m9ac958b1d1"
                 x="136.28137"
                 y="35.233017"
                 style="stroke:#000000;stroke-width:0.6"
                 id="use33" />
            </g>
          </g>
        </g>
        <g
           id="xtick_18">
          <g
             id="line2d_18">
            <g
               id="g34">
              <use
                 xlink:href="#m9ac958b1d1"
                 x="143.18301"
                 y="35.233017"
                 style="stroke:#000000;stroke-width:0.6"
                 id="use34" />
            </g>
          </g>
        </g>
        <g
           id="xtick_19">
          <g
             id="line2d_19">
            <g
               id="g35">
              <use
                 xlink:href="#m9ac958b1d1"
                 x="156.98631"
                 y="35.233017"
                 style="stroke:#000000;stroke-width:0.6"
                 id="use35" />
            </g>
          </g>
        </g>
        <g
           id="xtick_20">
          <g
             id="line2d_20">
            <g
               id="g36">
              <use
                 xlink:href="#m9ac958b1d1"
                 x="163.88795"
                 y="35.233017"
                 style="stroke:#000000;stroke-width:0.6"
                 id="use36" />
            </g>
          </g>
        </g>
        <g
           id="xtick_21">
          <g
             id="line2d_21">
            <g
               id="g37">
              <use
                 xlink:href="#m9ac958b1d1"
                 x="170.7896"
                 y="35.233017"
                 style="stroke:#000000;stroke-width:0.6"
                 id="use37" />
            </g>
          </g>
        </g>
        <g
           id="xtick_22">
          <g
             id="line2d_22">
            <g
               id="g38">
              <use
                 xlink:href="#m9ac958b1d1"
                 x="177.69124"
                 y="35.233017"
                 style="stroke:#000000;stroke-width:0.6"
                 id="use38" />
            </g>
          </g>
        </g>
        <g
           id="xtick_23">
          <g
             id="line2d_23">
            <g
               id="g39">
              <use
                 xlink:href="#m9ac958b1d1"
                 x="191.49452"
                 y="35.233017"
                 style="stroke:#000000;stroke-width:0.6"
                 id="use39" />
            </g>
          </g>
        </g>
        <g
           id="xtick_24">
          <g
             id="line2d_24">
            <g
               id="g40">
              <use
                 xlink:href="#m9ac958b1d1"
                 x="198.39616"
                 y="35.233017"
                 style="stroke:#000000;stroke-width:0.6"
                 id="use40" />
            </g>
          </g>
        </g>
        <g
           id="xtick_25">
          <g
             id="line2d_25">
            <g
               id="g41">
              <use
                 xlink:href="#m9ac958b1d1"
                 x="205.29782"
                 y="35.233017"
                 style="stroke:#000000;stroke-width:0.6"
                 id="use41" />
            </g>
          </g>
        </g>
        <g
           id="xtick_26">
          <g
             id="line2d_26">
            <g
               id="g42">
              <use
                 xlink:href="#m9ac958b1d1"
                 x="212.19946"
                 y="35.233017"
                 style="stroke:#000000;stroke-width:0.6"
                 id="use42" />
            </g>
          </g>
        </g>
        <g
           id="text_6"
           transform="translate(-93.320964,32.76)">
          <!-- Stretch $F_{xx}$ -->
          <g
             transform="matrix(0.16,0,0,-0.16,230.55192,35.233017)"
             id="g53">
            <defs
               id="defs42">
              <path
                 id="DejaVuSans-53"
                 d="m 3425,4513 v -616 q -359,172 -678,256 -319,85 -616,85 -515,0 -795,-200 -280,-200 -280,-569 0,-310 186,-468 186,-157 705,-254 l 381,-78 q 706,-135 1042,-474 336,-339 336,-907 0,-679 -455,-1029 -454,-350 -1332,-350 -331,0 -705,75 -373,75 -773,222 v 650 q 384,-215 753,-325 369,-109 725,-109 540,0 834,212 294,213 294,607 0,343 -211,537 -211,194 -692,291 l -385,75 q -706,140 -1022,440 -315,300 -315,835 0,619 436,975 436,356 1201,356 329,0 669,-60 341,-59 697,-177 z"
                 transform="scale(0.015625)" />
              <path
                 id="DejaVuSans-74"
                 d="M 1172,4494 V 3500 H 2356 V 3053 H 1172 V 1153 q 0,-428 117,-550 117,-122 477,-122 h 590 V 0 H 1766 Q 1100,0 847,248 594,497 594,1153 V 3053 H 172 v 447 h 422 v 994 z"
                 transform="scale(0.015625)" />
              <path
                 id="DejaVuSans-72"
                 d="m 2631,2963 q -97,56 -211,82 -114,27 -251,27 -488,0 -749,-317 -261,-317 -261,-911 V 0 H 581 v 3500 h 578 v -544 q 182,319 472,473 291,155 707,155 59,0 131,-8 72,-7 159,-23 z"
                 transform="scale(0.015625)" />
              <path
                 id="DejaVuSans-65"
                 d="M 3597,1894 V 1613 H 953 q 38,-594 358,-905 320,-311 892,-311 331,0 642,81 311,81 618,244 V 178 Q 3153,47 2828,-22 2503,-91 2169,-91 1331,-91 842,396 353,884 353,1716 q 0,859 464,1363 464,505 1252,505 706,0 1117,-455 411,-454 411,-1235 z m -575,169 q -6,471 -264,752 -258,282 -683,282 -481,0 -770,-272 -289,-272 -333,-766 z"
                 transform="scale(0.015625)" />
              <path
                 id="DejaVuSans-63"
                 d="m 3122,3366 v -538 q -244,135 -489,202 -245,67 -495,67 -560,0 -870,-355 -309,-354 -309,-995 0,-641 309,-996 310,-354 870,-354 250,0 495,67 245,67 489,202 V 134 Q 2881,22 2623,-34 2366,-91 2075,-91 1284,-91 818,406 353,903 353,1747 q 0,856 470,1346 471,491 1290,491 265,0 518,-55 253,-54 491,-163 z"
                 transform="scale(0.015625)" />
              <path
                 id="DejaVuSans-68"
                 d="M 3513,2113 V 0 h -575 v 2094 q 0,497 -194,743 -194,247 -581,247 -466,0 -735,-297 -269,-296 -269,-809 V 0 H 581 v 4863 h 578 V 2956 q 207,316 486,472 280,156 646,156 603,0 912,-373 310,-373 310,-1098 z"
                 transform="scale(0.015625)" />
              <path
                 id="DejaVuSans-20"
                 transform="scale(0.015625)"
                 d="" />
              <path
                 id="Cmmi10-46"
                 d="m 300,0 q -62,0 -62,84 3,16 12,55 9,39 26,62 18,24 43,24 390,0 544,44 84,28 121,172 l 879,3515 q 12,63 12,88 0,69 -78,78 -119,25 -459,25 -63,0 -63,84 3,16 12,55 10,39 27,62 17,24 42,24 h 3382 q 62,0 62,-84 L 4647,2963 q 0,-19 -22,-38 -22,-19 -44,-19 h -56 q -66,0 -66,82 41,290 41,475 0,318 -138,468 -137,150 -347,183 -209,33 -577,33 h -685 q -175,0 -231,-30 -56,-29 -103,-189 L 2009,2297 h 482 q 237,0 384,25 147,25 244,97 97,72 161,208 64,136 117,361 19,59 66,59 h 56 q 65,0 65,-84 L 3194,1381 q -28,-56 -66,-56 h -56 q -63,0 -63,84 16,66 25,110 10,44 24,126 14,83 14,146 0,184 -163,234 -162,50 -425,50 H 1959 L 1544,416 q -16,-63 -16,-63 0,-75 47,-84 166,-44 653,-44 63,0 63,-84 Q 2269,50 2256,25 2244,0 2181,0 Z"
                 transform="scale(0.015625)" />
              <path
                 id="Cmmi10-78"
                 d="m 500,184 q 113,-87 319,-87 200,0 353,192 153,192 209,420 l 291,1135 q 69,309 69,422 0,159 -89,278 -89,119 -249,119 -203,0 -381,-127 -178,-127 -300,-322 -122,-195 -172,-395 -12,-41 -50,-41 h -78 q -50,0 -50,60 v 18 q 62,238 212,464 150,227 367,367 218,141 465,141 234,0 423,-125 189,-125 267,-340 110,196 280,330 170,135 373,135 138,0 281,-49 144,-48 235,-148 91,-100 91,-250 0,-162 -105,-280 -105,-117 -267,-117 -103,0 -172,66 -69,66 -69,166 0,134 92,235 93,102 221,121 -116,91 -319,91 -206,0 -358,-191 -151,-191 -214,-425 L 1894,916 q -69,-257 -69,-422 0,-163 92,-280 92,-117 246,-117 300,0 535,264 236,264 311,580 13,37 50,37 h 79 q 25,0 40,-17 16,-17 16,-39 0,-6 -6,-19 Q 3097,522 2806,225 2516,-72 2150,-72 1916,-72 1727,54 1538,181 1459,397 1359,209 1182,68 1006,-72 806,-72 669,-72 523,-23 378,25 287,125 q -90,100 -90,253 0,150 104,273 105,124 262,124 106,0 178,-64 72,-64 72,-167 Q 813,409 723,309 634,209 500,184 Z"
                 transform="scale(0.015625)" />
            </defs>
            <use
               xlink:href="#DejaVuSans-53"
               transform="translate(0,0.015625)"
               id="use43" />
            <use
               xlink:href="#DejaVuSans-74"
               transform="translate(63.476562,0.015625)"
               id="use44" />
            <use
               xlink:href="#DejaVuSans-72"
               transform="translate(102.68555,0.015625)"
               id="use45" />
            <use
               xlink:href="#DejaVuSans-65"
               transform="translate(143.79883,0.015625)"
               id="use46" />
            <use
               xlink:href="#DejaVuSans-74"
               transform="translate(205.32227,0.015625)"
               id="use47" />
            <use
               xlink:href="#DejaVuSans-63"
               transform="translate(244.53125,0.015625)"
               id="use48" />
            <use
               xlink:href="#DejaVuSans-68"
               transform="translate(299.51172,0.015625)"
               id="use49" />
            <use
               xlink:href="#DejaVuSans-20"
               transform="translate(362.89062,0.015625)"
               id="use50" />
            <use
               xlink:href="#Cmmi10-46"
               transform="translate(394.67773,0.015625)"
               id="use51" />
            <use
               xlink:href="#Cmmi10-78"
               transform="matrix(0.7,0,0,0.7,458.98437,-16.990625)"
               id="use52" />
            <use
               xlink:href="#Cmmi10-78"
               transform="matrix(0.7,0,0,0.7,498.94043,-16.990625)"
               id="use53" />
          </g>
        </g>
      </g>
      <g
         id="matplotlib.axis_2">
        <g
           id="ytick_1">
          <g
             id="line2d_27">
            <defs
               id="defs53">
              <path
                 id="mc3b403a190"
                 d="M 0,0 H -3.5"
                 style="stroke:#000000;stroke-width:0.8" />
            </defs>
            <g
               id="g54">
              <use
                 xlink:href="#mc3b403a190"
                 x="46.560001"
                 y="122.62946"
                 style="stroke:#000000;stroke-width:0.8"
                 id="use54" />
            </g>
          </g>
          <g
             id="text_7">
            <!-- −10 -->
            <g
               transform="matrix(0.1,0,0,-0.1,18.455313,126.42868)"
               id="g57">
              <defs
                 id="defs54">
                <path
                   id="DejaVuSans-2212"
                   d="M 678,2272 H 4684 V 1741 H 678 Z"
                   transform="scale(0.015625)" />
              </defs>
              <use
                 xlink:href="#DejaVuSans-2212"
                 id="use55" />
              <use
                 xlink:href="#DejaVuSans-31"
                 transform="translate(83.789062)"
                 id="use56" />
              <use
                 xlink:href="#DejaVuSans-30"
                 transform="translate(147.41211)"
                 id="use57" />
            </g>
          </g>
        </g>
        <g
           id="ytick_2">
          <g
             id="line2d_28">
            <g
               id="g58">
              <use
                 xlink:href="#mc3b403a190"
                 x="46.560001"
                 y="105.15018"
                 style="stroke:#000000;stroke-width:0.8"
                 id="use58" />
            </g>
          </g>
          <g
             id="text_8">
            <!-- −8 -->
            <g
               transform="matrix(0.1,0,0,-0.1,24.817813,108.94939)"
               id="g60">
              <defs
                 id="defs58">
                <path
                   id="DejaVuSans-38"
                   d="m 2034,2216 q -450,0 -708,-241 -257,-241 -257,-662 0,-422 257,-663 258,-241 708,-241 450,0 709,242 260,243 260,662 0,421 -258,662 -257,241 -711,241 z m -631,268 q -406,100 -633,378 -226,279 -226,679 0,559 398,884 399,325 1092,325 697,0 1094,-325 397,-325 397,-884 0,-400 -227,-679 -226,-278 -629,-378 456,-106 710,-416 255,-309 255,-755 Q 3634,634 3220,271 2806,-91 2034,-91 1263,-91 848,271 434,634 434,1313 q 0,446 256,755 257,310 713,416 z m -231,997 q 0,-362 226,-565 227,-203 636,-203 407,0 636,203 230,203 230,565 0,363 -230,566 -229,203 -636,203 -409,0 -636,-203 -226,-203 -226,-566 z"
                   transform="scale(0.015625)" />
              </defs>
              <use
                 xlink:href="#DejaVuSans-2212"
                 id="use59" />
              <use
                 xlink:href="#DejaVuSans-38"
                 transform="translate(83.789062)"
                 id="use60" />
            </g>
          </g>
        </g>
        <g
           id="ytick_3">
          <g
             id="line2d_29">
            <g
               id="g61">
              <use
                 xlink:href="#mc3b403a190"
                 x="46.560001"
                 y="87.670883"
                 style="stroke:#000000;stroke-width:0.8"
                 id="use61" />
            </g>
          </g>
          <g
             id="text_9">
            <!-- −6 -->
            <g
               transform="matrix(0.1,0,0,-0.1,24.817813,91.470105)"
               id="g63">
              <defs
                 id="defs61">
                <path
                   id="DejaVuSans-36"
                   d="m 2113,2584 q -425,0 -674,-291 -248,-290 -248,-796 0,-503 248,-796 249,-292 674,-292 425,0 673,292 248,293 248,796 0,506 -248,796 -248,291 -673,291 z m 1253,1979 v -575 q -238,112 -480,171 -242,60 -480,60 -625,0 -955,-422 -329,-422 -376,-1275 184,272 462,417 279,145 613,145 703,0 1111,-427 408,-426 408,-1160 0,-719 -425,-1154 -425,-434 -1131,-434 -810,0 -1238,620 -428,621 -428,1799 0,1106 525,1764 525,658 1409,658 238,0 480,-47 242,-47 505,-140 z"
                   transform="scale(0.015625)" />
              </defs>
              <use
                 xlink:href="#DejaVuSans-2212"
                 id="use62" />
              <use
                 xlink:href="#DejaVuSans-36"
                 transform="translate(83.789062)"
                 id="use63" />
            </g>
          </g>
        </g>
        <g
           id="ytick_4">
          <g
             id="line2d_30">
            <g
               id="g64">
              <use
                 xlink:href="#mc3b403a190"
                 x="46.560001"
                 y="70.191597"
                 style="stroke:#000000;stroke-width:0.8"
                 id="use64" />
            </g>
          </g>
          <g
             id="text_10">
            <!-- −4 -->
            <g
               transform="matrix(0.1,0,0,-0.1,24.817813,73.990815)"
               id="g66">
              <defs
                 id="defs64">
                <path
                   id="DejaVuSans-34"
                   d="M 2419,4116 825,1625 h 1594 z m -166,550 h 794 V 1625 h 666 V 1100 H 3047 V 0 H 2419 V 1100 H 313 v 609 z"
                   transform="scale(0.015625)" />
              </defs>
              <use
                 xlink:href="#DejaVuSans-2212"
                 id="use65" />
              <use
                 xlink:href="#DejaVuSans-34"
                 transform="translate(83.789062)"
                 id="use66" />
            </g>
          </g>
        </g>
        <g
           id="ytick_5">
          <g
             id="line2d_31">
            <g
               id="g67">
              <use
                 xlink:href="#mc3b403a190"
                 x="46.560001"
                 y="52.712307"
                 style="stroke:#000000;stroke-width:0.8"
                 id="use67" />
            </g>
          </g>
          <g
             id="text_11">
            <!-- −2 -->
            <g
               transform="matrix(0.1,0,0,-0.1,24.817813,56.511526)"
               id="g69">
              <use
                 xlink:href="#DejaVuSans-2212"
                 id="use68" />
              <use
                 xlink:href="#DejaVuSans-32"
                 transform="translate(83.789062)"
                 id="use69" />
            </g>
          </g>
        </g>
        <g
           id="ytick_6">
          <g
             id="line2d_32">
            <g
               id="g70">
              <use
                 xlink:href="#mc3b403a190"
                 x="46.560001"
                 y="35.233017"
                 style="stroke:#000000;stroke-width:0.8"
                 id="use70" />
            </g>
          </g>
        </g>
        <g
           id="ytick_7">
          <g
             id="line2d_33">
            <defs
               id="defs70">
              <path
                 id="m236c239c6d"
                 d="M 0,0 H -2"
                 style="stroke:#000000;stroke-width:0.6" />
            </defs>
            <g
               id="g71">
              <use
                 xlink:href="#m236c239c6d"
                 x="46.560001"
                 y="118.25964"
                 style="stroke:#000000;stroke-width:0.6"
                 id="use71" />
            </g>
          </g>
        </g>
        <g
           id="ytick_8">
          <g
             id="line2d_34">
            <g
               id="g72">
              <use
                 xlink:href="#m236c239c6d"
                 x="46.560001"
                 y="113.88982"
                 style="stroke:#000000;stroke-width:0.6"
                 id="use72" />
            </g>
          </g>
        </g>
        <g
           id="ytick_9">
          <g
             id="line2d_35">
            <g
               id="g73">
              <use
                 xlink:href="#m236c239c6d"
                 x="46.560001"
                 y="109.52"
                 style="stroke:#000000;stroke-width:0.6"
                 id="use73" />
            </g>
          </g>
        </g>
        <g
           id="ytick_10">
          <g
             id="line2d_36">
            <g
               id="g74">
              <use
                 xlink:href="#m236c239c6d"
                 x="46.560001"
                 y="100.78035"
                 style="stroke:#000000;stroke-width:0.6"
                 id="use74" />
            </g>
          </g>
        </g>
        <g
           id="ytick_11">
          <g
             id="line2d_37">
            <g
               id="g75">
              <use
                 xlink:href="#m236c239c6d"
                 x="46.560001"
                 y="96.41053"
                 style="stroke:#000000;stroke-width:0.6"
                 id="use75" />
            </g>
          </g>
        </g>
        <g
           id="ytick_12">
          <g
             id="line2d_38">
            <g
               id="g76">
              <use
                 xlink:href="#m236c239c6d"
                 x="46.560001"
                 y="92.04071"
                 style="stroke:#000000;stroke-width:0.6"
                 id="use76" />
            </g>
          </g>
        </g>
        <g
           id="ytick_13">
          <g
             id="line2d_39">
            <g
               id="g77">
              <use
                 xlink:href="#m236c239c6d"
                 x="46.560001"
                 y="83.301064"
                 style="stroke:#000000;stroke-width:0.6"
                 id="use77" />
            </g>
          </g>
        </g>
        <g
           id="ytick_14">
          <g
             id="line2d_40">
            <g
               id="g78">
              <use
                 xlink:href="#m236c239c6d"
                 x="46.560001"
                 y="78.931244"
                 style="stroke:#000000;stroke-width:0.6"
                 id="use78" />
            </g>
          </g>
        </g>
        <g
           id="ytick_15">
          <g
             id="line2d_41">
            <g
               id="g79">
              <use
                 xlink:href="#m236c239c6d"
                 x="46.560001"
                 y="74.561417"
                 style="stroke:#000000;stroke-width:0.6"
                 id="use79" />
            </g>
          </g>
        </g>
        <g
           id="ytick_16">
          <g
             id="line2d_42">
            <g
               id="g80">
              <use
                 xlink:href="#m236c239c6d"
                 x="46.560001"
                 y="65.821777"
                 style="stroke:#000000;stroke-width:0.6"
                 id="use80" />
            </g>
          </g>
        </g>
        <g
           id="ytick_17">
          <g
             id="line2d_43">
            <g
               id="g81">
              <use
                 xlink:href="#m236c239c6d"
                 x="46.560001"
                 y="61.451954"
                 style="stroke:#000000;stroke-width:0.6"
                 id="use81" />
            </g>
          </g>
        </g>
        <g
           id="ytick_18">
          <g
             id="line2d_44">
            <g
               id="g82">
              <use
                 xlink:href="#m236c239c6d"
                 x="46.560001"
                 y="57.08213"
                 style="stroke:#000000;stroke-width:0.6"
                 id="use82" />
            </g>
          </g>
        </g>
        <g
           id="ytick_19">
          <g
             id="line2d_45">
            <g
               id="g83">
              <use
                 xlink:href="#m236c239c6d"
                 x="46.560001"
                 y="48.342484"
                 style="stroke:#000000;stroke-width:0.6"
                 id="use83" />
            </g>
          </g>
        </g>
        <g
           id="ytick_20">
          <g
             id="line2d_46">
            <g
               id="g84">
              <use
                 xlink:href="#m236c239c6d"
                 x="46.560001"
                 y="43.972664"
                 style="stroke:#000000;stroke-width:0.6"
                 id="use84" />
            </g>
          </g>
        </g>
        <g
           id="ytick_21">
          <g
             id="line2d_47">
            <g
               id="g85">
              <use
                 xlink:href="#m236c239c6d"
                 x="46.560001"
                 y="39.60284"
                 style="stroke:#000000;stroke-width:0.6"
                 id="use85" />
            </g>
          </g>
        </g>
        <g
           id="ytick_22">
          <g
             id="line2d_48">
            <g
               id="g86">
              <use
                 xlink:href="#m236c239c6d"
                 x="46.560001"
                 y="30.863195"
                 style="stroke:#000000;stroke-width:0.6"
                 id="use86" />
            </g>
          </g>
        </g>
        <g
           id="ytick_23">
          <g
             id="line2d_49">
            <g
               id="g87">
              <use
                 xlink:href="#m236c239c6d"
                 x="46.560001"
                 y="26.493374"
                 style="stroke:#000000;stroke-width:0.6"
                 id="use87" />
            </g>
          </g>
        </g>
        <g
           id="text_12"
           transform="translate(11.259688,7.5)">
          <!-- Stress $P_{xx}$ -->
          <g
             transform="matrix(0.16,0,0,-0.16,7.2,12.115)"
             id="g97">
            <defs
               id="defs87">
              <path
                 id="DejaVuSans-73"
                 d="m 2834,3397 v -544 q -243,125 -506,187 -262,63 -544,63 -428,0 -642,-131 -214,-131 -214,-394 0,-200 153,-314 153,-114 616,-217 l 197,-44 q 612,-131 870,-370 258,-239 258,-667 0,-488 -386,-773 Q 2250,-91 1575,-91 1294,-91 989,-36 684,19 347,128 v 594 q 319,-166 628,-249 309,-82 613,-82 406,0 624,139 219,139 219,392 0,234 -158,359 -157,125 -692,241 l -200,47 q -534,112 -772,345 -237,233 -237,639 0,494 350,762 350,269 994,269 318,0 599,-47 282,-46 519,-140 z"
                 transform="scale(0.015625)" />
              <path
                 id="Cmmi10-50"
                 d="m 313,0 q -63,0 -63,84 3,16 12,55 10,39 27,62 17,24 42,24 391,0 547,44 81,28 119,172 l 878,3515 q 13,63 13,88 0,69 -75,78 -122,25 -463,25 -62,0 -62,84 3,16 12,55 9,39 26,62 18,24 43,24 h 2209 q 303,0 587,-108 285,-108 466,-330 182,-221 182,-537 0,-406 -286,-725 -286,-319 -713,-497 -426,-178 -826,-178 H 1947 L 1556,416 q -12,-63 -12,-91 0,-25 7,-42 8,-17 22,-22 15,-5 46,-11 122,-25 462,-25 63,0 63,-84 Q 2122,50 2109,25 2097,0 2034,0 Z m 1665,2188 h 897 q 622,0 947,334 166,166 270,478 105,313 105,566 0,315 -241,448 -240,133 -597,133 h -612 q -175,0 -232,-30 -56,-29 -102,-189 z"
                 transform="scale(0.015625)" />
            </defs>
            <use
               xlink:href="#DejaVuSans-53"
               transform="translate(0,0.78125)"
               id="use88" />
            <use
               xlink:href="#DejaVuSans-74"
               transform="translate(63.476562,0.78125)"
               id="use89" />
            <use
               xlink:href="#DejaVuSans-72"
               transform="translate(102.68555,0.78125)"
               id="use90" />
            <use
               xlink:href="#DejaVuSans-65"
               transform="translate(143.79883,0.78125)"
               id="use91" />
            <use
               xlink:href="#DejaVuSans-73"
               transform="translate(205.32227,0.78125)"
               id="use92" />
            <use
               xlink:href="#DejaVuSans-73"
               transform="translate(257.42187,0.78125)"
               id="use93" />
            <use
               xlink:href="#DejaVuSans-20"
               transform="translate(309.52148,0.78125)"
               id="use94" />
            <use
               xlink:href="#Cmmi10-50"
               transform="translate(341.30859,0.78125)"
               id="use95" />
            <use
               xlink:href="#Cmmi10-78"
               transform="matrix(0.7,0,0,0.7,405.51758,-16.225)"
               id="use96" />
            <use
               xlink:href="#Cmmi10-78"
               transform="matrix(0.7,0,0,0.7,445.47363,-16.225)"
               id="use97" />
          </g>
        </g>
      </g>
      <g
         id="line2d_50">
        <path
           d="m 64.010123,136.70837 1.295619,-12.16315 1.359831,-10.66108 1.344753,-8.87978 1.403851,-7.872547 1.513443,-7.211875 1.562688,-6.336067 1.539241,-5.35304 1.671906,-5.005922 1.599351,-4.144208 1.664986,-3.763547 1.815055,-3.57346 1.758138,-3.024426 1.913777,-2.886048 2.147989,-2.820699 2.118701,-2.422962 2.323532,-2.318166 2.444006,-2.12148 2.609171,-1.968955 2.769224,-1.814218 3.138435,-1.775076 3.58682,-1.732247 3.70024,-1.520533 3.6983,-1.302098 4.3061,-1.295559 5.13812,-1.299006 5.84538,-1.223483 6.20715,-1.071509 7.61502,-1.072403 7.20869,-0.829216 10.53281,-0.972959 12.23842,-0.875732 15.03016,-0.820624 17.31642,-0.714242 14.67365,-0.474711 v 0"
           clip-path="url(#pde69ed0efb)"
           style="fill:none;stroke:#0000ff;stroke-linecap:square"
           id="path97" />
      </g>
      <g
         id="patch_3">
        <path
           d="M 46.56,124.57431 V 23.4425"
           style="fill:none;stroke:#000000;stroke-width:0.8;stroke-linecap:square;stroke-linejoin:miter"
           id="path98" />
      </g>
      <g
         id="patch_4">
        <path
           d="M 43.109178,35.233017 H 222.55192"
           style="fill:none;stroke:#000000;stroke-width:0.8;stroke-linecap:square;stroke-linejoin:miter"
           id="path99" />
      </g>
    </g>
  </g>
  <defs
     id="defs99">
    <clipPath
       id="pde69ed0efb">
      <rect
         x="43.109177"
         y="23.442499"
         width="179.44275"
         height="101.13181"
         id="rect99" />
    </clipPath>
  </defs>
</svg>
